<?xml version="1.0" encoding="utf-8"?>
<COLLADA xmlns="http://www.collada.org/2005/11/COLLADASchema" version="1.4.1" xmlns:xsi="http://www.w3.org/2001/XMLSchema-instance">
  <asset>
    <contributor>
      <author>Blender User</author>
      <authoring_tool>Blender 4.0.0 commit date:2023-11-13, commit time:17:26, hash:878f71061b8e</authoring_tool>
    </contributor>
    <created>2026-09-14T16:45:22</created>
    <modified>2026-09-14T16:45:22</modified>
    <unit name="meter" meter="1"/>
    <up_axis>Z_UP</up_axis>
  </asset>
  <library_effects>
    <effect id="NDS_Material-effect">
      <profile_COMMON>
        <technique sid="common">
          <lambert>
            <emission>
              <color sid="emission">0 0 0 1</color>
            </emission>
            <diffuse>
              <color sid="diffuse">0.8 0.8 0.8 1</color>
            </diffuse>
            <reflectivity>
              <float sid="specular">0.5</float>
            </reflectivity>
          </lambert>
        </technique>
      </profile_COMMON>
    </effect>
    <effect id="NDS_Material_001-effect">
      <profile_COMMON>
        <technique sid="common">
          <lambert>
            <emission>
              <color sid="emission">0 0 0 1</color>
            </emission>
            <diffuse>
              <color sid="diffuse">0.8 0.8 0.8 1</color>
            </diffuse>
            <reflectivity>
              <float sid="specular">0.5</float>
            </reflectivity>
          </lambert>
        </technique>
      </profile_COMMON>
    </effect>
    <effect id="NDS_Material_002-effect">
      <profile_COMMON>
        <technique sid="common">
          <lambert>
            <emission>
              <color sid="emission">0 0 0 1</color>
            </emission>
            <diffuse>
              <color sid="diffuse">0.8 0.8 0.8 1</color>
            </diffuse>
            <reflectivity>
              <float sid="specular">0.5</float>
            </reflectivity>
          </lambert>
        </technique>
      </profile_COMMON>
    </effect>
    <effect id="NDS_Material_003-effect">
      <profile_COMMON>
        <technique sid="common">
          <lambert>
            <emission>
              <color sid="emission">0 0 0 1</color>
            </emission>
            <diffuse>
              <color sid="diffuse">0.8 0.8 0.8 1</color>
            </diffuse>
            <reflectivity>
              <float sid="specular">0.5</float>
            </reflectivity>
          </lambert>
        </technique>
      </profile_COMMON>
    </effect>
    <effect id="NDS_Material_004-effect">
      <profile_COMMON>
        <technique sid="common">
          <lambert>
            <emission>
              <color sid="emission">0 0 0 1</color>
            </emission>
            <diffuse>
              <color sid="diffuse">0.8 0.8 0.8 1</color>
            </diffuse>
            <reflectivity>
              <float sid="specular">0.5</float>
            </reflectivity>
          </lambert>
        </technique>
      </profile_COMMON>
    </effect>
    <effect id="NDS_Material_005-effect">
      <profile_COMMON>
        <technique sid="common">
          <lambert>
            <emission>
              <color sid="emission">0 0 0 1</color>
            </emission>
            <diffuse>
              <color sid="diffuse">0.8 0.8 0.8 1</color>
            </diffuse>
            <reflectivity>
              <float sid="specular">0.5</float>
            </reflectivity>
          </lambert>
        </technique>
      </profile_COMMON>
    </effect>
  </library_effects>
  <library_images/>
  <library_materials>
    <material id="NDS_Material-material" name="NDS Material">
      <instance_effect url="#NDS_Material-effect"/>
    </material>
    <material id="NDS_Material_001-material" name="NDS Material.001">
      <instance_effect url="#NDS_Material_001-effect"/>
    </material>
    <material id="NDS_Material_002-material" name="NDS Material.002">
      <instance_effect url="#NDS_Material_002-effect"/>
    </material>
    <material id="NDS_Material_003-material" name="NDS Material.003">
      <instance_effect url="#NDS_Material_003-effect"/>
    </material>
    <material id="NDS_Material_004-material" name="NDS Material.004">
      <instance_effect url="#NDS_Material_004-effect"/>
    </material>
    <material id="NDS_Material_005-material" name="NDS Material.005">
      <instance_effect url="#NDS_Material_005-effect"/>
    </material>
  </library_materials>
  <library_geometries>
    <geometry id="beyblade4noa-2026-09-14-16-26-46-563_001-mesh" name="beyblade4noa-2026-09-14-16-26-46-563.001">
      <mesh>
        <source id="beyblade4noa-2026-09-14-16-26-46-563_001-mesh-positions">
          <float_array id="beyblade4noa-2026-09-14-16-26-46-563_001-mesh-positions-array" count="900">0.395697 -0.8864282 -0.3214629 0.3759216 -0.9037622 -0.279959 -0.3347717 -0.9125513 -0.3014434 -0.3523498 -0.8957056 -0.344168 -0.3523498 -0.8957056 -0.344168 -0.3347717 -0.9125513 -0.3014434 -0.71026 -0.6813501 0.2566621 -0.7478576 -0.6525415 0.2432343 -0.7478576 -0.6525415 0.2432343 -0.71026 -0.6813501 0.2566621 -0.3748108 -0.441604 0.8364961 -0.3945862 -0.4001001 0.85383 -0.3945862 -0.4001001 0.85383 -0.3748108 -0.441604 0.8364961 0.3358826 -0.432815 0.8579804 0.3534607 -0.3908228 0.876291 0.3534607 -0.3908228 0.876291 0.3358826 -0.432815 0.8579804 0.7113709 -0.663772 0.299875 0.7489686 -0.6339868 0.2888886 0.7489686 -0.6339868 0.2888886 0.7113709 -0.663772 0.299875 0.3759216 -0.9037622 -0.279959 0.395697 -0.8864282 -0.3214629 0.1154236 0.4514623 0.08820503 0.1041931 0.4775854 0.05085146 -0.1306701 0.4482885 0.08088082 -0.1306701 0.4482885 0.08088082 0.1041931 0.4775854 0.05085146 -0.1179748 0.4748998 0.04425966 -0.1306701 0.4482885 0.08088082 -0.1179748 0.4748998 0.04425966 -0.2544494 0.3879858 -0.06535941 -0.2544494 0.3879858 -0.06535941 -0.1179748 0.4748998 0.04425966 -0.2297912 0.4202123 -0.08782035 -0.2544494 0.3879858 -0.06535941 -0.2297912 0.4202123 -0.08782035 -0.2483459 0.3152319 -0.2411406 -0.2483459 0.3152319 -0.2411406 -0.2297912 0.4202123 -0.08782035 -0.224176 0.3545385 -0.2467558 -0.2483459 0.3152319 -0.2411406 -0.224176 0.3545385 -0.2467558 -0.1030822 0.3027807 -0.3715118 -0.1030822 0.3027807 -0.3715118 -0.224176 0.3545385 -0.2467558 0.1188415 0.3057104 -0.36492 -0.1030822 0.3027807 -0.3715118 0.1188415 0.3057104 -0.36492 0.131781 0.2607885 -0.3722442 0.1154236 0.4514623 0.08820503 0.2492126 0.3940893 -0.04997855 0.1041931 0.4775854 0.05085146 0.1041931 0.4775854 0.05085146 0.2492126 0.3940893 -0.04997855 0.2250427 0.4258276 -0.07414847 0.1041931 0.4775854 0.05085146 0.2250427 0.4258276 -0.07414847 -0.1179748 0.4748998 0.04425966 -0.1179748 0.4748998 0.04425966 0.2250427 0.4258276 -0.07414847 0.2306579 0.3601537 -0.2328398 -0.1179748 0.4748998 0.04425966 0.2306579 0.3601537 -0.2328398 0.1188415 0.3057104 -0.36492 0.1188415 0.3057104 -0.36492 0.2306579 0.3601537 -0.2328398 0.2555603 0.3213354 -0.2260039 0.1188415 0.3057104 -0.36492 0.2555603 0.3213354 -0.2260039 0.131781 0.2607885 -0.3722442 0.2492126 -0.0629419 0.1392304 0.1154236 0.4514623 0.08820503 0.1154236 -0.005813002 0.2776582 0.1154236 -0.005813002 0.2776582 0.1154236 0.4514623 0.08820503 -0.1306701 0.4482885 0.08088082 0.1154236 -0.005813002 0.2776582 -0.1306701 0.4482885 0.08088082 -0.1306701 -0.00874269 0.2700898 -0.1306701 -0.00874269 0.2700898 -0.1306701 0.4482885 0.08088082 -0.2544494 0.3879858 -0.06535941 -0.1306701 -0.00874269 0.2700898 -0.2544494 0.3879858 -0.06535941 -0.2544494 -0.06928956 0.1238495 -0.2544494 -0.06928956 0.1238495 -0.2544494 0.3879858 -0.06535941 -0.2483459 -0.1420435 -0.05193167 0.2833923 -0.379104 0.2840058 0.1312927 0.03813225 0.2954804 0.1312927 -0.3139185 0.4412324 0.1312927 -0.3139185 0.4412324 0.1312927 0.03813225 0.2954804 -0.1484924 0.03471428 0.2871797 0.1312927 -0.3139185 0.4412324 -0.1484924 0.03471428 0.2871797 -0.1484924 -0.3173364 0.4329316 -0.1484924 -0.3173364 0.4329316 -0.1484924 0.03471428 0.2871797 -0.2893615 -0.03413331 0.1206757 -0.1484924 -0.3173364 0.4329316 -0.2893615 -0.03413331 0.1206757 -0.2893615 -0.3861841 0.2666718 -0.2893615 -0.3861841 0.2666718 -0.2893615 -0.03413331 0.1206757 -0.2822815 -0.4689478 0.06672066 0.3190369 -0.1723169 0.7161347 -0.3562561 -0.1806177 0.6956269 -0.3945862 -0.1732935 0.7598359 -0.3945862 -0.1732935 0.7598359 -0.3562561 -0.1806177 0.6956269 -0.6748596 -0.4084009 0.1448456 -0.3945862 -0.1732935 0.7598359 -0.6748596 -0.4084009 0.1448456 -0.7478576 -0.425979 0.1494843 -0.7478576 -0.425979 0.1494843 -0.6748596 -0.4084009 0.1448456 -0.317926 -0.6278833 -0.3851836 -0.7478576 -0.425979 0.1494843 -0.317926 -0.6278833 -0.3851836 -0.3523498 -0.6691431 -0.437918 -0.3523498 -0.6691431 -0.437918 -0.317926 -0.6278833 -0.3851836 0.395697 -0.6598657 -0.4154571 -0.3945862 -0.1732935 0.7598359 0.3534607 -0.1642603 0.782541 0.3190369 -0.1723169 0.7161347 0.3190369 -0.1723169 0.7161347 0.3534607 -0.1642603 0.782541 0.7489686 -0.4074243 0.1951386 0.3190369 -0.1723169 0.7161347 0.7489686 -0.4074243 0.1951386 0.6759705 -0.3917993 0.1858612 0.6759705 -0.3917993 0.1858612 0.7489686 -0.4074243 0.1951386 0.395697 -0.6598657 -0.4154571 0.6759705 -0.3917993 0.1858612 0.395697 -0.6598657 -0.4154571 0.3573669 -0.6195825 -0.36492 0.3573669 -0.6195825 -0.36492 0.395697 -0.6598657 -0.4154571 -0.317926 -0.6278833 -0.3851836 0.131781 -0.1964868 -0.1830351 0.131781 0.2607885 -0.3722442 0.2555603 -0.13594 -0.03679496 0.2555603 -0.13594 -0.03679496 0.131781 0.2607885 -0.3722442 0.2555603 0.3213354 -0.2260039 0.2555603 -0.13594 -0.03679496 0.2555603 0.3213354 -0.2260039 0.2492126 -0.0629419 0.1392304 0.2492126 -0.0629419 0.1392304 0.2555603 0.3213354 -0.2260039 0.2492126 0.3940893 -0.04997855 0.2492126 -0.0629419 0.1392304 0.2492126 0.3940893 -0.04997855 0.1154236 0.4514623 0.08820503 0.1496033 -0.5307154 -0.08220511 0.1496033 -0.1786646 -0.227957 0.2904724 -0.4618677 0.08405464 0.2904724 -0.4618677 0.08405464 0.1496033 -0.1786646 -0.227957 0.2904724 -0.1098169 -0.0616973 0.2904724 -0.4618677 0.08405464 0.2904724 -0.1098169 -0.0616973 0.2833923 -0.379104 0.2840058 0.2833923 -0.379104 0.2840058 0.2904724 -0.1098169 -0.0616973 0.2833923 -0.02705323 0.1382538 0.2833923 -0.379104 0.2840058 0.2833923 -0.02705323 0.1382538 0.1312927 0.03813225 0.2954804 0.1496033 -0.1786646 -0.227957 0.1496033 -0.5307154 -0.08220511 -0.1301819 -0.1820825 -0.2365019 -0.1301819 -0.1820825 -0.2365019 0.1496033 -0.5307154 -0.08220511 -0.1301819 -0.5341333 -0.09075003 -0.1301819 -0.1820825 -0.2365019 -0.1301819 -0.5341333 -0.09075003 -0.2822815 -0.116897 -0.07903128 -0.2822815 -0.116897 -0.07903128 -0.1301819 -0.5341333 -0.09075003 -0.2822815 -0.4689478 0.06672066 -0.2822815 -0.116897 -0.07903128 -0.2822815 -0.4689478 0.06672066 -0.2893615 -0.03413331 0.1206757 0.131781 0.2607885 -0.3722442 0.131781 -0.1964868 -0.1830351 -0.1145569 0.2578588 -0.3795684 -0.1145569 0.2578588 -0.3795684 0.131781 -0.1964868 -0.1830351 -0.1145569 -0.1994165 -0.1903594 -0.1145569 0.2578588 -0.3795684 -0.1145569 -0.1994165 -0.1903594 -0.2483459 0.3152319 -0.2411406 -0.2483459 0.3152319 -0.2411406 -0.1145569 -0.1994165 -0.1903594 -0.2483459 -0.1420435 -0.05193167 -0.3562561 -0.1806177 0.6956269 0.3190369 -0.1723169 0.7161347 -0.6748596 -0.4084009 0.1448456 -0.6748596 -0.4084009 0.1448456 0.3190369 -0.1723169 0.7161347 0.6759705 -0.3917993 0.1858612 -0.6748596 -0.4084009 0.1448456 0.6759705 -0.3917993 0.1858612 -0.317926 -0.6278833 -0.3851836 -0.317926 -0.6278833 -0.3851836 0.6759705 -0.3917993 0.1858612 0.3573669 -0.6195825 -0.36492 0.1312927 0.03813225 0.2954804 0.2833923 -0.02705323 0.1382538 -0.1484924 0.03471428 0.2871797 -0.1484924 0.03471428 0.2871797 0.2833923 -0.02705323 0.1382538 0.2904724 -0.1098169 -0.0616973 -0.1484924 0.03471428 0.2871797 0.2904724 -0.1098169 -0.0616973 0.1496033 -0.1786646 -0.227957 -0.1484924 0.03471428 0.2871797 0.1496033 -0.1786646 -0.227957 -0.2893615 -0.03413331 0.1206757 -0.2893615 -0.03413331 0.1206757 0.1496033 -0.1786646 -0.227957 -0.2822815 -0.116897 -0.07903128 0.3534607 -0.1642603 0.782541 -0.3945862 -0.1732935 0.7598359 0.3534607 -0.3908228 0.876291 0.3534607 -0.3908228 0.876291 -0.3945862 -0.1732935 0.7598359 -0.3945862 -0.4001001 0.85383 0.7489686 -0.4074243 0.1951386 0.3534607 -0.1642603 0.782541 0.7489686 -0.6339868 0.2888886 0.7489686 -0.6339868 0.2888886 0.3534607 -0.1642603 0.782541 0.3534607 -0.3908228 0.876291 0.395697 -0.6598657 -0.4154571 0.7489686 -0.4074243 0.1951386 0.395697 -0.8864282 -0.3214629 0.395697 -0.8864282 -0.3214629 0.7489686 -0.4074243 0.1951386 0.7489686 -0.6339868 0.2888886 -0.3523498 -0.6691431 -0.437918 0.395697 -0.6598657 -0.4154571 -0.3523498 -0.8957056 -0.344168 -0.3523498 -0.8957056 -0.344168 0.395697 -0.6598657 -0.4154571 0.395697 -0.8864282 -0.3214629 -0.7478576 -0.425979 0.1494843 -0.3523498 -0.6691431 -0.437918 -0.7478576 -0.6525415 0.2432343 -0.7478576 -0.6525415 0.2432343 -0.3523498 -0.6691431 -0.437918 -0.3523498 -0.8957056 -0.344168 -0.3945862 -0.1732935 0.7598359 -0.7478576 -0.425979 0.1494843 -0.3945862 -0.4001001 0.85383 -0.3945862 -0.4001001 0.85383 -0.7478576 -0.425979 0.1494843 -0.7478576 -0.6525415 0.2432343 0.3759216 -0.9037622 -0.279959 0.7113709 -0.663772 0.299875 -0.3347717 -0.9125513 -0.3014434 -0.3347717 -0.9125513 -0.3014434 0.7113709 -0.663772 0.299875 -0.71026 -0.6813501 0.2566621 0.7113709 -0.663772 0.299875 0.3358826 -0.432815 0.8579804 -0.71026 -0.6813501 0.2566621 -0.71026 -0.6813501 0.2566621 0.3358826 -0.432815 0.8579804 -0.3748108 -0.441604 0.8364961 0.2250427 0.4258276 -0.07414847 0.2492126 0.3940893 -0.04997855 0.2306579 0.3601537 -0.2328398 0.2306579 0.3601537 -0.2328398 0.2492126 0.3940893 -0.04997855 0.2555603 0.3213354 -0.2260039 -0.1179748 0.4748998 0.04425966 0.1188415 0.3057104 -0.36492 -0.2297912 0.4202123 -0.08782035 -0.2297912 0.4202123 -0.08782035 0.1188415 0.3057104 -0.36492 -0.224176 0.3545385 -0.2467558 0.131781 0.2607885 -0.3722442 -0.1145569 0.2578588 -0.3795684 -0.1030822 0.3027807 -0.3715118 -0.1030822 0.3027807 -0.3715118 -0.1145569 0.2578588 -0.3795684 -0.2483459 0.3152319 -0.2411406 -0.2483459 0.3152319 -0.2411406 -0.2483459 -0.1420435 -0.05193167 -0.2544494 0.3879858 -0.06535941 0.1496033 -0.1786646 -0.227957 -0.1301819 -0.1820825 -0.2365019 -0.2822815 -0.116897 -0.07903128</float_array>
          <technique_common>
            <accessor source="#beyblade4noa-2026-09-14-16-26-46-563_001-mesh-positions-array" count="300" stride="3">
              <param name="X" type="float"/>
              <param name="Y" type="float"/>
              <param name="Z" type="float"/>
            </accessor>
          </technique_common>
        </source>
        <source id="beyblade4noa-2026-09-14-16-26-46-563_001-mesh-normals">
          <float_array id="beyblade4noa-2026-09-14-16-26-46-563_001-mesh-normals-array" count="306">0.0229004 -0.926347 -0.3759747 -0.5960129 -0.7999029 -0.07017177 -0.6163326 -0.5350527 0.5778 -0.02269047 -0.3944733 0.9186273 0.592343 -0.5210425 0.614528 0.6152281 -0.7877678 -0.03027397 -0.02773016 0.8152337 0.578468 -0.02708137 0.8131138 0.5814745 -0.663874 0.6953808 0.2751671 -0.6629808 0.6972533 0.27257 -0.8436244 0.4851378 -0.2300855 -0.843257 0.485604 -0.2304487 -0.6273099 0.282036 -0.725905 -7.88408e-4 0.9233927 -0.3838561 0.02704387 0.1684432 -0.9853404 0.6272569 0.7141017 0.3108177 0.6272079 0.7142168 0.3106521 1.77362e-4 0.9239895 -0.382418 1.89461e-4 0.9240018 -0.3823881 8.33189e-4 0.9242875 -0.3816962 0.6617296 0.3038007 -0.6854335 0.6620984 0.302504 -0.6856508 0.7457368 0.2550092 0.6155055 -0.03241479 0.3825572 0.923363 -0.03295093 0.3823039 0.9234489 -0.7875482 0.2357239 0.5693874 -0.7877247 0.2355303 0.5692235 -0.9994858 -0.01226013 -0.02963 0.7456505 0.2548884 0.6156601 -0.03206849 0.3823248 0.9234714 -0.03206855 0.3823248 0.9234715 -0.7877989 0.2356075 0.5690889 -0.7874242 0.2361277 0.5693918 -0.9994652 -0.01252621 -0.03020524 -0.008609473 0.9929286 -0.1184015 -0.2390859 0.9383279 -0.2497573 -0.241664 0.9380113 -0.2484619 -0.232524 0.8332465 -0.5016301 -0.2316587 0.833784 -0.5011372 0.008877038 0.7847305 -0.6197737 -0.008469402 0.9932006 -0.1161078 0.2318198 0.9440201 -0.2347031 0.2318857 0.9440177 -0.2346479 0.2415496 0.8394466 -0.4868093 0.2409051 0.8397323 -0.4866361 0.00892651 0.7852305 -0.6191393 0.7877246 -0.2355303 -0.5692236 0.7877247 -0.2355303 -0.5692235 0.9994457 0.01272886 0.03076237 0.9994452 0.01274067 0.03077507 0.7454445 0.2549698 0.6158757 0.7874244 -0.2357907 -0.5695312 0.7874242 -0.2357907 -0.5695313 0.9994653 0.01250845 0.03021264 0.9994653 0.01250815 0.03021264 0.7456504 0.2548884 0.6156602 0.03287351 -0.3823149 -0.9234473 0.03287351 -0.3823149 -0.9234472 -0.7460888 -0.2547007 -0.6152065 -0.9994642 -0.01252126 -0.03024417 0.03200411 -0.3821414 -0.9235496 0.03200405 -0.3821414 -0.9235496 -0.7459431 -0.2546404 -0.6154083 -0.7459432 -0.2546403 -0.6154081 2.51454e-4 0.9240403 -0.382295 2.51368e-4 0.9240403 -0.3822951 2.56591e-4 0.9239795 -0.3824422 1.10756e-4 0.924069 -0.3822258 7.54398e-5 0.9237804 -0.382923 2.69224e-4 0.923979 -0.3824433 7.84577e-5 0.9238942 -0.3826482 4.72317e-4 0.9239746 -0.3824536 1.06016e-4 0.9238117 -0.3828474 -0.03264576 0.382148 0.9235243 -0.03246945 0.3826476 0.9233236 0.8490962 0.2019728 0.488101 0.8490962 0.2019727 0.488101 0.8818612 -0.180683 -0.4355165 0.8817944 -0.1803299 -0.4357981 0.03246945 -0.3821502 -0.9235297 0.03277045 -0.3829956 -0.9231687 -0.8490963 -0.2019729 -0.4881011 -0.8490962 -0.2019729 -0.488101 -0.8818221 0.180545 0.4356528 -0.8818612 0.1802825 0.4356823 -1.36566e-4 -0.9239557 0.3824995 -2.05887e-4 -0.9239131 0.3826025 -1.93877e-4 -0.9240531 0.3822642 -1.24585e-4 -0.9240957 0.3821612 0.8437401 0.5058522 -0.1794896 0.8420621 0.5085252 -0.1798154 -3.65362e-4 0.9240429 -0.3822889 4.12354e-6 0.9242072 -0.3818916 0.02727144 0.1697123 -0.9851163 -0.6254139 0.2896942 -0.7245238 3.8256e-4 0.9240951 -0.3821628 0.02279245 -0.9268217 -0.3748093 -0.592045 -0.8032327 -0.06557536 -0.6163777 -0.5350019 0.577799 -0.0229668 -0.3915014 0.9198909 0.5954569 -0.5172926 0.6146866 0.6186872 -0.7849423 -0.03304338</float_array>
          <technique_common>
            <accessor source="#beyblade4noa-2026-09-14-16-26-46-563_001-mesh-normals-array" count="102" stride="3">
              <param name="X" type="float"/>
              <param name="Y" type="float"/>
              <param name="Z" type="float"/>
            </accessor>
          </technique_common>
        </source>
        <source id="beyblade4noa-2026-09-14-16-26-46-563_001-mesh-map-0">
          <float_array id="beyblade4noa-2026-09-14-16-26-46-563_001-mesh-map-0-array" count="624">0.5249024 0.9443359 0.7231445 0.6699219 0.5444336 0.9804688 0.6831055 0.6689453 0.5444336 0.359375 0.7231445 0.6699219 0.5249024 0.3935547 0.1875 0.359375 0.5444336 0.359375 0.2075195 0.3935547 0.008789062 0.6699219 0.1875 0.359375 0.008789062 0.6699219 0.2075195 0.9443359 0.1875 0.9804688 0.2075195 0.9443359 0.5444336 0.9804688 0.1875 0.9804688 0.8608399 0.4316406 0.8413086 0.4472656 0.8608399 0.5400391 0.8608399 0.5400391 0.8413086 0.4472656 0.8413086 0.5244141 0.8608399 0.5400391 0.8413086 0.5244141 0.8056641 0.5839844 0.8056641 0.5839844 0.8413086 0.5244141 0.7983399 0.5585938 0.8056641 0.5839844 0.7983399 0.5585938 0.7368164 0.5839844 0.7368164 0.5839844 0.7983399 0.5585938 0.7451172 0.5585938 0.7368164 0.5839844 0.7451172 0.5585938 0.7021484 0.5244141 0.7021484 0.5244141 0.7451172 0.5585938 0.7021484 0.4472656 0.7021484 0.5244141 0.7021484 0.4472656 0.6816406 0.4316406 0.8608399 0.4316406 0.8056641 0.3867188 0.8413086 0.4472656 0.8413086 0.4472656 0.8056641 0.3867188 0.7983399 0.4130859 0.8413086 0.4472656 0.7983399 0.4130859 0.8413086 0.5244141 0.8413086 0.5244141 0.7983399 0.4130859 0.7451172 0.4130859 0.8413086 0.5244141 0.7451172 0.4130859 0.7021484 0.4472656 0.7021484 0.4472656 0.7451172 0.4130859 0.7368164 0.3867188 0.7021484 0.4472656 0.7368164 0.3867188 0.6816406 0.4316406 0.2182617 0.2587891 0.3349609 0.01367187 0.3349609 0.2587891 0.3349609 0.2587891 0.3349609 0.01367187 0.4555664 0.01367187 0.3349609 0.2587891 0.4555664 0.01367187 0.4555664 0.2587891 0.4555664 0.2587891 0.4555664 0.01367187 0.5625 0.01367187 0.4555664 0.2587891 0.5625 0.01367187 0.5625 0.2587891 0.5625 0.2587891 0.5625 0.01367187 0.6708984 0.2587891 0.2182617 0.3359375 0.3349609 0.2753906 0.3349609 0.3359375 0.3349609 0.3359375 0.3349609 0.2753906 0.4555664 0.2753906 0.3349609 0.3359375 0.4555664 0.2753906 0.4555664 0.3359375 0.4555664 0.3359375 0.4555664 0.2753906 0.5625 0.2753906 0.4555664 0.3359375 0.5625 0.2753906 0.5625 0.3359375 0.5625 0.3359375 0.5625 0.2753906 0.6708984 0.3359375 0.6801758 0.8291016 0.7509766 0.6982422 0.7431641 0.6845703 0.7431641 0.6845703 0.7509766 0.6982422 0.8920899 0.6982422 0.7431641 0.6845703 0.8920899 0.6982422 0.8994141 0.6845703 0.8994141 0.6845703 0.8920899 0.6982422 0.9624024 0.8291016 0.8994141 0.6845703 0.9624024 0.8291016 0.9775391 0.8291016 0.9775391 0.8291016 0.9624024 0.8291016 0.8994141 0.9746094 0.7431641 0.6845703 0.6650391 0.8291016 0.6801758 0.8291016 0.6801758 0.8291016 0.6650391 0.8291016 0.7431641 0.9746094 0.6801758 0.8291016 0.7431641 0.9746094 0.7509766 0.9609375 0.7509766 0.9609375 0.7431641 0.9746094 0.8994141 0.9746094 0.7509766 0.9609375 0.8994141 0.9746094 0.8920899 0.9609375 0.8920899 0.9609375 0.8994141 0.9746094 0.9624024 0.8291016 0.01708984 0.2587891 0.01708984 0.01367187 0.1191406 0.2587891 0.1191406 0.2587891 0.01708984 0.01367187 0.1191406 0.01367187 0.1191406 0.2587891 0.1191406 0.01367187 0.2182617 0.2587891 0.2182617 0.2587891 0.1191406 0.01367187 0.2182617 0.01367187 0.2182617 0.2587891 0.2182617 0.01367187 0.3349609 0.01367187 0.01708984 0.3359375 0.01708984 0.2753906 0.1191406 0.3359375 0.1191406 0.3359375 0.01708984 0.2753906 0.1191406 0.2753906 0.1191406 0.3359375 0.1191406 0.2753906 0.2182617 0.3359375 0.2182617 0.3359375 0.1191406 0.2753906 0.2182617 0.2753906 0.2182617 0.3359375 0.2182617 0.2753906 0.3349609 0.2753906 0.8706055 0.2734375 0.8706055 0.3359375 0.7695313 0.2753906 0.7695313 0.2753906 0.8706055 0.3359375 0.7695313 0.3359375 0.7695313 0.2753906 0.7695313 0.3359375 0.6708984 0.2753906 0.6708984 0.2753906 0.7695313 0.3359375 0.6708984 0.3359375 0.6708984 0.2753906 0.6708984 0.3359375 0.5625 0.2753906 0.8706055 0.01464843 0.8706055 0.2587891 0.7695313 0.01367187 0.7695313 0.01367187 0.8706055 0.2587891 0.7695313 0.2587891 0.7695313 0.01367187 0.7695313 0.2587891 0.6708984 0.01367187 0.6708984 0.01367187 0.7695313 0.2587891 0.6708984 0.2587891 0.7680664 0.7304688 0.7148438 0.8291016 0.875 0.7304688 0.875 0.7304688 0.7148438 0.8291016 0.7680664 0.9287109 0.875 0.7304688 0.7680664 0.9287109 0.9282227 0.8291016 0.9282227 0.8291016 0.7680664 0.9287109 0.875 0.9287109 0.8413086 0.4472656 0.7983399 0.4130859 0.8413086 0.5244141 0.8413086 0.5244141 0.7983399 0.4130859 0.7451172 0.4130859 0.8413086 0.5244141 0.7451172 0.4130859 0.7021484 0.4472656 0.8413086 0.5244141 0.7021484 0.4472656 0.7983399 0.5585938 0.7983399 0.5585938 0.7021484 0.4472656 0.7451172 0.5585938 0.9819336 0.2197265 0.9819336 0.4140625 0.8999024 0.2197265 0.8999024 0.2197265 0.9819336 0.4140625 0.8999024 0.4140625 0.9819336 0.2197265 0.9819336 0.02441406 0.8999024 0.2197265 0.8999024 0.2197265 0.9819336 0.02441406 0.8999024 0.02441406 0.9814453 0.6455078 0.9814453 0.4150391 0.9008789 0.6455078 0.9008789 0.6455078 0.9814453 0.4150391 0.9008789 0.4150391 0.9824219 0.4160156 0.9824219 0.2197265 0.8994141 0.4160156 0.8994141 0.4160156 0.9824219 0.2197265 0.8994141 0.2197265 0.9824219 0.02441406 0.9824219 0.2197265 0.8994141 0.02441406 0.8994141 0.02441406 0.9824219 0.2197265 0.8994141 0.2197265 0.9814453 0.4150391 0.9814453 0.6455078 0.9008789 0.4150391 0.9008789 0.4150391 0.9814453 0.6455078 0.9008789 0.6455078 0.5249024 0.9443359 0.2075195 0.9443359 0.6831055 0.6689453 0.6831055 0.6689453 0.2075195 0.9443359 0.5249024 0.3935547 0.2075195 0.9443359 0.0493164 0.6689453 0.5249024 0.3935547 0.5249024 0.3935547 0.0493164 0.6689453 0.2075195 0.3935547 0.7983399 0.4130859 0.8056641 0.3867188 0.7451172 0.4130859 0.7451172 0.4130859 0.8056641 0.3867188 0.7368164 0.3867188 0.8413086 0.5244141 0.7021484 0.4472656 0.7983399 0.5585938 0.7983399 0.5585938 0.7021484 0.4472656 0.7451172 0.5585938 0.6816406 0.4316406 0.6816406 0.5400391 0.7021484 0.5244141 0.7021484 0.5244141 0.6816406 0.5400391 0.7368164 0.5839844 0.6708984 0.01464843 0.6708984 0.2597656 0.5625 0.01464843 0.7021484 0.4472656 0.7021484 0.5244141 0.7451172 0.5585938 0.5249024 0.9443359 0.6831055 0.6689453 0.7231445 0.6699219 0.6831055 0.6689453 0.5249024 0.3935547 0.5444336 0.359375 0.5249024 0.3935547 0.2075195 0.3935547 0.1875 0.359375 0.2075195 0.3935547 0.0493164 0.6689453 0.008789062 0.6699219 0.008789062 0.6699219 0.0493164 0.6689453 0.2075195 0.9443359 0.2075195 0.9443359 0.5249024 0.9443359 0.5444336 0.9804688</float_array>
          <technique_common>
            <accessor source="#beyblade4noa-2026-09-14-16-26-46-563_001-mesh-map-0-array" count="312" stride="2">
              <param name="S" type="float"/>
              <param name="T" type="float"/>
            </accessor>
          </technique_common>
        </source>
        <source id="beyblade4noa-2026-09-14-16-26-46-563_001-mesh-colors-Col" name="Col">
          <float_array id="beyblade4noa-2026-09-14-16-26-46-563_001-mesh-colors-Col-array" count="1248">1 1 1 1 1 1 1 1 1 1 1 1 1 1 1 1 1 1 1 1 1 1 1 1 1 1 1 1 1 1 1 1 1 1 1 1 1 1 1 1 1 1 1 1 1 1 1 1 1 1 1 1 1 1 1 1 1 1 1 1 1 1 1 1 1 1 1 1 1 1 1 1 1 1 1 1 1 1 1 1 1 1 1 1 1 1 1 1 1 1 1 1 1 1 1 1 1 1 1 1 1 1 1 1 1 1 1 1 1 1 1 1 1 1 1 1 1 1 1 1 1 1 1 1 1 1 1 1 1 1 1 1 1 1 1 1 1 1 1 1 1 1 1 1 1 1 1 1 1 1 1 1 1 1 1 1 1 1 1 1 1 1 1 1 1 1 1 1 1 1 1 1 1 1 1 1 1 1 1 1 1 1 1 1 1 1 1 1 1 1 1 1 1 1 1 1 1 1 1 1 1 1 1 1 1 1 1 1 1 1 1 1 1 1 1 1 1 1 1 1 1 1 1 1 1 1 1 1 1 1 1 1 1 1 1 1 1 1 1 1 1 1 1 1 1 1 1 1 1 1 1 1 1 1 1 1 1 1 1 1 1 1 1 1 1 1 1 1 1 1 1 1 1 1 1 1 1 1 1 1 1 1 1 1 1 1 1 1 1 1 1 1 1 1 1 1 1 1 1 1 1 1 1 1 1 1 1 1 1 1 1 1 1 1 1 1 1 1 1 1 1 1 1 1 1 1 1 1 1 1 1 1 1 1 1 1 1 1 1 1 1 1 1 1 1 1 1 1 1 1 1 1 1 1 1 1 1 1 1 1 1 1 1 1 1 1 1 1 1 1 1 1 1 1 1 1 1 1 1 1 1 1 1 1 1 1 1 1 1 1 1 1 1 1 1 1 1 1 1 1 1 1 1 1 1 1 1 1 1 1 1 1 1 1 1 1 1 1 1 1 1 1 1 1 1 1 1 1 1 1 1 1 1 1 1 1 1 1 1 1 1 1 1 1 1 1 1 1 1 1 1 1 1 1 1 1 1 1 1 1 1 1 1 1 1 1 1 1 1 1 1 1 1 1 1 1 1 1 1 1 1 1 1 1 1 1 1 1 1 1 1 1 1 1 1 1 1 1 1 1 1 1 1 1 1 1 1 1 1 1 1 1 1 1 1 1 1 1 1 1 1 1 1 1 1 1 1 1 1 1 1 1 1 1 1 1 1 1 1 1 1 1 1 1 1 1 1 1 1 1 1 1 1 1 1 1 1 1 1 1 1 1 1 1 1 1 1 1 1 1 1 1 1 1 1 1 1 1 1 1 1 1 1 1 1 1 1 1 1 1 1 1 1 1 1 1 1 1 1 1 1 1 1 1 1 1 1 1 1 1 1 1 1 1 1 1 1 1 1 1 1 1 1 1 1 1 1 1 1 1 1 1 1 1 1 1 1 1 1 1 1 1 1 1 1 1 1 1 1 1 1 1 1 1 1 1 1 1 1 1 1 1 1 1 1 1 1 1 1 1 1 1 1 1 1 1 1 1 1 1 1 1 1 1 1 1 1 1 1 1 1 1 1 1 1 1 1 1 1 1 1 1 1 1 1 1 1 1 1 1 1 1 1 1 1 1 1 1 1 1 1 1 1 1 1 1 1 1 1 1 1 1 1 1 1 1 1 1 1 1 1 1 1 1 1 1 1 1 1 1 1 1 1 1 1 1 1 1 1 1 1 1 1 1 1 1 1 1 1 1 1 1 1 1 1 1 1 1 1 1 1 1 1 1 1 1 1 1 1 1 1 1 1 1 1 1 1 1 1 1 1 1 1 1 1 1 1 1 1 1 1 1 1 1 1 1 1 1 1 1 1 1 1 1 1 1 1 1 1 1 1 1 1 1 1 1 1 1 1 1 1 1 1 1 1 1 1 1 1 1 1 1 1 1 1 1 1 1 1 1 1 1 1 1 1 1 1 1 1 1 1 1 1 1 1 1 1 1 1 1 1 1 1 1 1 1 1 1 1 1 1 1 1 1 1 1 1 1 1 1 1 1 1 1 1 1 1 1 1 1 1 1 1 1 1 1 1 1 1 1 1 1 1 1 1 1 1 1 1 1 1 1 1 1 1 1 1 1 1 1 1 1 1 1 1 1 1 1 1 1 1 1 1 1 1 1 1 1 1 1 1 1 1 1 1 1 1 1 1 1 1 1 1 1 1 1 1 1 1 1 1 1 1 1 1 1 1 1 1 1 1 1 1 1 1 1 1 1 1 1 1 1 1 1 1 1 1 1 1 1 1 1 1 1 1 1 1 1 1 1 1 1 1 1 1 1 1 1 1 1 1 1 1 1 1 1 1 1 1 1 1 1 1 1 1 1 1 1 1 1 1 1 1 1 1 1 1 1 1 1 1 1 1 1 1 1 1 1 1 1 1 1 1 1 1 1 1 1 1 1 1 1 1 1 1 1 1 1 1 1 1 1 1 1 1 1 1 1 1 1 1 1 1 1 1 1 1 1 1 1 1 1 1 1 1 1 1 1 1 1 1 1 1 1 1 1 1 1 1 1 1 1 1 1 1 1 1 1 1 1 1 1 1 1 1 1 1 1 1 1 1 1 1 1 1 1 1 1 1 1 1 1 1 1 1 1 1 1 1 1 1 1 1 1 1 1 1 1 1 1 1 1 1 1 1 1 1 1 1 1 1 1 1 1 1 1 1 1 1 1 1 1 1 1 1 1 1 1 1 1 1 1 1 1 1 1 1 1 1 1 1 1 1 1 1 1 1 1 1 1 1 1 1 1 1 1 1 1 1 1 1 1 1 1 1 1 1 1</float_array>
          <technique_common>
            <accessor source="#beyblade4noa-2026-09-14-16-26-46-563_001-mesh-colors-Col-array" count="312" stride="4">
              <param name="R" type="float"/>
              <param name="G" type="float"/>
              <param name="B" type="float"/>
              <param name="A" type="float"/>
            </accessor>
          </technique_common>
        </source>
        <vertices id="beyblade4noa-2026-09-14-16-26-46-563_001-mesh-vertices">
          <input semantic="POSITION" source="#beyblade4noa-2026-09-14-16-26-46-563_001-mesh-positions"/>
        </vertices>
        <triangles material="NDS_Material_001-material" count="104">
          <input semantic="VERTEX" source="#beyblade4noa-2026-09-14-16-26-46-563_001-mesh-vertices" offset="0"/>
          <input semantic="NORMAL" source="#beyblade4noa-2026-09-14-16-26-46-563_001-mesh-normals" offset="1"/>
          <input semantic="TEXCOORD" source="#beyblade4noa-2026-09-14-16-26-46-563_001-mesh-map-0" offset="2" set="0"/>
          <input semantic="COLOR" source="#beyblade4noa-2026-09-14-16-26-46-563_001-mesh-colors-Col" offset="3" set="0"/>
          <p>1 0 0 0 3 0 1 1 0 0 2 2 5 1 3 3 7 1 4 4 4 1 5 5 9 2 6 6 11 2 7 7 8 2 8 8 13 3 9 9 15 3 10 10 12 3 11 11 16 4 12 12 18 4 13 13 19 4 14 14 21 5 15 15 23 5 16 16 20 5 17 17 24 6 18 18 25 6 19 19 26 6 20 20 27 7 21 21 28 7 22 22 29 7 23 23 30 8 24 24 31 8 25 25 32 8 26 26 33 9 27 27 34 9 28 28 35 9 29 29 36 10 30 30 37 10 31 31 38 10 32 32 39 11 33 33 40 11 34 34 41 11 35 35 42 12 36 36 43 12 37 37 44 12 38 38 45 13 39 39 46 13 40 40 47 13 41 41 48 14 42 42 49 14 43 43 50 14 44 44 51 15 45 45 52 15 46 46 53 15 47 47 54 16 48 48 55 16 49 49 56 16 50 50 57 17 51 51 58 17 52 52 59 17 53 53 60 18 54 54 61 18 55 55 62 18 56 56 63 19 57 57 64 19 58 58 65 19 59 59 66 20 60 60 67 20 61 61 68 20 62 62 69 21 63 63 70 21 64 64 71 21 65 65 72 22 66 66 73 22 67 67 74 22 68 68 75 23 69 69 76 23 70 70 77 23 71 71 78 24 72 72 79 24 73 73 80 24 74 74 81 25 75 75 82 25 76 76 83 25 77 77 84 26 78 78 85 26 79 79 86 26 80 80 87 27 81 81 88 27 82 82 89 27 83 83 90 28 84 84 91 28 85 85 92 28 86 86 93 29 87 87 94 29 88 88 95 29 89 89 96 30 90 90 97 30 91 91 98 30 92 92 99 31 93 93 100 31 94 94 101 31 95 95 102 32 96 96 103 32 97 97 104 32 98 98 105 33 99 99 106 33 100 100 107 33 101 101 108 34 102 102 109 34 103 103 110 34 104 104 111 35 105 105 112 35 106 106 113 35 107 107 114 36 108 108 115 36 109 109 116 36 110 110 117 37 111 111 118 37 112 112 119 37 113 113 120 38 114 114 121 38 115 115 122 38 116 116 123 39 117 117 124 39 118 118 125 39 119 119 126 40 120 120 127 40 121 121 128 40 122 122 129 41 123 123 130 41 124 124 131 41 125 125 132 42 126 126 133 42 127 127 134 42 128 128 135 43 129 129 136 43 130 130 137 43 131 131 138 44 132 132 139 44 133 133 140 44 134 134 141 45 135 135 142 45 136 136 143 45 137 137 144 46 138 138 145 46 139 139 146 46 140 140 147 47 141 141 148 47 142 142 149 47 143 143 150 48 144 144 151 48 145 145 152 48 146 146 153 49 147 147 154 49 148 148 155 49 149 149 156 50 150 150 157 50 151 151 158 50 152 152 159 51 153 153 160 51 154 154 161 51 155 155 162 52 156 156 163 52 157 157 164 52 158 158 165 53 159 159 166 53 160 160 167 53 161 161 168 54 162 162 169 54 163 163 170 54 164 164 171 55 165 165 172 55 166 166 173 55 167 167 174 56 168 168 175 56 169 169 176 56 170 170 177 57 171 171 178 57 172 172 179 57 173 173 180 58 174 174 181 58 175 175 182 58 176 176 183 58 177 177 184 58 178 178 185 58 179 179 186 59 180 180 187 59 181 181 188 59 182 182 189 60 183 183 190 60 184 184 191 60 185 185 192 61 186 186 193 61 187 187 194 61 188 188 195 62 189 189 196 62 190 190 197 62 191 191 198 63 192 192 199 63 193 193 200 63 194 194 201 64 195 195 202 64 196 196 203 64 197 197 204 65 198 198 205 65 199 199 206 65 200 200 207 66 201 201 208 66 202 202 209 66 203 203 210 67 204 204 211 67 205 205 212 67 206 206 213 68 207 207 214 68 208 208 215 68 209 209 216 69 210 210 217 69 211 211 218 69 212 212 219 70 213 213 220 70 214 214 221 70 215 215 222 71 216 216 223 71 217 217 224 71 218 218 225 72 219 219 226 72 220 220 227 72 221 221 228 73 222 222 229 73 223 223 230 73 224 224 231 74 225 225 232 74 226 226 233 74 227 227 234 75 228 228 235 75 229 229 236 75 230 230 237 76 231 231 238 76 232 232 239 76 233 233 240 77 234 234 241 77 235 235 242 77 236 236 243 78 237 237 244 78 238 238 245 78 239 239 246 79 240 240 247 79 241 241 248 79 242 242 249 80 243 243 250 80 244 244 251 80 245 245 252 81 246 246 253 81 247 247 254 81 248 248 255 82 249 249 256 82 250 250 257 82 251 251 258 83 252 252 259 83 253 253 260 83 254 254 261 84 255 255 262 84 256 256 263 84 257 257 264 85 258 258 265 85 259 259 266 85 260 260 267 86 261 261 268 86 262 262 269 86 263 263 270 87 264 264 271 87 265 265 272 87 266 266 273 88 267 267 274 88 268 268 275 88 269 269 276 89 270 270 277 89 271 271 278 89 272 272 279 90 273 273 280 90 274 274 281 90 275 275 282 91 276 276 283 91 277 277 284 91 278 278 285 92 279 279 286 92 280 280 287 92 281 281 288 93 282 282 289 93 283 283 290 93 284 284 291 94 285 285 292 94 286 286 293 94 287 287 294 27 288 288 295 27 289 289 296 27 290 290 297 95 291 291 298 95 292 292 299 95 293 293 1 96 294 294 2 96 295 295 3 96 296 296 5 97 297 297 6 97 298 298 7 97 299 299 9 98 300 300 10 98 301 301 11 98 302 302 13 99 303 303 14 99 304 304 15 99 305 305 16 100 306 306 17 100 307 307 18 100 308 308 21 101 309 309 22 101 310 310 23 101 311 311</p>
        </triangles>
      </mesh>
    </geometry>
  </library_geometries>
  <library_visual_scenes>
    <visual_scene id="Scene" name="Scene">
      <node id="beyblade4noa-2026-09-14-16-26-46-563_001" name="beyblade4noa-2026-09-14-16-26-46-563.001" type="NODE">
        <matrix sid="transform">-0.4721105 -0.3314709 -0.8168468 4.52245e-5 -6.24808e-4 0.9267397 -0.3757036 6.76564e-5 0.8815391 -0.1768633 -0.4377307 1.08983e-5 0 0 0 1</matrix>
        <instance_geometry url="#beyblade4noa-2026-09-14-16-26-46-563_001-mesh" name="beyblade4noa-2026-09-14-16-26-46-563.001">
          <bind_material>
            <technique_common>
              <instance_material symbol="NDS_Material-material" target="#NDS_Material-material">
                <bind_vertex_input semantic="UVMap" input_semantic="TEXCOORD" input_set="0"/>
              </instance_material>
              <instance_material symbol="NDS_Material_001-material" target="#NDS_Material_001-material">
                <bind_vertex_input semantic="UVMap" input_semantic="TEXCOORD" input_set="0"/>
              </instance_material>
              <instance_material symbol="NDS_Material_002-material" target="#NDS_Material_002-material">
                <bind_vertex_input semantic="UVMap" input_semantic="TEXCOORD" input_set="0"/>
              </instance_material>
              <instance_material symbol="NDS_Material_003-material" target="#NDS_Material_003-material">
                <bind_vertex_input semantic="UVMap" input_semantic="TEXCOORD" input_set="0"/>
              </instance_material>
              <instance_material symbol="NDS_Material_004-material" target="#NDS_Material_004-material">
                <bind_vertex_input semantic="UVMap" input_semantic="TEXCOORD" input_set="0"/>
              </instance_material>
              <instance_material symbol="NDS_Material_005-material" target="#NDS_Material_005-material">
                <bind_vertex_input semantic="UVMap" input_semantic="TEXCOORD" input_set="0"/>
              </instance_material>
            </technique_common>
          </bind_material>
        </instance_geometry>
      </node>
    </visual_scene>
  </library_visual_scenes>
  <scene>
    <instance_visual_scene url="#Scene"/>
  </scene>
</COLLADA>