# Created by MKDS Course Modifier
mtllib 320.mtl
g polygon0
usemtl TR1
v -1.623291 0.3554688 -0.003173828
v -1.71875 0.1901855 -0.003173828
v -1.592285 0.3554688 0.3129883
v -1.685791 0.1901855 0.3317871
v -1.5 0.3554688 0.6171875
v -1.588135 0.1901855 0.6538086
v -1.350098 0.3554688 0.8977051
v -1.429443 0.1901855 0.9506836
v -1.148438 0.3554688 1.143311
v -1.21582 0.1901855 1.210938
v -0.9025879 0.3554688 1.345215
v -0.9558105 0.1901855 1.424561
v -0.6223145 0.3554688 1.494873
v -0.6586914 0.1901855 1.583252
v -0.3181152 0.3554688 1.587158
v -0.3366699 0.1901855 1.680908
v -0.001708984 0.3554688 1.618408
v -0.001708984 0.1901855 1.713867
v 0.3146973 0.3554688 1.587158
v 0.333252 0.1901855 1.680908
v 0.6188965 0.3554688 1.494873
v 0.6555176 0.251709 1.583252
v 0.8991699 0.3554688 1.345215
v 0.9523926 0.1901855 1.424561
v 1.14502 0.3554688 1.143311
v 1.212402 0.1901855 1.210938
v 1.34668 0.3554688 0.8977051
v 1.426025 0.1901855 0.9506836
v 1.496582 0.3554688 0.6171875
v 1.584717 0.1901855 0.6538086
v 1.588623 0.3554688 0.3129883
v 1.682373 0.1901855 0.3317871
v 1.619873 0.3554688 -0.003173828
v 1.715332 0.1901855 -0.003173828
vn -0.8613281 0.5097656 0
vn -1 0 0
vn -0.84375 0.5097656 0.1679688
vn -0.9804688 0 0.1953125
vn -0.7949219 0.5097656 0.3300781
vn -0.9238281 0 0.3828125
vn -0.7148438 0.5097656 0.4785156
vn -0.8320313 0 0.5546875
vn -0.609375 0.5097656 0.609375
vn -0.7070313 0 0.7070313
vn -0.4785156 0.5097656 0.7148438
vn -0.5546875 0 0.8320313
vn -0.3300781 0.5097656 0.7949219
vn -0.3828125 0 0.9238281
vn -0.1679688 0.5097656 0.84375
vn -0.1953125 0 0.9804688
vn 0 0.5097656 0.8613281
vn 0 0 0.9980469
vn 0.1679688 0.5097656 0.84375
vn 0.1953125 0 0.9804688
vn 0.3300781 0.5097656 0.7949219
vn 0.3828125 0 0.9238281
vn 0.4785156 0.5097656 0.7148438
vn 0.5546875 0 0.8320313
vn 0.609375 0.5097656 0.609375
vn 0.7070313 0 0.7070313
vn 0.7148438 0.5097656 0.4785156
vn 0.8320313 0 0.5546875
vn 0.7949219 0.5097656 0.3300781
vn 0.9238281 0 0.3828125
vn 0.84375 0.5097656 0.1679688
vn 0.9804688 0 0.1953125
vn 0.8613281 0.5097656 0
vn 0.9980469 0 0
vt 0.5224609 -0.0078125
vt 0.5087891 -0.05957031
vt 0.5712891 -0.0078125
vt 0.5610352 -0.05957031
vt 0.6274414 -0.0078125
vt 0.6201172 -0.05957031
vt 0.6884766 -0.0078125
vt 0.6845703 -0.05957031
vt 0.7514648 -0.0078125
vt 0.7514648 -0.05957031
vt 0.8149414 -0.0078125
vt 0.8183594 -0.05957031
vt 0.8754883 -0.0078125
vt 0.8828125 -0.05957031
vt 0.9316406 -0.0078125
vt 0.9423828 -0.05957031
vt 0.980957 -0.0078125
vt 0.9941406 -0.05957031
vt 0.9316406 -0.0078125
vt 0.9423828 -0.05957031
vt 0.8754883 -0.0078125
vt 0.8828125 -0.05957031
vt 0.8149414 -0.0078125
vt 0.8183594 -0.05957031
vt 0.7514648 -0.0078125
vt 0.7514648 -0.05957031
vt 0.6884766 -0.0078125
vt 0.6845703 -0.05957031
vt 0.6274414 -0.0078125
vt 0.6201172 -0.05957031
vt 0.5712891 -0.0078125
vt 0.5610352 -0.05957031
vt 0.5224609 -0.0078125
vt 0.5087891 -0.05957031
f 1/1/1 2/2/2 3/3/3
f 2/2/2 4/4/4 3/3/3
f 3/3/3 4/4/4 5/5/5
f 4/4/4 6/6/6 5/5/5
f 5/5/5 6/6/6 7/7/7
f 6/6/6 8/8/8 7/7/7
f 7/7/7 8/8/8 9/9/9
f 8/8/8 10/10/10 9/9/9
f 9/9/9 10/10/10 11/11/11
f 10/10/10 12/12/12 11/11/11
f 11/11/11 12/12/12 13/13/13
f 12/12/12 14/14/14 13/13/13
f 13/13/13 14/14/14 15/15/15
f 14/14/14 16/16/16 15/15/15
f 15/15/15 16/16/16 17/17/17
f 16/16/16 18/18/18 17/17/17
f 17/17/17 18/18/18 19/19/19
f 18/18/18 20/20/20 19/19/19
f 19/19/19 20/20/20 21/21/21
f 20/20/20 22/22/22 21/21/21
f 21/21/21 22/22/22 23/23/23
f 22/22/22 24/24/24 23/23/23
f 23/23/23 24/24/24 25/25/25
f 24/24/24 26/26/26 25/25/25
f 25/25/25 26/26/26 27/27/27
f 26/26/26 28/28/28 27/27/27
f 27/27/27 28/28/28 29/29/29
f 28/28/28 30/30/30 29/29/29
f 29/29/29 30/30/30 31/31/31
f 30/30/30 32/32/32 31/31/31
f 31/31/31 32/32/32 33/33/33
f 32/32/32 34/34/34 33/33/33
v -1.71875 0.1901855 -0.003173828
v -1.623291 0.3554688 -0.003173828
v -1.685791 0.1901855 -0.3381348
v -1.592285 0.3554688 -0.3195801
v -1.588135 0.1901855 -0.6604004
v -1.5 0.3554688 -0.6237793
v -1.429443 0.1901855 -0.9572754
v -1.350098 0.3554688 -0.9040527
v -1.21582 0.1901855 -1.217285
v -1.148438 0.3554688 -1.149902
v -0.9558105 0.1901855 -1.430908
v -0.9025879 0.3554688 -1.351563
v -0.6586914 0.1901855 -1.5896
v -0.6223145 0.3554688 -1.501465
v -0.3366699 0.1901855 -1.687256
v -0.3181152 0.3554688 -1.59375
v -0.001708984 0.1901855 -1.720215
v -0.001708984 0.3557129 -1.624756
v 0.333252 0.1901855 -1.687256
v 0.3146973 0.3554688 -1.59375
v 0.6555176 0.1901855 -1.5896
v 0.6188965 0.3554688 -1.501465
v 0.9523926 0.1901855 -1.430908
v 0.8991699 0.3554688 -1.351563
v 1.212402 0.1901855 -1.217285
v 1.14502 0.3554688 -1.149902
v 1.426025 0.1901855 -0.9572754
v 1.34668 0.3554688 -0.9040527
v 1.584717 0.1901855 -0.6604004
v 1.496582 0.3554688 -0.6237793
v 1.682373 0.1901855 -0.3381348
v 1.588623 0.3554688 -0.3195801
v 1.715332 0.1901855 -0.003173828
v 1.619873 0.3554688 -0.003173828
vn -1 0 0
vn -0.8613281 0.5097656 0
vn -0.9804688 0 -0.1953125
vn -0.84375 0.5097656 -0.1679688
vn -0.9238281 0 -0.3828125
vn -0.7949219 0.5097656 -0.3300781
vn -0.8320313 0 -0.5546875
vn -0.7148438 0.5097656 -0.4785156
vn -0.7070313 0 -0.7070313
vn -0.609375 0.5097656 -0.609375
vn -0.5546875 0 -0.8320313
vn -0.4785156 0.5097656 -0.7148438
vn -0.3828125 0 -0.9238281
vn -0.3300781 0.5097656 -0.7949219
vn -0.1953125 0 -0.9804688
vn -0.1679688 0.5097656 -0.84375
vn 0 0 -1
vn 0 0.5097656 -0.8613281
vn 0.1953125 0 -0.9804688
vn 0.1679688 0.5097656 -0.84375
vn 0.3828125 0 -0.9238281
vn 0.3300781 0.5097656 -0.7949219
vn 0.5546875 0 -0.8320313
vn 0.4785156 0.5097656 -0.7148438
vn 0.7070313 0 -0.7070313
vn 0.609375 0.5097656 -0.609375
vn 0.8320313 0 -0.5546875
vn 0.7148438 0.5097656 -0.4785156
vn 0.9238281 0 -0.3828125
vn 0.7949219 0.5097656 -0.3300781
vn 0.9804688 0 -0.1953125
vn 0.84375 0.5097656 -0.1679688
vn 0.9980469 0 0
vn 0.8613281 0.5097656 0
vt 0.5097656 -0.05957031
vt 0.5234375 -0.0078125
vt 0.5615234 -0.05957031
vt 0.5722656 -0.0078125
vt 0.6210938 -0.05957031
vt 0.628418 -0.0078125
vt 0.6855469 -0.05957031
vt 0.6889648 -0.0078125
vt 0.7524414 -0.05957031
vt 0.7524414 -0.0078125
vt 0.8193359 -0.05957031
vt 0.815918 -0.0078125
vt 0.8837891 -0.05957031
vt 0.8764648 -0.0078125
vt 0.9428711 -0.05957031
vt 0.9326172 -0.0078125
vt 0.9951172 -0.05957031
vt 0.9819336 -0.0078125
vt 0.9428711 -0.05957031
vt 0.9326172 -0.0078125
vt 0.8837891 -0.05957031
vt 0.8764648 -0.0078125
vt 0.8193359 -0.05957031
vt 0.815918 -0.0078125
vt 0.7524414 -0.05957031
vt 0.7524414 -0.0078125
vt 0.6855469 -0.05957031
vt 0.6889648 -0.0078125
vt 0.6210938 -0.05957031
vt 0.628418 -0.0078125
vt 0.5615234 -0.05957031
vt 0.5722656 -0.0078125
vt 0.5097656 -0.05957031
vt 0.5234375 -0.0078125
f 35/35/35 36/36/36 37/37/37
f 36/36/36 38/38/38 37/37/37
f 37/37/37 38/38/38 39/39/39
f 38/38/38 40/40/40 39/39/39
f 39/39/39 40/40/40 41/41/41
f 40/40/40 42/42/42 41/41/41
f 41/41/41 42/42/42 43/43/43
f 42/42/42 44/44/44 43/43/43
f 43/43/43 44/44/44 45/45/45
f 44/44/44 46/46/46 45/45/45
f 45/45/45 46/46/46 47/47/47
f 46/46/46 48/48/48 47/47/47
f 47/47/47 48/48/48 49/49/49
f 48/48/48 50/50/50 49/49/49
f 49/49/49 50/50/50 51/51/51
f 50/50/50 52/52/52 51/51/51
f 51/51/51 52/52/52 53/53/53
f 52/52/52 54/54/54 53/53/53
f 53/53/53 54/54/54 55/55/55
f 54/54/54 56/56/56 55/55/55
f 55/55/55 56/56/56 57/57/57
f 56/56/56 58/58/58 57/57/57
f 57/57/57 58/58/58 59/59/59
f 58/58/58 60/60/60 59/59/59
f 59/59/59 60/60/60 61/61/61
f 60/60/60 62/62/62 61/61/61
f 61/61/61 62/62/62 63/63/63
f 62/62/62 64/64/64 63/63/63
f 63/63/63 64/64/64 65/65/65
f 64/64/64 66/66/66 65/65/65
f 65/65/65 66/66/66 67/67/67
f 66/66/66 68/68/68 67/67/67
v 1.619873 0.02490234 -0.003173828
v 1.715332 0.1901855 -0.003173828
v 1.588623 0.02490234 0.3129883
v 1.682373 0.1901855 0.3317871
v 1.496582 0.02490234 0.6171875
v 1.584717 0.1901855 0.6538086
v 1.34668 0.02490234 0.8977051
v 1.426025 0.1901855 0.9506836
v 1.14502 0.02490234 1.143311
v 1.212402 0.1901855 1.210938
v 0.8991699 0.02490234 1.345215
v 0.9523926 0.1901855 1.424561
v 0.6188965 0.02490234 1.494873
v 0.6555176 0.251709 1.583252
v 0.3146973 0.02490234 1.587158
v 0.333252 0.1901855 1.680908
v -0.001708984 0.02490234 1.618408
v -0.001708984 0.1901855 1.713867
v -0.3181152 0.02490234 1.587158
v -0.3366699 0.1901855 1.680908
v -0.6223145 0.02490234 1.494873
v -0.6586914 0.1901855 1.583252
v -0.9025879 0.02490234 1.345215
v -0.9558105 0.1901855 1.424561
v -1.148438 0.02490234 1.143311
v -1.21582 0.1901855 1.210938
v -1.350098 0.02490234 0.8977051
v -1.429443 0.1901855 0.9506836
v -1.5 0.02490234 0.6171875
v -1.588135 0.1901855 0.6538086
v -1.592285 0.02490234 0.3129883
v -1.685791 0.1901855 0.3317871
v -1.623291 0.02490234 -0.003173828
v -1.71875 0.1901855 -0.003173828
vn 0.8613281 -0.5097656 0
vn 0.9980469 0 0
vn 0.84375 -0.5097656 0.1679688
vn 0.9804688 0 0.1953125
vn 0.7949219 -0.5097656 0.3300781
vn 0.9238281 0 0.3828125
vn 0.7148438 -0.5097656 0.4785156
vn 0.8320313 0 0.5546875
vn 0.609375 -0.5097656 0.609375
vn 0.7070313 0 0.7070313
vn 0.4785156 -0.5097656 0.7148438
vn 0.5546875 0 0.8320313
vn 0.3300781 -0.5097656 0.7949219
vn 0.3828125 0 0.9238281
vn 0.1679688 -0.5097656 0.84375
vn 0.1953125 0 0.9804688
vn 0 -0.5097656 0.8613281
vn 0 0 0.9980469
vn -0.1679688 -0.5097656 0.84375
vn -0.1953125 0 0.9804688
vn -0.3300781 -0.5097656 0.7949219
vn -0.3828125 0 0.9238281
vn -0.4785156 -0.5097656 0.7148438
vn -0.5546875 0 0.8320313
vn -0.609375 -0.5097656 0.609375
vn -0.7070313 0 0.7070313
vn -0.7148438 -0.5097656 0.4785156
vn -0.8320313 0 0.5546875
vn -0.7949219 -0.5097656 0.3300781
vn -0.9238281 0 0.3828125
vn -0.84375 -0.5097656 0.1679688
vn -0.9804688 0 0.1953125
vn -0.8613281 -0.5097656 0
vn -1 0 0
vt 0.5224609 -0.1103516
vt 0.5087891 -0.05957031
vt 0.5712891 -0.1103516
vt 0.5610352 -0.05957031
vt 0.6274414 -0.1103516
vt 0.6201172 -0.05957031
vt 0.6884766 -0.1103516
vt 0.6845703 -0.05957031
vt 0.7514648 -0.1103516
vt 0.7514648 -0.05957031
vt 0.8149414 -0.1103516
vt 0.8183594 -0.05957031
vt 0.8754883 -0.1103516
vt 0.8828125 -0.05957031
vt 0.9316406 -0.1103516
vt 0.9423828 -0.05957031
vt 0.980957 -0.1103516
vt 0.9941406 -0.05957031
vt 0.9316406 -0.1103516
vt 0.9423828 -0.05957031
vt 0.8754883 -0.1103516
vt 0.8828125 -0.05957031
vt 0.8149414 -0.1103516
vt 0.8183594 -0.05957031
vt 0.7514648 -0.1103516
vt 0.7514648 -0.05957031
vt 0.6884766 -0.1103516
vt 0.6845703 -0.05957031
vt 0.6274414 -0.1103516
vt 0.6201172 -0.05957031
vt 0.5712891 -0.1103516
vt 0.5610352 -0.05957031
vt 0.5224609 -0.1103516
vt 0.5087891 -0.05957031
f 69/69/69 70/70/70 71/71/71
f 70/70/70 72/72/72 71/71/71
f 71/71/71 72/72/72 73/73/73
f 72/72/72 74/74/74 73/73/73
f 73/73/73 74/74/74 75/75/75
f 74/74/74 76/76/76 75/75/75
f 75/75/75 76/76/76 77/77/77
f 76/76/76 78/78/78 77/77/77
f 77/77/77 78/78/78 79/79/79
f 78/78/78 80/80/80 79/79/79
f 79/79/79 80/80/80 81/81/81
f 80/80/80 82/82/82 81/81/81
f 81/81/81 82/82/82 83/83/83
f 82/82/82 84/84/84 83/83/83
f 83/83/83 84/84/84 85/85/85
f 84/84/84 86/86/86 85/85/85
f 85/85/85 86/86/86 87/87/87
f 86/86/86 88/88/88 87/87/87
f 87/87/87 88/88/88 89/89/89
f 88/88/88 90/90/90 89/89/89
f 89/89/89 90/90/90 91/91/91
f 90/90/90 92/92/92 91/91/91
f 91/91/91 92/92/92 93/93/93
f 92/92/92 94/94/94 93/93/93
f 93/93/93 94/94/94 95/95/95
f 94/94/94 96/96/96 95/95/95
f 95/95/95 96/96/96 97/97/97
f 96/96/96 98/98/98 97/97/97
f 97/97/97 98/98/98 99/99/99
f 98/98/98 100/100/100 99/99/99
f 99/99/99 100/100/100 101/101/101
f 100/100/100 102/102/102 101/101/101
v -0.001708984 0.02490234 -1.624756
v -0.001708984 0.1901855 -1.720215
v 0.3146973 0.02490234 -1.59375
v 0.333252 0.1901855 -1.687256
v 0.6188965 0.02490234 -1.501465
v 0.6555176 0.1901855 -1.5896
v 0.8991699 -0.02270508 -1.351563
v 0.9523926 0.1901855 -1.430908
v 1.14502 0.02490234 -1.149902
v 1.212402 0.1901855 -1.217285
v 1.34668 0.02490234 -0.9040527
v 1.426025 0.1901855 -0.9572754
v 1.496582 0.02490234 -0.6237793
v 1.584717 0.1901855 -0.6604004
v 1.588623 0.02490234 -0.3195801
v 1.682373 0.1901855 -0.3381348
v 1.619873 0.02490234 -0.003173828
v 1.715332 0.1901855 -0.003173828
vn 0 -0.5097656 -0.8613281
vn 0 0 -1
vn 0.1679688 -0.5097656 -0.84375
vn 0.1953125 0 -0.9804688
vn 0.3300781 -0.5097656 -0.7949219
vn 0.3828125 0 -0.9238281
vn 0.4785156 -0.5097656 -0.7148438
vn 0.5546875 0 -0.8320313
vn 0.609375 -0.5097656 -0.609375
vn 0.7070313 0 -0.7070313
vn 0.7148438 -0.5097656 -0.4785156
vn 0.8320313 0 -0.5546875
vn 0.7949219 -0.5097656 -0.3300781
vn 0.9238281 0 -0.3828125
vn 0.84375 -0.5097656 -0.1679688
vn 0.9804688 0 -0.1953125
vn 0.8613281 -0.5097656 0
vn 0.9980469 0 0
vt 0.9819336 -0.1103516
vt 0.9951172 -0.05957031
vt 0.9326172 -0.1103516
vt 0.9428711 -0.05957031
vt 0.8764648 -0.1103516
vt 0.8837891 -0.05957031
vt 0.815918 -0.1103516
vt 0.8193359 -0.05957031
vt 0.7524414 -0.1103516
vt 0.7524414 -0.05957031
vt 0.6889648 -0.1103516
vt 0.6855469 -0.05957031
vt 0.628418 -0.1103516
vt 0.6210938 -0.05957031
vt 0.5722656 -0.1103516
vt 0.5615234 -0.05957031
vt 0.5234375 -0.1103516
vt 0.5097656 -0.05957031
f 103/103/103 104/104/104 105/105/105
f 104/104/104 106/106/106 105/105/105
f 105/105/105 106/106/106 107/107/107
f 106/106/106 108/108/108 107/107/107
f 107/107/107 108/108/108 109/109/109
f 108/108/108 110/110/110 109/109/109
f 109/109/109 110/110/110 111/111/111
f 110/110/110 112/112/112 111/111/111
f 111/111/111 112/112/112 113/113/113
f 112/112/112 114/114/114 113/113/113
f 113/113/113 114/114/114 115/115/115
f 114/114/114 116/116/116 115/115/115
f 115/115/115 116/116/116 117/117/117
f 116/116/116 118/118/118 117/117/117
f 117/117/117 118/118/118 119/119/119
f 118/118/118 120/120/120 119/119/119
v -0.3366699 0.1901855 -1.687256
v -0.3181152 0.02490234 -1.59375
v -0.6586914 0.1901855 -1.5896
v -0.6223145 0.02490234 -1.501465
v -0.9558105 0.1901855 -1.430908
v -0.9025879 0.02490234 -1.351563
v -1.21582 0.1901855 -1.217285
v -1.148438 0.02490234 -1.149902
v -1.429443 0.1901855 -0.9572754
v -1.350098 0.02490234 -0.9040527
v -1.588135 0.1901855 -0.6604004
v -1.5 0.02490234 -0.6237793
v -1.685791 0.1901855 -0.3381348
v -1.592285 0.02490234 -0.3195801
v -1.71875 0.1901855 -0.003173828
v -1.623291 0.02490234 -0.003173828
vn -0.1953125 0 -0.9804688
vn -0.1679688 -0.5097656 -0.84375
vn -0.3828125 0 -0.9238281
vn -0.3300781 -0.5097656 -0.7949219
vn -0.5546875 0 -0.8320313
vn -0.4785156 -0.5097656 -0.7148438
vn -0.7070313 0 -0.7070313
vn -0.609375 -0.5097656 -0.609375
vn -0.8320313 0 -0.5546875
vn -0.7148438 -0.5097656 -0.4785156
vn -0.9238281 0 -0.3828125
vn -0.7949219 -0.5097656 -0.3300781
vn -0.9804688 0 -0.1953125
vn -0.84375 -0.5097656 -0.1679688
vn -1 0 0
vn -0.8613281 -0.5097656 0
vt 0.9428711 -0.05957031
vt 0.9326172 -0.1103516
vt 0.8837891 -0.05957031
vt 0.8764648 -0.1103516
vt 0.8193359 -0.05957031
vt 0.815918 -0.1103516
vt 0.7524414 -0.05957031
vt 0.7524414 -0.1103516
vt 0.6855469 -0.05957031
vt 0.6889648 -0.1103516
vt 0.6210938 -0.05957031
vt 0.628418 -0.1103516
vt 0.5615234 -0.05957031
vt 0.5722656 -0.1103516
vt 0.5097656 -0.05957031
vt 0.5234375 -0.1103516
f 121/121/121 122/122/122 123/123/123
f 122/122/122 124/124/124 123/123/123
f 123/123/123 124/124/124 125/125/125
f 124/124/124 126/126/126 125/125/125
f 125/125/125 126/126/126 127/127/127
f 126/126/126 128/128/128 127/127/127
f 127/127/127 128/128/128 129/129/129
f 128/128/128 130/130/130 129/129/129
f 129/129/129 130/130/130 131/131/131
f 130/130/130 132/132/132 131/131/131
f 131/131/131 132/132/132 133/133/133
f 132/132/132 134/134/134 133/133/133
f 133/133/133 134/134/134 135/135/135
f 134/134/134 136/136/136 135/135/135
v 1.493652 -0.04418945 -1.160889
v 1.493652 0.01879883 -0.8286133
v 1.493652 -0.03173828 -0.8286133
v 1.493652 0.03076172 -0.4963379
v 1.493652 -0.01953125 0.001953125
v 1.493652 0.03076172 0.001953125
v 1.493652 0.03076172 0.5002441
vn 0.9980469 0 0
vn 0.9980469 0 0
vn 0.9980469 0 0
vn 0.9980469 0 0
vn 0.9980469 0 0
vn 0.9980469 0 0
vn 0.9980469 0 0
vt 0.03027344 -0.3984375
vt 0.05712891 -0.3984375
vt 0.05712891 -0.4912109
vt 0.08349609 -0.3984375
vt 0.1235352 -0.4912109
vt 0.1235352 -0.3984375
vt 0.08349609 -0.3984375
f 137/137/137 138/138/138 139/139/139
f 138/138/138 140/140/140 139/139/139
f 139/139/139 140/140/140 141/141/141
f 140/140/140 142/142/142 141/141/141
f 141/141/141 142/142/142 143/143/143
v 0.004394531 -0.01489258 -1.48877
v -0.05175781 -0.04931641 -1.747314
v -0.5007324 -0.01489258 -1.402344
v -0.4597168 -0.001220703 -1.695313
v -0.7148438 -0.001953125 -1.657227
v -0.5488281 -0.1269531 -1.864014
v -0.777832 -0.2321777 -1.820557
vn 0 0.9980469 0
vn 0.02734375 0.9570313 -0.2871094
vn -0.1464844 0.9882813 0.046875
vn -0.1542969 0.953125 -0.2636719
vn -0.3847656 0.8769531 -0.2890625
vn -0.2011719 0.7910156 -0.5761719
vn -0.4453125 0.7714844 -0.4570313
vt 0.2446289 -0.75
vt 0.2446289 -0.6279297
vt 0.09472656 -0.75
vt 0.1245117 -0.6279297
vt 0.06445313 -0.6279297
vt 0.1245117 -0.5058594
vt 0.06445313 -0.5058594
f 144/144/144 145/145/145 146/146/146
f 145/145/145 147/147/147 146/146/146
f 146/146/146 147/147/147 148/148/148
f 147/147/147 149/149/149 148/148/148
f 148/148/148 149/149/149 150/150/150
v 0.4968262 0.03076172 -1.493164
v 1.493652 0.03076172 -0.4963379
v 0.8291016 0.01879883 -1.493164
v 1.493652 0.01879883 -0.8286133
v 1.161377 -0.04418945 -1.493164
v 1.493652 -0.04418945 -1.160889
v 1.493652 -0.3171387 -1.493164
vn 0 0.9980469 0
vn 0 0.9980469 0
vn 0.07226563 0.9941406 -0.07226563
vn 0.07226563 0.9941406 -0.07226563
vn 0.2285156 0.9472656 -0.2285156
vn 0.2285156 0.9472656 -0.2285156
vn 0.3535156 0.8652344 -0.3535156
vt -0.9370117 -0.359375
vt -0.7553711 -0.02050781
vt -0.8764648 -0.359375
vt -0.7553711 -0.1328125
vt -0.815918 -0.359375
vt -0.7553711 -0.2460938
vt -0.7553711 -0.359375
f 151/151/151 152/152/152 153/153/153
f 152/152/152 154/154/154 153/153/153
f 153/153/153 154/154/154 155/155/155
f 154/154/154 156/156/156 155/155/155
f 155/155/155 156/156/156 157/157/157
v -0.001464844 0.03076172 -1.493164
v 0.4968262 0.03076172 -1.493164
v 0.8291016 -0.03173828 -1.493164
v 0.8291016 0.01879883 -1.493164
v 1.161377 -0.09472656 -1.493164
v 1.161377 -0.04418945 -1.493164
v 1.493652 -0.3171387 -1.493164
vn 0 0 -1
vn 0 0 -1
vn 0 0 -1
vn 0 0 -1
vn 0 0 -1
vn 0 0 -1
vn 0 0 -1
vt 0.1235352 -0.3984375
vt 0.1630859 -0.3984375
vt 0.1894531 -0.4912109
vt 0.1894531 -0.3984375
vt 0.2158203 -0.4912109
vt 0.2158203 -0.3984375
vt 0.2426758 -0.4443359
f 158/158/158 159/159/159 160/160/160
f 159/159/159 161/161/161 160/160/160
f 160/160/160 161/161/161 162/162/162
f 161/161/161 163/163/163 162/162/162
f 162/162/162 163/163/163 164/164/164
v -1.496582 -0.3171387 -1.493164
v -1.164307 -0.04418945 -1.493164
v -1.164307 -0.09472656 -1.493164
v -0.8320313 0.01733398 -1.493164
v -0.8320313 -0.01220703 -1.493164
v -0.4997559 0.03076172 -1.493164
v -0.001464844 0.03076172 -1.493164
vn 0 0 -1
vn 0 0 -1
vn 0 0 -1
vn 0 0 -1
vn 0 0 -1
vn 0 0 -1
vn 0 0 -1
vt 0.2426758 -0.4443359
vt 0.2158203 -0.3984375
vt 0.2158203 -0.4912109
vt 0.1894531 -0.3984375
vt 0.1894531 -0.4912109
vt 0.1630859 -0.3984375
vt 0.1235352 -0.3984375
f 165/165/165 166/166/166 167/167/167
f 166/166/166 168/168/168 167/167/167
f 167/167/167 168/168/168 169/169/169
f 168/168/168 170/170/170 169/169/169
f 169/169/169 170/170/170 171/171/171
v 0 -0.1037598 0
v 0.2678223 -0.1025391 1.407471
v -0.6704102 -0.1025391 1.257813
v 0.2165527 -0.1081543 1.586182
v -0.1916504 -0.1791992 1.64917
v 0.229248 -0.1660156 1.735352
v 0.0168457 -0.2041016 1.83374
vn 0 -1 0
vn -0.00390625 -0.9980469 -0.0625
vn -0.00390625 -0.9980469 -0.0625
vn 0.00390625 -0.8691406 -0.4941406
vn 0.02148438 -0.9082031 -0.4179688
vn -0.07421875 -0.671875 -0.7382813
vn -0.1035156 -0.8515625 -0.5136719
vt 0.3754883 -0.6738281
vt 0.2558594 -0.4326172
vt 0.4956055 -0.4326172
vt 0.2558594 -0.2734375
vt 0.3754883 -0.2792969
vt 0.2553711 -0.008789063
vt 0.3164063 -0.008789063
f 172/172/172 173/173/173 174/174/174
f 173/173/173 175/175/175 174/174/174
f 174/174/174 175/175/175 176/176/176
f 175/175/175 177/177/177 176/176/176
f 176/176/176 177/177/177 178/178/178
v 1.036377 -0.01489258 -0.9570313
v 1.012451 -0.09033203 -1.316895
v 0.6352539 -0.01489258 -1.218018
v 0.8105469 -0.06689453 -1.549072
v 0.597168 -0.05200195 -1.573975
v 0.6386719 -0.1015625 -1.781006
v 0.2988281 -0.078125 -1.813965
vn 0.07226563 0.9941406 -0.07226563
vn 0.1777344 0.9648438 -0.1953125
vn 0.07226563 0.9941406 -0.07226563
vn 0.2128906 0.8925781 -0.3984375
vn 0.08007813 0.9550781 -0.2832031
vn 0.046875 0.7949219 -0.6035156
vn 0.15625 0.7070313 -0.6914063
vt 0.2446289 -0.75
vt 0.2446289 -0.6279297
vt 0.1547852 -0.75
vt 0.1845703 -0.6279297
vt 0.1245117 -0.6279297
vt 0.1245117 -0.5058594
vt 0.004882813 -0.5058594
f 179/179/179 180/180/180 181/181/181
f 180/180/180 182/182/182 181/181/181
f 181/181/181 182/182/182 183/183/183
f 182/182/182 184/184/184 183/183/183
f 183/183/183 184/184/184 185/185/185
v -0.4997559 0.03076172 1.49707
v -1.496582 0.03076172 0.5002441
v -0.8320313 0.01879883 1.49707
v -1.496582 0.01879883 0.8325195
v -1.164307 -0.04418945 1.49707
v -1.496582 -0.04418945 1.164795
v -1.496582 -0.3171387 1.49707
vn 0 0.9980469 0
vn 0 0.9980469 0
vn -0.07226563 0.9941406 0.07226563
vn -0.07226563 0.9941406 0.07226563
vn -0.2285156 0.9472656 0.2285156
vn -0.2285156 0.9472656 0.2285156
vn -0.3535156 0.8652344 0.3535156
vt -0.9370117 -0.359375
vt -0.7553711 -0.02050781
vt -0.8764648 -0.359375
vt -0.7553711 -0.1328125
vt -0.815918 -0.359375
vt -0.7553711 -0.2460938
vt -0.7553711 -0.359375
f 186/186/186 187/187/187 188/188/188
f 187/187/187 189/189/189 188/188/188
f 188/188/188 189/189/189 190/190/190
f 189/189/189 191/191/191 190/190/190
f 190/190/190 191/191/191 192/192/192
v 0 -0.1037598 0
v 1.036377 -0.1025391 -0.9570313
v 1.469727 -0.1025391 -0.04760742
v 1.291504 -0.1071777 -1.05542
v 1.575928 -0.1572266 -0.6398926
v 1.445801 -0.2055664 -1.081055
v 1.746582 -0.2468262 -0.9304199
vn 0 -1 0
vn 0 -1 0
vn 0 -1 0
vn -0.3320313 -0.9238281 0.1875
vn -0.25 -0.9550781 0.1601563
vn -0.4121094 -0.8574219 0.3085938
vn -0.2734375 -0.9355469 0.2265625
vt 0.3754883 -0.6738281
vt 0.2558594 -0.4326172
vt 0.4956055 -0.4326172
vt 0.2543945 -0.2744141
vt 0.3637695 -0.3388672
vt 0.2548828 -0.008789063
vt 0.315918 -0.008789063
f 193/193/193 194/194/194 195/195/195
f 194/194/194 196/196/196 195/195/195
f 195/195/195 196/196/196 197/197/197
f 196/196/196 198/198/198 197/197/197
f 197/197/197 198/198/198 199/199/199
v 1.115967 -0.01489258 0.8937988
v 1.400879 -0.0625 0.8972168
v 1.319336 -0.01489258 0.3586426
v 1.55249 -0.04833984 0.467041
v 1.690674 -0.03027344 0.2995605
v 1.72583 -0.2150879 0.5463867
v 1.870605 -0.2736816 0.314209
vn 0 0.9980469 0
vn 0.2949219 0.9316406 0.2167969
vn 0.07226563 0.9941406 -0.07226563
vn 0.3066406 0.9511719 0.01367188
vn 0.4921875 0.8710938 -0.0078125
vn 0.5898438 0.7792969 0.2070313
vn 0.5957031 0.8027344 -0.0390625
vt 0.2446289 -0.75
vt 0.2446289 -0.6279297
vt 0.09472656 -0.75
vt 0.1245117 -0.6279297
vt 0.06445313 -0.6279297
vt 0.1245117 -0.5058594
vt 0.06445313 -0.5058594
f 200/200/200 201/201/201 202/202/202
f 201/201/201 203/203/203 202/202/202
f 202/202/202 203/203/203 204/204/204
f 203/203/203 205/205/205 204/204/204
f 204/204/204 205/205/205 206/206/206
v 0.2678223 -0.01489258 1.407471
v 0.4372559 -0.03466797 1.68457
v 0.6308594 -0.01489258 1.282471
v 0.7495117 -0.07958984 1.648926
v 0.9187012 -0.09106445 1.512695
v 0.7290039 -0.152832 1.750244
v 0.9970703 -0.2458496 1.612061
vn -0.08398438 0.9707031 0.2246094
vn -0.2734375 0.7128906 0.6464844
vn 0.07226563 0.9941406 0.07226563
vn 0.03320313 0.921875 0.3847656
vn 0.3535156 0.8652344 0.3535156
vn 0.1953125 0.84375 0.4980469
vn 0.5097656 0.7011719 0.4980469
vt 0.2446289 -0.75
vt 0.2446289 -0.6279297
vt 0.1547852 -0.75
vt 0.1845703 -0.6279297
vt 0.1245117 -0.6279297
vt 0.1845703 -0.5058594
vt 0.1245117 -0.5058594
f 207/207/207 208/208/208 209/209/209
f 208/208/208 210/210/210 209/209/209
f 209/209/209 210/210/210 211/211/211
f 210/210/210 212/212/212 211/211/211
f 211/211/211 212/212/212 213/213/213
v 0.2678223 -0.01489258 1.407471
v -0.2145996 -0.01489258 1.385498
v 0 -0.05273438 1.654053
v -0.3835449 -0.04467773 1.644287
v -0.3793945 -0.2131348 1.820557
v -0.6096191 -0.138916 1.651123
vn -0.001953125 0.9980469 0.0625
vn -0.02148438 0.9863281 0.1582031
vn -0.00390625 0.8730469 0.4882813
vn -0.05664063 0.9121094 0.4082031
vn -0.1152344 0.7695313 0.6269531
vn -0.4785156 0.5097656 0.7148438
vt 0.004882813 -0.75
vt 0.1245117 -0.75
vt 0.06445313 -0.6279297
vt 0.1845703 -0.6279297
vt 0.1845703 -0.5058594
vt 0.2446289 -0.5058594
f 214/214/214 215/215/215 216/216/216
f 215/215/215 217/217/217 216/216/216
f 216/216/216 217/217/217 218/218/218
f 217/217/217 219/219/219 218/218/218
v -1.496582 -0.3171387 -1.493164
v -1.496582 -0.09472656 -1.160889
v -1.496582 -0.04418945 -1.160889
v -1.496582 -0.03173828 -0.8286133
v -1.496582 0.01879883 -0.8286133
v -1.496582 0.03076172 -0.4963379
vn -1 0 0
vn -1 0 0
vn -1 0 0
vn -1 0 0
vn -1 0 0
vn -1 0 0
vt 0.00390625 -0.4443359
vt 0.03027344 -0.4912109
vt 0.03027344 -0.3984375
vt 0.05712891 -0.4912109
vt 0.05712891 -0.3984375
vt 0.08349609 -0.3984375
f 220/220/220 221/221/221 222/222/222
f 221/221/221 223/223/223 222/222/222
f 222/222/222 223/223/223 224/224/224
f 223/223/223 225/225/225 224/224/224
v 1.746582 -0.2468262 -0.9304199
v 1.5896 -0.05273438 -0.8532715
v 1.889404 -0.2209473 -0.4907227
v 1.725342 -0.08007813 -0.4265137
v 1.866699 -0.1992188 -0.3110352
v 1.736816 -0.0637207 -0.2004395
vn 0.4707031 0.8085938 -0.3515625
vn 0.3242188 0.8984375 -0.2988281
vn 0.4824219 0.859375 -0.1738281
vn 0.2929688 0.9433594 -0.1582031
vn 0.7167969 0.6972656 0.0078125
vn 0.06640625 0.9726563 -0.2246094
vt 0.06445313 -0.5058594
vt 0.06445313 -0.6279297
vt 0.1845703 -0.5058594
vt 0.1845703 -0.6279297
vt 0.2446289 -0.5058594
vt 0.2446289 -0.6279297
f 226/226/226 227/227/227 228/228/228
f 227/227/227 229/229/229 228/228/228
f 228/228/228 229/229/229 230/230/230
f 229/229/229 231/231/231 230/230/230
v 0 -0.1037598 0
v 0.004394531 -0.1025391 -1.48877
v 1.036377 -0.1025391 -0.9570313
v 0.2067871 -0.09790039 -1.707764
v 0.7038574 -0.1049805 -1.527344
v 0.2988281 -0.078125 -1.813965
vn 0 -1 0
vn 0 -1 0
vn 0 -1 0
vn -0.1171875 -0.9296875 0.3457031
vn -0.1171875 -0.9296875 0.3457031
vn -0.1601563 -0.703125 0.6933594
vt 0.3754883 -0.6738281
vt 0.2558594 -0.4326172
vt 0.4956055 -0.4326172
vt 0.2553711 -0.2783203
vt 0.40625 -0.2636719
vt 0.2548828 -0.008789063
f 232/232/232 233/233/233 234/234/234
f 233/233/233 235/235/235 234/234/234
f 234/234/234 235/235/235 236/236/236
f 235/235/235 237/237/237 236/236/236
v -1.869385 -0.2563477 0.3151855
v -1.739502 -0.114502 0.2045898
v -1.89209 -0.2988281 0.494873
v -1.634766 -0.2307129 0.6062012
v -1.749512 -0.3039551 0.9343262
v -1.448486 -0.2626953 1.039551
vn 0.7167969 -0.6972656 0.0078125
vn 0.1972656 -0.9609375 -0.1972656
vn 0.4726563 -0.8613281 -0.1816406
vn 0.2597656 -0.9511719 -0.1640625
vn 0.2773438 -0.9296875 -0.2402344
vn 0.4121094 -0.8496094 -0.3300781
vt 0.4941406 -0.008789063
vt 0.4960938 -0.28125
vt 0.4355469 -0.008789063
vt 0.3823242 -0.3066406
vt 0.315918 -0.008789063
vt 0.2548828 -0.008789063
f 238/238/238 239/239/239 240/240/240
f 239/239/239 241/241/241 240/240/240
f 240/240/240 241/241/241 242/242/242
f 241/241/241 243/243/243 242/242/242
v -0.1503906 -0.1496582 -1.88623
v -0.05175781 -0.1320801 -1.747314
v -0.5488281 -0.1269531 -1.864014
v -0.4990234 -0.1159668 -1.695313
v -0.777832 -0.2321777 -1.820557
v -0.9086914 -0.190918 -1.530029
vn -0.001953125 -0.7226563 0.6914063
vn -0.02734375 -0.9570313 0.2871094
vn 0.2011719 -0.7910156 0.5761719
vn 0.1542969 -0.9550781 0.2519531
vn 0.46875 -0.7910156 0.3925781
vn 0.46875 -0.7910156 0.3925781
vt 0.4956055 -0.008789063
vt 0.496582 -0.28125
vt 0.3754883 -0.008789063
vt 0.3696289 -0.3378906
vt 0.3154297 -0.008789063
vt 0.2548828 -0.008789063
f 244/244/244 245/245/245 246/246/246
f 245/245/245 247/247/247 246/246/246
f 246/246/246 247/247/247 248/248/248
f 247/247/247 249/249/249 248/248/248
v 0 -0.1037598 0
v -0.7143555 -0.1030273 -1.253662
v 0.004394531 -0.1025391 -1.48877
v -0.8469238 -0.1125488 -1.442383
v -0.4990234 -0.1159668 -1.695313
v -0.9086914 -0.190918 -1.530029
vn 0 -1 0
vn 0.01953125 -0.9941406 0.1152344
vn 0 -1 0
vn 0.28125 -0.9257813 0.2558594
vn 0.1542969 -0.9550781 0.2519531
vn 0.46875 -0.7910156 0.3925781
vt 0.3754883 -0.6738281
vt 0.2553711 -0.4326172
vt 0.4956055 -0.4326172
vt 0.2553711 -0.2734375
vt 0.3696289 -0.3378906
vt 0.2548828 -0.008789063
f 250/250/250 251/251/251 252/252/252
f 251/251/251 253/253/253 252/252/252
f 252/252/252 253/253/253 254/254/254
f 253/253/253 255/255/255 254/254/254
v -1.496582 0.03076172 0.001953125
v -1.496582 -0.01953125 0.001953125
v -1.496582 0.03076172 0.5002441
v -1.496582 -0.03173828 0.8325195
v -1.496582 0.01879883 0.8325195
v -1.496582 -0.04418945 1.164795
vn -1 0 0
vn -1 0 0
vn -1 0 0
vn -1 0 0
vn -1 0 0
vn -1 0 0
vt 0.1235352 -0.3984375
vt 0.1235352 -0.4912109
vt 0.08349609 -0.3984375
vt 0.05712891 -0.4912109
vt 0.05712891 -0.3984375
vt 0.03027344 -0.3984375
f 256/256/256 257/257/257 258/258/258
f 257/257/257 259/259/259 258/258/258
f 258/258/258 259/259/259 260/260/260
f 259/259/259 261/261/261 260/260/260
v 0 -0.1037598 0
v -1.118408 -0.1025391 0.857666
v -1.493652 -0.1025391 -0.008300781
v -1.367188 -0.2302246 0.9643555
v -1.634766 -0.2307129 0.6062012
v -1.448486 -0.2626953 1.039551
vn 0 -1 0
vn 0.05664063 -0.9960938 -0.05664063
vn 0 -1 0
vn 0.3554688 -0.9101563 -0.2167969
vn 0.2597656 -0.9511719 -0.1640625
vn 0.4121094 -0.8496094 -0.3300781
vt 0.3754883 -0.6738281
vt 0.2553711 -0.4326172
vt 0.4956055 -0.4326172
vt 0.2553711 -0.2734375
vt 0.3823242 -0.3066406
vt 0.2548828 -0.008789063
f 262/262/262 263/263/263 264/264/264
f 263/263/263 265/265/265 264/264/264
f 264/264/264 265/265/265 266/266/266
f 265/265/265 267/267/267 266/266/266
v 0 -0.1037598 0
v 1.469727 -0.1025391 -0.04760742
v 1.115967 -0.1025391 0.8937988
v 1.689453 -0.08129883 0.01831055
v 1.55249 -0.1491699 0.467041
v 1.797363 -0.171875 0.1147461
vn 0 -1 0
vn 0 -1 0
vn 0 -1 0
vn -0.4042969 -0.9082031 -0.1035156
vn -0.3261719 -0.9433594 -0.0625
vn -0.5976563 -0.8007813 -0.04492188
vt 0.3754883 -0.6738281
vt 0.2558594 -0.4326172
vt 0.4956055 -0.4326172
vt 0.2558594 -0.2734375
vt 0.3701172 -0.3271484
vt 0.2539063 -0.008789063
f 268/268/268 269/269/269 270/270/270
f 269/269/269 271/271/271 270/270/270
f 270/270/270 271/271/271 272/272/272
f 271/271/271 273/273/273 272/272/272
v 1.628906 -0.1164551 0.887207
v 1.425049 -0.09838867 0.9033203
v 1.72583 -0.2150879 0.5463867
v 1.55249 -0.1491699 0.467041
v 1.870605 -0.2736816 0.314209
v 1.797363 -0.171875 0.1147461
vn -0.703125 -0.5839844 -0.40625
vn -0.3242188 -0.9375 -0.1328125
vn -0.4863281 -0.8691406 -0.09375
vn -0.3261719 -0.9433594 -0.0625
vn -0.4277344 -0.9023438 0.06054688
vn -0.5976563 -0.8007813 -0.04492188
vt 0.4956055 -0.008789063
vt 0.4960938 -0.2783203
vt 0.3754883 -0.008789063
vt 0.3701172 -0.3271484
vt 0.3164063 -0.008789063
vt 0.2539063 -0.008789063
f 274/274/274 275/275/275 276/276/276
f 275/275/275 277/277/277 276/276/276
f 276/276/276 277/277/277 278/278/278
f 277/277/277 279/279/279 278/278/278
v -1.681396 -0.1425781 -0.8830566
v -1.56543 -0.1520996 -0.8930664
v -1.786377 -0.1567383 -0.4892578
v -1.533691 -0.0871582 -0.4628906
v -1.873535 -0.2160645 -0.3103027
v -1.821533 -0.140625 -0.1105957
vn 0.703125 -0.5839844 0.40625
vn 0.375 -0.9121094 0.1699219
vn 0.484375 -0.8710938 0.08984375
vn 0.3046875 -0.9511719 0.05273438
vn 0.4277344 -0.9023438 -0.05859375
vn 0.5898438 -0.8066406 0.05078125
vt 0.4956055 -0.008789063
vt 0.4960938 -0.2783203
vt 0.3754883 -0.008789063
vt 0.3720703 -0.3691406
vt 0.3164063 -0.008789063
vt 0.2539063 -0.008789063
f 280/280/280 281/281/281 282/282/282
f 281/281/281 283/283/283 282/282/282
f 282/282/282 283/283/283 284/284/284
f 283/283/283 285/285/285 284/284/284
v 1.036377 -0.01489258 -0.9570313
v 1.372803 -0.01489258 -0.5446777
v 1.364258 -0.06420898 -1.05542
v 1.5896 -0.05273438 -0.8532715
v 1.445801 -0.2055664 -1.081055
v 1.746582 -0.2468262 -0.9304199
vn 0.07226563 0.9941406 -0.07226563
vn 0.1425781 0.9882813 -0.05078125
vn 0.1660156 0.9472656 -0.2753906
vn 0.3242188 0.8984375 -0.2988281
vn 0.3007813 0.7324219 -0.609375
vn 0.4707031 0.8085938 -0.3515625
vt 0.004882813 -0.75
vt 0.1245117 -0.75
vt 0.004882813 -0.6279297
vt 0.06445313 -0.6279297
vt 0.004882813 -0.5058594
vt 0.06445313 -0.5058594
f 286/286/286 287/287/287 288/288/288
f 287/287/287 289/289/289 288/288/288
f 288/288/288 289/289/289 290/290/290
f 289/289/289 291/291/291 290/290/290
v -1.110107 -0.00390625 0.857666
v -1.401855 -0.01489258 0.5488281
v -1.367188 -0.09960938 0.9643555
v -1.592285 -0.06835938 0.8574219
v -1.448486 -0.2626953 1.039551
v -1.749512 -0.3039551 0.9343262
vn -0.140625 0.984375 0.1035156
vn -0.1464844 0.9882813 0.046875
vn -0.1796875 0.9375 0.3007813
vn -0.3242188 0.8984375 0.2988281
vn -0.2734375 0.7128906 0.6464844
vn -0.4707031 0.8085938 0.3515625
vt 0.004882813 -0.75
vt 0.1245117 -0.75
vt 0.004882813 -0.6279297
vt 0.06445313 -0.6279297
vt 0.004882813 -0.5058594
vt 0.06445313 -0.5058594
f 292/292/292 293/293/293 294/294/294
f 293/293/293 295/295/295 294/294/294
f 294/294/294 295/295/295 296/296/296
f 295/295/295 297/297/297 296/296/296
v 0.484375 -0.1296387 1.783447
v 0.2678223 -0.1025391 1.407471
v 0.7290039 -0.152832 1.750244
v 0.739502 -0.1081543 1.479248
v 0.9970703 -0.2458496 1.612061
v 1.227051 -0.1665039 1.393799
vn 0.4550781 -0.25 -0.8554688
vn 0.1523438 -0.84375 -0.515625
vn -0.1035156 -0.8515625 -0.5136719
vn -0.1953125 -0.9394531 -0.28125
vn -0.4960938 -0.7519531 -0.4355469
vn -0.4960938 -0.7519531 -0.4355469
vt 0.496582 -0.008789063
vt 0.496582 -0.3554688
vt 0.4370117 -0.008789063
vt 0.4052734 -0.2773438
vt 0.3754883 -0.008789063
vt 0.2558594 -0.008789063
f 298/298/298 299/299/299 300/300/300
f 299/299/299 301/301/301 300/300/300
f 300/300/300 301/301/301 302/302/302
f 301/301/301 303/303/303 302/302/302
v 1.115967 -0.01489258 0.8937988
v 0.6308594 -0.01489258 1.282471
v 1.18335 -0.06518555 1.179932
v 0.9187012 -0.09106445 1.512695
v 1.227051 -0.1665039 1.393799
v 0.9970703 -0.2458496 1.612061
vn 0.07226563 0.9941406 0.07226563
vn 0.07226563 0.9941406 0.07226563
vn 0.2949219 0.9316406 0.2167969
vn 0.3535156 0.8652344 0.3535156
vn 0.5429688 0.7304688 0.4140625
vn 0.5097656 0.7011719 0.4980469
vt 0.004882813 -0.75
vt 0.1547852 -0.75
vt 0.004882813 -0.6279297
vt 0.1245117 -0.6279297
vt 0.004882813 -0.5058594
vt 0.1245117 -0.5058594
f 304/304/304 305/305/305 306/306/306
f 305/305/305 307/307/307 306/306/306
f 306/306/306 307/307/307 308/308/308
f 307/307/307 309/309/309 308/308/308
v -1.493652 -0.01489258 -0.005615234
v -1.322266 -0.01489258 -0.3544922
v -1.697266 -0.03857422 -0.06420898
v -1.693604 -0.02709961 -0.2954102
v -1.821533 -0.140625 -0.1105957
v -1.873535 -0.2160645 -0.3103027
vn -0.07226563 0.9941406 -0.07226563
vn -0.07226563 0.9941406 0.07226563
vn -0.3632813 0.9316406 -0.0234375
vn -0.4921875 0.8710938 0.0078125
vn -0.7050781 0.6914063 0.15625
vn -0.5957031 0.8027344 0.0390625
vt 0.004882813 -0.75
vt 0.09472656 -0.75
vt 0.004882813 -0.6279297
vt 0.06445313 -0.6279297
vt 0.004882813 -0.5058594
vt 0.06445313 -0.5058594
f 310/310/310 311/311/311 312/312/312
f 311/311/311 313/313/313 312/312/312
f 312/312/312 313/313/313 314/314/314
f 313/313/313 315/315/315 314/314/314
v -1.873535 -0.2160645 -0.3103027
v -1.693604 -0.02709961 -0.2954102
v -1.786377 -0.1567383 -0.4892578
v -1.55542 -0.006103516 -0.4628906
v -1.681396 -0.1425781 -0.8830566
v -1.403809 -0.07666016 -0.8930664
vn -0.5957031 0.8027344 0.0390625
vn -0.4921875 0.8710938 0.0078125
vn -0.5898438 0.7792969 -0.2070313
vn -0.3066406 0.9511719 -0.01367188
vn -0.703125 0.5839844 -0.40625
vn -0.375 0.9003906 -0.2246094
vt 0.06445313 -0.5058594
vt 0.06445313 -0.6279297
vt 0.1245117 -0.5058594
vt 0.1245117 -0.6279297
vt 0.2446289 -0.5058594
vt 0.2446289 -0.6279297
f 316/316/316 317/317/317 318/318/318
f 317/317/317 319/319/319 318/318/318
f 318/318/318 319/319/319 320/320/320
f 319/319/319 321/321/321 320/320/320
v 0 -0.1037598 0
v 1.115967 -0.1025391 0.8937988
v 0.2678223 -0.1025391 1.407471
v 1.18335 -0.09545898 1.146973
v 0.739502 -0.1081543 1.479248
v 1.227051 -0.1665039 1.393799
vn 0 -1 0
vn 0 -1 0
vn -0.00390625 -0.9980469 -0.0625
vn -0.2636719 -0.9335938 -0.2441406
vn -0.1953125 -0.9394531 -0.28125
vn -0.4960938 -0.7519531 -0.4355469
vt 0.3754883 -0.6738281
vt 0.2553711 -0.4326172
vt 0.496582 -0.3554688
vt 0.2553711 -0.2744141
vt 0.4052734 -0.2773438
vt 0.2558594 -0.008789063
f 322/322/322 323/323/323 324/324/324
f 323/323/323 325/325/325 324/324/324
f 324/324/324 325/325/325 326/326/326
f 325/325/325 327/327/327 326/326/326
v -1.749512 -0.3039551 0.9343262
v -1.592285 -0.06835938 0.8574219
v -1.89209 -0.2988281 0.494873
v -1.728027 -0.08276367 0.4306641
v -1.869385 -0.2563477 0.3151855
v -1.739502 -0.114502 0.2045898
vn -0.4707031 0.8085938 0.3515625
vn -0.3242188 0.8984375 0.2988281
vn -0.4824219 0.859375 0.1738281
vn -0.2910156 0.9433594 0.1582031
vn -0.7167969 0.6972656 -0.0078125
vn -0.08398438 0.9707031 0.2246094
vt 0.06445313 -0.5058594
vt 0.06445313 -0.6279297
vt 0.1845703 -0.5058594
vt 0.1845703 -0.6279297
vt 0.2446289 -0.5058594
vt 0.2446289 -0.6279297
f 328/328/328 329/329/329 330/330/330
f 329/329/329 331/331/331 330/330/330
f 330/330/330 331/331/331 332/332/332
f 331/331/331 333/333/333 332/332/332
v -0.7143555 -0.004638672 -1.253662
v -0.5007324 -0.01489258 -1.402344
v -0.8410645 -0.01904297 -1.446045
v -0.7148438 -0.001953125 -1.657227
v -0.9086914 -0.190918 -1.530029
v -0.777832 -0.2321777 -1.820557
vn -0.09765625 0.9863281 -0.1386719
vn -0.1464844 0.9882813 0.046875
vn -0.2988281 0.9316406 -0.2050781
vn -0.3847656 0.8769531 -0.2890625
vn -0.5800781 0.7324219 -0.3535156
vn -0.4453125 0.7714844 -0.4570313
vt 0.004882813 -0.75
vt 0.09472656 -0.75
vt 0.004882813 -0.6279297
vt 0.06445313 -0.6279297
vt 0.004882813 -0.5058594
vt 0.06445313 -0.5058594
f 334/334/334 335/335/335 336/336/336
f 335/335/335 337/337/337 336/336/336
f 336/336/336 337/337/337 338/338/338
f 337/337/337 339/339/339 338/338/338
v 1.012695 -0.1967773 -1.43335
v 1.012451 -0.1906738 -1.316895
v 0.8520508 -0.1809082 -1.720459
v 0.7038574 -0.1049805 -1.527344
v 0.6386719 -0.1015625 -1.781006
v 0.2988281 -0.078125 -1.813965
vn -0.78125 -0.4121094 0.46875
vn -0.1972656 -0.9609375 0.1972656
vn -0.2597656 -0.8339844 0.4863281
vn -0.1171875 -0.9296875 0.3457031
vn -0.05664063 -0.8554688 0.515625
vn -0.1601563 -0.703125 0.6933594
vt 0.4951172 -0.008789063
vt 0.496582 -0.2773438
vt 0.4370117 -0.008789063
vt 0.40625 -0.2636719
vt 0.3754883 -0.008789063
vt 0.2548828 -0.008789063
f 340/340/340 341/341/341 342/342/342
f 341/341/341 343/343/343 342/342/342
f 342/342/342 343/343/343 344/344/344
f 343/343/343 345/345/345 344/344/344
v 1.493652 -0.03173828 -0.8286133
v 0.8291016 -0.03173828 -1.493164
v 1.493652 -0.09472656 -1.160889
v 1.161377 -0.09472656 -1.493164
v 1.493652 -0.3171387 -1.493164
vn -0.05664063 -0.9960938 0.05664063
vn -0.05664063 -0.9960938 0.05664063
vn -0.1972656 -0.9609375 0.1972656
vn -0.1972656 -0.9609375 0.1972656
vn -0.1972656 -0.9609375 0.1972656
vt -0.01513672 -0.2636719
vt -0.09277344 -0.3955078
vt -0.01513672 -0.3300781
vt -0.05419922 -0.3955078
vt -0.01513672 -0.3955078
f 346/346/346 347/347/347 348/348/348
f 347/347/347 349/349/349 348/348/348
f 348/348/348 349/349/349 350/350/350
v 1.866699 -0.1992188 -0.3110352
v 1.736816 -0.1416016 -0.2004395
v 1.889404 -0.2209473 -0.4907227
v 1.575928 -0.1572266 -0.6398926
v 1.746582 -0.2468262 -0.9304199
vn -0.7167969 -0.6972656 -0.0078125
vn -0.1699219 -0.9746094 0.1425781
vn -0.4433594 -0.875 0.1894531
vn -0.25 -0.9550781 0.1601563
vn -0.2734375 -0.9355469 0.2265625
vt 0.4941406 -0.008789063
vt 0.4960938 -0.28125
vt 0.4355469 -0.008789063
vt 0.3637695 -0.3388672
vt 0.315918 -0.008789063
f 351/351/351 352/352/352 353/353/353
f 352/352/352 354/354/354 353/353/353
f 353/353/353 354/354/354 355/355/355
v -1.496582 -0.3171387 -1.493164
v -1.164307 -0.09472656 -1.493164
v -1.496582 -0.09472656 -1.160889
v -0.8320313 -0.01220703 -1.493164
v -1.496582 -0.03173828 -0.8286133
vn 0.1972656 -0.9609375 0.1972656
vn 0.1972656 -0.9609375 0.1972656
vn 0.1972656 -0.9609375 0.1972656
vn 0.05664063 -0.9960938 0.05664063
vn 0.05664063 -0.9960938 0.05664063
vt -0.01513672 -0.3955078
vt -0.05419922 -0.3955078
vt -0.01513672 -0.3300781
vt -0.09277344 -0.3955078
vt -0.01513672 -0.2636719
f 356/356/356 357/357/357 358/358/358
f 357/357/357 359/359/359 358/358/358
f 358/358/358 359/359/359 360/360/360
v -0.6096191 -0.138916 1.651123
v -0.6394043 -0.08129883 1.538574
v -0.3793945 -0.2131348 1.820557
v -0.1916504 -0.1791992 1.64917
v 0.0168457 -0.2041016 1.83374
vn 0.4785156 -0.5097656 -0.7148438
vn 0.1152344 -0.9257813 -0.359375
vn 0.1132813 -0.796875 -0.59375
vn 0.02148438 -0.9082031 -0.4179688
vn -0.1035156 -0.8515625 -0.5136719
vt 0.4951172 -0.008789063
vt 0.4960938 -0.2773438
vt 0.4360352 -0.008789063
vt 0.3754883 -0.2792969
vt 0.3164063 -0.008789063
f 361/361/361 362/362/362 363/363/363
f 362/362/362 364/364/364 363/363/363
f 363/363/363 364/364/364 365/365/365
v 1.493652 -0.01953125 0.001953125
v 1.493652 0.03076172 0.5002441
v 1.493652 -0.03173828 0.8325195
v 1.493652 0.01879883 0.8325195
v 1.493652 -0.04418945 1.164795
vn 0.9980469 0 0
vn 0.9980469 0 0
vn 0.9980469 0 0
vn 0.9980469 0 0
vn 0.9980469 0 0
vt 0.1235352 -0.4912109
vt 0.08349609 -0.3984375
vt 0.05712891 -0.4912109
vt 0.05712891 -0.3984375
vt 0.03027344 -0.3984375
f 366/366/366 367/367/367 368/368/368
f 367/367/367 369/369/369 368/368/368
f 368/368/368 369/369/369 370/370/370
v -0.4997559 0.03076172 1.49707
v -0.8320313 -0.03173828 1.49707
v -0.001464844 0.03076172 1.49707
v -0.001464844 -0.01953125 1.49707
v 0.8291016 -0.03173828 1.49707
vn 0 0 0.9980469
vn 0 0 0.9980469
vn 0 0 0.9980469
vn 0 0 0.9980469
vn 0 0 0.9980469
vt 0.1630859 -0.3984375
vt 0.1894531 -0.4912109
vt 0.1235352 -0.3984375
vt 0.1235352 -0.4912109
vt 0.1894531 -0.4912109
f 371/371/371 372/372/372 373/373/373
f 372/372/372 374/374/374 373/373/373
f 373/373/373 374/374/374 375/375/375
v -1.56543 -0.1520996 -0.8930664
v -1.172852 -0.1025391 -0.7856445
v -1.533691 -0.0871582 -0.4628906
v -1.688477 -0.08520508 -0.04125977
v -1.821533 -0.140625 -0.1105957
vn 0.375 -0.9121094 0.1699219
vn 0 -1 0
vn 0.3046875 -0.9511719 0.05273438
vn 0.40625 -0.9082031 0.1074219
vn 0.5898438 -0.8066406 0.05078125
vt 0.4960938 -0.2783203
vt 0.4355469 -0.4326172
vt 0.3720703 -0.3691406
vt 0.2558594 -0.2744141
vt 0.2539063 -0.008789063
f 376/376/376 377/377/377 378/378/378
f 377/377/377 379/379/379 378/378/378
f 378/378/378 379/379/379 380/380/380
v -1.496582 -0.03173828 0.8325195
v -0.8320313 -0.03173828 1.49707
v -1.496582 -0.09472656 1.164795
v -1.164307 -0.09472656 1.49707
v -1.496582 -0.3171387 1.49707
vn 0.05664063 -0.9960938 -0.05664063
vn 0.05664063 -0.9960938 -0.05664063
vn 0.1972656 -0.9609375 -0.1972656
vn 0.1972656 -0.9609375 -0.1972656
vn 0.1972656 -0.9609375 -0.1972656
vt -0.01513672 -0.2636719
vt -0.09277344 -0.3955078
vt -0.01513672 -0.3300781
vt -0.05419922 -0.3955078
vt -0.01513672 -0.3955078
f 381/381/381 382/382/382 383/383/383
f 382/382/382 384/384/384 383/383/383
f 383/383/383 384/384/384 385/385/385
v 1.493652 -0.3171387 1.49707
v 1.161377 0.02172852 1.49707
v 1.161377 -0.02856445 1.49707
v 0.8291016 0.01879883 1.49707
v 0.8291016 -0.03173828 1.49707
vn 0 0 0.9980469
vn 0 0 0.9980469
vn 0 0 0.9980469
vn 0 0 0.9980469
vn 0 0 0.9980469
vt 0.2426758 -0.4443359
vt 0.2158203 -0.3984375
vt 0.2158203 -0.4912109
vt 0.1894531 -0.3984375
vt 0.1894531 -0.4912109
f 386/386/386 387/387/387 388/388/388
f 387/387/387 389/389/389 388/388/388
f 388/388/388 389/389/389 390/390/390
v 1.493652 -0.3171387 1.49707
v 1.493652 -0.04418945 1.164795
v 1.161377 0.02172852 1.49707
v 1.493652 0.01879883 0.8325195
v 0.8291016 0.01879883 1.49707
vn 0.3535156 0.8652344 0.3535156
vn 0.2285156 0.9472656 0.2285156
vn 0.2285156 0.9472656 0.2285156
vn 0.07226563 0.9941406 0.07226563
vn 0.07226563 0.9941406 0.07226563
vt -0.7553711 -0.359375
vt -0.7553711 -0.2460938
vt -0.815918 -0.359375
vt -0.7553711 -0.1328125
vt -0.8764648 -0.359375
f 391/391/391 392/392/392 393/393/393
f 392/392/392 394/394/394 393/393/393
f 393/393/393 394/394/394 395/395/395
v 1.493652 -0.3171387 1.49707
v 1.161377 -0.02856445 1.49707
v 1.493652 -0.09472656 1.164795
v 0.8291016 -0.03173828 1.49707
v 1.493652 -0.03173828 0.8325195
vn -0.1972656 -0.9609375 -0.1972656
vn -0.1972656 -0.9609375 -0.1972656
vn -0.1972656 -0.9609375 -0.1972656
vn -0.05664063 -0.9960938 -0.05664063
vn -0.05664063 -0.9960938 -0.05664063
vt -0.01513672 -0.3955078
vt -0.05419922 -0.3955078
vt -0.01513672 -0.3300781
vt -0.09277344 -0.3955078
vt -0.01513672 -0.2636719
f 396/396/396 397/397/397 398/398/398
f 397/397/397 399/399/399 398/398/398
f 398/398/398 399/399/399 400/400/400
v -0.6223145 0.02490234 -1.501465
v -0.3181152 0.02490234 -1.59375
v -0.001708984 0.02490234 -0.003173828
v -0.001708984 0.02490234 -1.624756
v 0.3146973 0.02490234 -1.59375
vn 0 -1 0
vn 0 -1 0
vn 0 -1 0
vn 0 -1 0
vn 0 -1 0
vt 0.9038086 -0.6679688
vt 0.9277344 -0.828125
vt 0.515625 -0.9960938
vt 0.9355469 -0.9960938
vt 0.9277344 -0.828125
f 401/401/401 402/402/402 403/403/403
f 402/402/402 404/404/404 403/403/403
f 403/403/403 404/404/404 405/405/405
v -0.7143555 -0.1030273 -1.253662
v 0 -0.1037598 0
v -1.172852 -0.1025391 -0.7856445
v -1.493652 -0.1025391 -0.008300781
v -1.688477 -0.08520508 -0.04125977
vn 0 -1 0
vn 0 -1 0
vn 0 -1 0
vn 0 -1 0
vn 0.40625 -0.9082031 0.1074219
vt 0.2553711 -0.4326172
vt 0.3754883 -0.6738281
vt 0.4355469 -0.4326172
vt 0.2558594 -0.4326172
vt 0.2558594 -0.2744141
f 406/406/406 407/407/407 408/408/408
f 407/407/407 409/409/409 408/408/408
f 408/408/408 409/409/409 410/410/410
v -1.496582 -0.3171387 -1.493164
v -1.496582 -0.04418945 -1.160889
v -1.164307 -0.04418945 -1.493164
v -1.496582 0.01879883 -0.8286133
v -0.8320313 0.01733398 -1.493164
vn -0.3535156 0.8652344 -0.3535156
vn -0.2285156 0.9472656 -0.2285156
vn -0.2285156 0.9472656 -0.2285156
vn -0.07226563 0.9941406 -0.07226563
vn -0.07226563 0.9941406 -0.07226563
vt -0.7553711 -0.359375
vt -0.7553711 -0.2460938
vt -0.815918 -0.359375
vt -0.7553711 -0.1328125
vt -0.8764648 -0.359375
f 411/411/411 412/412/412 413/413/413
f 412/412/412 414/414/414 413/413/413
f 413/413/413 414/414/414 415/415/415
v 1.012451 -0.09033203 -1.316895
v 1.012695 -0.1967773 -1.43335
v 0.8105469 -0.06689453 -1.549072
v 0.8520508 -0.1809082 -1.720459
v 0.6386719 -0.1015625 -1.781006
vn 0.1777344 0.9648438 -0.1953125
vn 0.78125 0.4121094 -0.46875
vn 0.2128906 0.8925781 -0.3984375
vn 0.3007813 0.7324219 -0.609375
vn 0.046875 0.7949219 -0.6035156
vt 0.2446289 -0.6279297
vt 0.2446289 -0.5058594
vt 0.1845703 -0.6279297
vt 0.1845703 -0.5058594
vt 0.1245117 -0.5058594
f 416/416/416 417/417/417 418/418/418
f 417/417/417 419/419/419 418/418/418
f 418/418/418 419/419/419 420/420/420
v -0.2145996 -0.01489258 1.385498
v -0.6638184 -0.009521484 1.260498
v -0.3835449 -0.04467773 1.644287
v -0.6394043 -0.04663086 1.538574
v -0.6096191 -0.138916 1.651123
vn -0.02148438 0.9863281 0.1582031
vn -0.02148438 0.9863281 0.1582031
vn -0.05664063 0.9121094 0.4082031
vn -0.1210938 0.9277344 0.3515625
vn -0.4785156 0.5097656 0.7148438
vt 0.1245117 -0.75
vt 0.2446289 -0.75
vt 0.1845703 -0.6279297
vt 0.2446289 -0.6279297
vt 0.2446289 -0.5058594
f 421/421/421 422/422/422 423/423/423
f 422/422/422 424/424/424 423/423/423
f 423/423/423 424/424/424 425/425/425
v -0.3181152 0.3554688 -1.59375
v -0.6223145 0.3554688 -1.501465
v -0.001708984 0.3554688 -0.003173828
v -0.9025879 0.3554688 -1.351563
v -1.148438 0.3554688 -1.149902
vn 0 0.9980469 0
vn 0 0.9980469 0
vn 0 0.9980469 0
vn 0 0.9980469 0
vn 0 0.9980469 0
vt 0.9277344 -0.828125
vt 0.9038086 -0.6679688
vt 0.515625 -0.9960938
vt 0.8647461 -0.5195313
vt 0.8125 -0.3896484
f 426/426/426 427/427/427 428/428/428
f 427/427/427 429/429/429 428/428/428
f 428/428/428 429/429/429 430/430/430
v -1.148438 0.3554688 -1.149902
v -1.350098 0.3554688 -0.9040527
v -0.001708984 0.3554688 -0.003173828
v -1.5 0.3554688 -0.6237793
v -1.592285 0.3554688 -0.3195801
vn 0 0.9980469 0
vn 0 0.9980469 0
vn 0 0.9980469 0
vn 0 0.9980469 0
vn 0 0.9980469 0
vt 0.8125 -0.3896484
vt 0.7490234 -0.2822266
vt 0.515625 -0.9960938
vt 0.6762695 -0.203125
vt 0.597168 -0.1542969
f 431/431/431 432/432/432 433/433/433
f 432/432/432 434/434/434 433/433/433
f 433/433/433 434/434/434 435/435/435
v -1.592285 0.3554688 -0.3195801
v -1.623291 0.3554688 -0.003173828
v -0.001708984 0.3554688 -0.003173828
v -1.592285 0.3554688 0.3129883
v -1.5 0.3554688 0.6171875
vn 0 0.9980469 0
vn 0 0.9980469 0
vn 0 0.9980469 0
vn 0 0.9980469 0
vn 0 0.9980469 0
vt 0.597168 -0.1542969
vt 0.515625 -0.1386719
vt 0.515625 -0.9960938
vt 0.597168 -0.1542969
vt 0.6762695 -0.203125
f 436/436/436 437/437/437 438/438/438
f 437/437/437 439/439/439 438/438/438
f 438/438/438 439/439/439 440/440/440
v -1.5 0.3554688 0.6171875
v -1.350098 0.3554688 0.8977051
v -0.001708984 0.3554688 -0.003173828
v -1.148438 0.3554688 1.143311
v -0.9025879 0.3554688 1.345215
vn 0 0.9980469 0
vn 0 0.9980469 0
vn 0 0.9980469 0
vn 0 0.9980469 0
vn 0 0.9980469 0
vt 0.6762695 -0.203125
vt 0.7490234 -0.2822266
vt 0.515625 -0.9960938
vt 0.8125 -0.3896484
vt 0.8647461 -0.5195313
f 441/441/441 442/442/442 443/443/443
f 442/442/442 444/444/444 443/443/443
f 443/443/443 444/444/444 445/445/445
v -0.9025879 0.3554688 1.345215
v -0.6223145 0.3554688 1.494873
v -0.001708984 0.3554688 -0.003173828
v -0.3181152 0.3554688 1.587158
v -0.001708984 0.3554688 1.618408
vn 0 0.9980469 0
vn 0 0.9980469 0
vn 0 0.9980469 0
vn 0 0.9980469 0
vn 0 0.9980469 0
vt 0.8647461 -0.5195313
vt 0.9038086 -0.6679688
vt 0.515625 -0.9960938
vt 0.9277344 -0.828125
vt 0.9355469 -0.9960938
f 446/446/446 447/447/447 448/448/448
f 447/447/447 449/449/449 448/448/448
f 448/448/448 449/449/449 450/450/450
v -0.001708984 0.3554688 1.618408
v 0.3146973 0.3554688 1.587158
v -0.001708984 0.3554688 -0.003173828
v 0.6188965 0.3554688 1.494873
v 0.8991699 0.3554688 1.345215
vn 0 0.9980469 0
vn 0 0.9980469 0
vn 0 0.9980469 0
vn 0 0.9980469 0
vn 0 0.9980469 0
vt 0.9355469 -0.9960938
vt 0.9277344 -0.828125
vt 0.515625 -0.9960938
vt 0.9038086 -0.6679688
vt 0.8647461 -0.5195313
f 451/451/451 452/452/452 453/453/453
f 452/452/452 454/454/454 453/453/453
f 453/453/453 454/454/454 455/455/455
v 0.8991699 0.3554688 1.345215
v 1.14502 0.3554688 1.143311
v -0.001708984 0.3554688 -0.003173828
v 1.34668 0.3554688 0.8977051
v 1.496582 0.3554688 0.6171875
vn 0 0.9980469 0
vn 0 0.9980469 0
vn 0 0.9980469 0
vn 0 0.9980469 0
vn 0 0.9980469 0
vt 0.8647461 -0.5195313
vt 0.8125 -0.3896484
vt 0.515625 -0.9960938
vt 0.7490234 -0.2822266
vt 0.6762695 -0.203125
f 456/456/456 457/457/457 458/458/458
f 457/457/457 459/459/459 458/458/458
f 458/458/458 459/459/459 460/460/460
v 1.496582 0.3554688 0.6171875
v 1.588623 0.3554688 0.3129883
v -0.001708984 0.3554688 -0.003173828
v 1.619873 0.3554688 -0.003173828
v 1.588623 0.3554688 -0.3195801
vn 0 0.9980469 0
vn 0 0.9980469 0
vn 0 0.9980469 0
vn 0 0.9980469 0
vn 0 0.9980469 0
vt 0.6762695 -0.203125
vt 0.597168 -0.1542969
vt 0.515625 -0.9960938
vt 0.515625 -0.1386719
vt 0.597168 -0.1542969
f 461/461/461 462/462/462 463/463/463
f 462/462/462 464/464/464 463/463/463
f 463/463/463 464/464/464 465/465/465
v 1.588623 0.3554688 -0.3195801
v 1.496582 0.3554688 -0.6237793
v -0.001708984 0.3554688 -0.003173828
v 1.34668 0.3554688 -0.9040527
v 1.14502 0.3554688 -1.149902
vn 0 0.9980469 0
vn 0 0.9980469 0
vn 0 0.9980469 0
vn 0 0.9980469 0
vn 0 0.9980469 0
vt 0.597168 -0.1542969
vt 0.6762695 -0.203125
vt 0.515625 -0.9960938
vt 0.7490234 -0.2822266
vt 0.8125 -0.3896484
f 466/466/466 467/467/467 468/468/468
f 467/467/467 469/469/469 468/468/468
f 468/468/468 469/469/469 470/470/470
v 1.14502 0.3554688 -1.149902
v 0.8991699 0.3554688 -1.351563
v -0.001708984 0.3554688 -0.003173828
v 0.6188965 0.3554688 -1.501465
v 0.3146973 0.3554688 -1.59375
vn 0 0.9980469 0
vn 0 0.9980469 0
vn 0 0.9980469 0
vn 0 0.9980469 0
vn 0 0.9980469 0
vt 0.8125 -0.3896484
vt 0.8647461 -0.5195313
vt 0.515625 -0.9960938
vt 0.9038086 -0.6679688
vt 0.9277344 -0.828125
f 471/471/471 472/472/472 473/473/473
f 472/472/472 474/474/474 473/473/473
f 473/473/473 474/474/474 475/475/475
v 1.736816 -0.0637207 -0.2004395
v 1.725342 -0.08007813 -0.4265137
v 1.469727 -0.01489258 -0.04760742
v 1.372803 -0.01489258 -0.5446777
vn 0.06640625 0.9726563 -0.2246094
vn 0.2929688 0.9433594 -0.1582031
vn 0.07226563 0.9941406 -0.07226563
vn 0.1425781 0.9882813 -0.05078125
vt 0.2446289 -0.6279297
vt 0.1845703 -0.6279297
vt 0.2446289 -0.75
vt 0.1245117 -0.75
f 476/476/476 477/477/477 478/478/478
f 477/477/477 479/479/479 478/478/478
v -1.496582 -0.3171387 1.49707
v -1.164307 -0.09472656 1.49707
v -1.164307 -0.04418945 1.49707
v -0.8320313 0.01879883 1.49707
vn 0 0 0.9980469
vn 0 0 0.9980469
vn 0 0 0.9980469
vn 0 0 0.9980469
vt 0.2426758 -0.4443359
vt 0.2158203 -0.4912109
vt 0.2158203 -0.3984375
vt 0.1894531 -0.3984375
f 480/480/480 481/481/481 482/482/482
f 481/481/481 483/483/483 482/482/482
v -1.164307 -0.09472656 1.49707
v -0.8320313 -0.03173828 1.49707
v -0.8320313 0.01879883 1.49707
v -0.4997559 0.03076172 1.49707
vn 0 0 0.9980469
vn 0 0 0.9980469
vn 0 0 0.9980469
vn 0 0 0.9980469
vt 0.2158203 -0.4912109
vt 0.1894531 -0.4912109
vt 0.1894531 -0.3984375
vt 0.1630859 -0.3984375
f 484/484/484 485/485/485 486/486/486
f 485/485/485 487/487/487 486/486/486
v -0.6394043 -0.08129883 1.538574
v -0.6096191 -0.138916 1.651123
v -0.6704102 -0.1025391 1.257813
v -0.6638184 -0.009521484 1.260498
vn -0.9921875 0.04492188 0.1152344
vn -0.9921875 0.04492188 0.1152344
vn -0.9921875 0.04492188 0.1152344
vn -0.9921875 0.04492188 0.1152344
vt 0.1420898 -1.635742
vt 0.1166992 -1.556641
vt 0.2006836 -1.836914
vt 0.1733398 -1.862305
f 488/488/488 489/489/489 490/490/490
f 489/489/489 491/491/491 490/490/490
v -0.001464844 0.03076172 1.49707
v 0.8291016 -0.03173828 1.49707
v 0.4968262 0.03076172 1.49707
v 0.8291016 0.01879883 1.49707
vn 0 0 0.9980469
vn 0 0 0.9980469
vn 0 0 0.9980469
vn 0 0 0.9980469
vt 0.1235352 -0.3984375
vt 0.1894531 -0.4912109
vt 0.1630859 -0.3984375
vt 0.1894531 -0.3984375
f 492/492/492 493/493/493 494/494/494
f 493/493/493 495/495/495 494/494/494
v 1.619873 0.02490234 -0.003173828
v -0.001708984 0.02490234 -0.003173828
v 1.588623 0.02490234 -0.3195801
v 1.496582 0.02490234 -0.6237793
vn 0 -1 0
vn 0 -1 0
vn 0 -1 0
vn 0 -1 0
vt 0.515625 -0.1386719
vt 0.515625 -0.9960938
vt 0.597168 -0.1542969
vt 0.6762695 -0.203125
f 496/496/496 497/497/497 498/498/498
f 497/497/497 499/499/499 498/498/498
v -0.001464844 -0.01953125 1.49707
v -0.8320313 -0.03173828 1.49707
v -1.496582 -0.01953125 0.001953125
v -1.496582 -0.03173828 0.8325195
vn 0 -1 0
vn 0.05664063 -0.9960938 -0.05664063
vn 0 -1 0
vn 0.05664063 -0.9960938 -0.05664063
vt -0.1376953 -0.3955078
vt -0.09277344 -0.3955078
vt -0.01513672 -0.1914063
vt -0.01513672 -0.2636719
f 500/500/500 501/501/501 502/502/502
f 501/501/501 503/503/503 502/502/502
v -0.001708984 0.1901855 -1.720215
v -0.001708984 0.02490234 -1.624756
v -0.3366699 0.1901855 -1.687256
v -0.3181152 0.02490234 -1.59375
vn -0.08398438 -0.4980469 -0.8632813
vn -0.08398438 -0.4980469 -0.8632813
vn -0.08398438 -0.4980469 -0.8632813
vn -0.08398438 -0.4980469 -0.8632813
vt 0.9951172 -0.05957031
vt 0.9819336 -0.1103516
vt 0.9428711 -0.05957031
vt 0.9326172 -0.1103516
f 504/504/504 505/505/505 506/506/506
f 505/505/505 507/507/507 506/506/506
v 1.493652 -0.3171387 1.49707
v 1.493652 -0.09472656 1.164795
v 1.493652 -0.04418945 1.164795
v 1.493652 -0.03173828 0.8325195
vn 0.9980469 0 0
vn 0.9980469 0 0
vn 0.9980469 0 0
vn 0.9980469 0 0
vt 0.00390625 -0.4443359
vt 0.03027344 -0.4912109
vt 0.03027344 -0.3984375
vt 0.05712891 -0.4912109
f 508/508/508 509/509/509 510/510/510
f 509/509/509 511/511/511 510/510/510
v 0.6352539 -0.01489258 -1.218018
v 0.597168 -0.05200195 -1.573975
v 0.004394531 -0.01489258 -1.48877
v 0.2067871 -0.015625 -1.707764
vn 0.07226563 0.9941406 -0.07226563
vn 0.08007813 0.9550781 -0.2832031
vn 0 0.9980469 0
vn 0.09375 0.9296875 -0.3574219
vt 0.1547852 -0.75
vt 0.1245117 -0.6279297
vt 0.004882813 -0.75
vt 0.004882813 -0.6279297
f 512/512/512 513/513/513 514/514/514
f 513/513/513 515/515/515 514/514/514
v 1.319336 -0.01489258 0.3586426
v 1.690674 -0.03027344 0.2995605
v 1.469727 -0.01489258 -0.04760742
v 1.73291 -0.05249023 0.09545898
vn 0.07226563 0.9941406 -0.07226563
vn 0.4921875 0.8710938 -0.0078125
vn 0.1328125 0.9902344 0.04882813
vn 0.3632813 0.9316406 0.02929688
vt 0.09472656 -0.75
vt 0.06445313 -0.6279297
vt 0.004882813 -0.75
vt 0.004882813 -0.6279297
f 516/516/516 517/517/517 518/518/518
f 517/517/517 519/519/519 518/518/518
v -1.403809 -0.07666016 -0.8930664
v -1.55542 -0.006103516 -0.4628906
v -1.171387 -0.01489258 -0.7834473
v -1.322266 -0.01489258 -0.3544922
vn -0.375 0.9003906 -0.2246094
vn -0.3066406 0.9511719 -0.01367188
vn 0 0.9980469 0
vn -0.07226563 0.9941406 0.07226563
vt 0.2446289 -0.6279297
vt 0.1245117 -0.6279297
vt 0.2446289 -0.75
vt 0.09472656 -0.75
f 520/520/520 521/521/521 522/522/522
f 521/521/521 523/523/523 522/522/522
v 0.4372559 -0.03466797 1.68457
v 0.484375 -0.1296387 1.783447
v 0.7495117 -0.07958984 1.648926
v 0.7290039 -0.152832 1.750244
vn -0.2734375 0.7128906 0.6464844
vn -0.4550781 0.25 0.8554688
vn 0.03320313 0.921875 0.3847656
vn 0.1953125 0.84375 0.4980469
vt 0.2446289 -0.6279297
vt 0.2446289 -0.5058594
vt 0.1845703 -0.6279297
vt 0.1845703 -0.5058594
f 524/524/524 525/525/525 526/526/526
f 525/525/525 527/527/527 526/526/526
v -1.5 0.02490234 -0.6237793
v -0.001708984 0.02490234 -0.003173828
v -1.592285 0.02490234 -0.3195801
v -1.623291 0.02490234 -0.003173828
vn 0 -1 0
vn 0 -1 0
vn 0 -1 0
vn 0 -1 0
vt 0.6762695 -0.203125
vt 0.515625 -0.9960938
vt 0.597168 -0.1542969
vt 0.515625 -0.1386719
f 528/528/528 529/529/529 530/530/530
f 529/529/529 531/531/531 530/530/530
v -1.623291 0.02490234 -0.003173828
v -0.001708984 0.02490234 -0.003173828
v -1.592285 0.02490234 0.3129883
v -1.5 0.02490234 0.6171875
vn 0 -1 0
vn 0 -1 0
vn 0 -1 0
vn 0 -1 0
vt 0.515625 -0.1386719
vt 0.515625 -0.9960938
vt 0.597168 -0.1542969
vt 0.6762695 -0.203125
f 532/532/532 533/533/533 534/534/534
f 533/533/533 535/535/535 534/534/534
v -0.6223145 0.02490234 1.494873
v -0.001708984 0.02490234 -0.003173828
v -0.3181152 0.02490234 1.587158
v -0.001708984 0.02490234 1.618408
vn 0 -1 0
vn 0 -1 0
vn 0 -1 0
vn 0 -1 0
vt 0.9038086 -0.6679688
vt 0.515625 -0.9960938
vt 0.9277344 -0.828125
vt 0.9355469 -0.9960938
f 536/536/536 537/537/537 538/538/538
f 537/537/537 539/539/539 538/538/538
v -0.001708984 0.02490234 1.618408
v -0.001708984 0.02490234 -0.003173828
v 0.3146973 0.02490234 1.587158
v 0.6188965 0.02490234 1.494873
vn 0 -1 0
vn 0 -1 0
vn 0 -1 0
vn 0 -1 0
vt 0.9355469 -0.9960938
vt 0.515625 -0.9960938
vt 0.9277344 -0.828125
vt 0.9038086 -0.6679688
f 540/540/540 541/541/541 542/542/542
f 541/541/541 543/543/543 542/542/542
v 1.496582 0.02490234 0.6171875
v -0.001708984 0.02490234 -0.003173828
v 1.588623 0.02490234 0.3129883
v 1.619873 0.02490234 -0.003173828
vn 0 -1 0
vn 0 -1 0
vn 0 -1 0
vn 0 -1 0
vt 0.6762695 -0.203125
vt 0.515625 -0.9960938
vt 0.597168 -0.1542969
vt 0.515625 -0.1386719
f 544/544/544 545/545/545 546/546/546
f 545/545/545 547/547/547 546/546/546
v -0.05175781 -0.04931641 -1.747314
v -0.1503906 -0.1496582 -1.88623
v -0.4597168 -0.001220703 -1.695313
v -0.5488281 -0.1269531 -1.864014
vn 0.02734375 0.9570313 -0.2871094
vn 0.001953125 0.7226563 -0.6914063
vn -0.1542969 0.953125 -0.2636719
vn -0.2011719 0.7910156 -0.5761719
vt 0.2446289 -0.6279297
vt 0.2446289 -0.5058594
vt 0.1245117 -0.6279297
vt 0.1245117 -0.5058594
f 548/548/548 549/549/549 550/550/550
f 549/549/549 551/551/551 550/550/550
v -1.739502 -0.114502 0.2045898
v -1.728027 -0.08276367 0.4306641
v -1.493652 -0.01489258 -0.005615234
v -1.401855 -0.01489258 0.5488281
vn -0.08398438 0.9707031 0.2246094
vn -0.2910156 0.9433594 0.1582031
vn -0.07226563 0.9941406 0.07226563
vn -0.1464844 0.9882813 0.046875
vt 0.2446289 -0.6279297
vt 0.1845703 -0.6279297
vt 0.2446289 -0.75
vt 0.1245117 -0.75
f 552/552/552 553/553/553 554/554/554
f 553/553/553 555/555/555 554/554/554
v 1.400879 -0.0625 0.8972168
v 1.628906 -0.1164551 0.887207
v 1.55249 -0.04833984 0.467041
v 1.72583 -0.2150879 0.5463867
vn 0.2949219 0.9316406 0.2167969
vn 0.703125 0.5839844 0.40625
vn 0.3066406 0.9511719 0.01367188
vn 0.5898438 0.7792969 0.2070313
vt 0.2446289 -0.6279297
vt 0.2446289 -0.5058594
vt 0.1245117 -0.6279297
vt 0.1245117 -0.5058594
f 556/556/556 557/557/557 558/558/558
f 557/557/557 559/559/559 558/558/558
v 0.2678223 -0.01489258 1.407471
v 0 -0.05273438 1.654053
v 0.2165527 -0.03027344 1.619873
v 0.229248 -0.1660156 1.735352
vn -0.001953125 0.9980469 0.0625
vn -0.00390625 0.8730469 0.4882813
vn -0.00390625 0.8730469 0.4882813
vn 0.1328125 0.6582031 0.7421875
vt 0.004882813 -0.75
vt 0.06445313 -0.6279297
vt 0.004882813 -0.6279297
vt 0.004882813 -0.5058594
f 560/560/560 561/561/561 562/562/562
f 561/561/561 563/563/563 562/562/562
v -1.493652 -0.1025391 -0.008300781
v -1.493652 -0.01489258 -0.005615234
v -1.688477 -0.08520508 -0.04125977
v -1.821533 -0.140625 -0.1105957
vn -0.3007813 0.171875 0.9375
vn -0.3007813 0.171875 0.9375
vn -0.3007813 0.171875 0.9375
vn -0.3007813 0.171875 0.9375
vt 0.02490234 -1.71875
vt 0.04882813 -1.742188
vt 0.01513672 -1.579102
vt 0.03955078 -1.500977
f 564/564/564 565/565/565 566/566/566
f 565/565/565 567/567/567 566/566/566
v -0.3793945 -0.2131348 1.820557
v 0.0168457 -0.2041016 1.83374
v 0 -0.05273438 1.654053
v 0.229248 -0.1660156 1.735352
vn -0.1152344 0.7695313 0.6269531
vn 0.09765625 0.8046875 0.5859375
vn -0.00390625 0.8730469 0.4882813
vn 0.1328125 0.6582031 0.7421875
vt 0.1845703 -0.5058594
vt 0.06445313 -0.5058594
vt 0.06445313 -0.6279297
vt 0.004882813 -0.5058594
f 568/568/568 569/569/569 570/570/570
f 569/569/569 571/571/571 570/570/570
v -0.4997559 0.03076172 -1.493164
v -0.8320313 0.01733398 -1.493164
v -1.496582 0.03076172 -0.4963379
v -1.496582 0.01879883 -0.8286133
vn 0 0.9980469 0
vn -0.07226563 0.9941406 -0.07226563
vn 0 0.9980469 0
vn -0.07226563 0.9941406 -0.07226563
vt -0.9370117 -0.359375
vt -0.8764648 -0.359375
vt -0.7553711 -0.02050781
vt -0.7553711 -0.1328125
f 572/572/572 573/573/573 574/574/574
f 573/573/573 575/575/575 574/574/574
v -1.496582 -0.01953125 0.001953125
v -1.496582 -0.03173828 -0.8286133
v -0.001464844 -0.01953125 -1.493164
v -0.8320313 -0.01220703 -1.493164
vn 0 -1 0
vn 0.05664063 -0.9960938 0.05664063
vn 0 -1 0
vn 0.05664063 -0.9960938 0.05664063
vt -0.01513672 -0.1914063
vt -0.01513672 -0.2636719
vt -0.1376953 -0.3955078
vt -0.09277344 -0.3955078
f 576/576/576 577/577/577 578/578/578
f 577/577/577 579/579/579 578/578/578
v 0.4968262 0.03076172 1.49707
v 0.8291016 0.01879883 1.49707
v 1.493652 0.03076172 0.5002441
v 1.493652 0.01879883 0.8325195
vn 0 0.9980469 0
vn 0.07226563 0.9941406 0.07226563
vn 0 0.9980469 0
vn 0.07226563 0.9941406 0.07226563
vt -0.9370117 -0.359375
vt -0.8764648 -0.359375
vt -0.7553711 -0.02050781
vt -0.7553711 -0.1328125
f 580/580/580 581/581/581 582/582/582
f 581/581/581 583/583/583 582/582/582
v 1.493652 -0.01953125 0.001953125
v 1.493652 -0.03173828 0.8325195
v -0.001464844 -0.01953125 1.49707
v 0.8291016 -0.03173828 1.49707
vn 0 -1 0
vn -0.05664063 -0.9960938 -0.05664063
vn 0 -1 0
vn -0.05664063 -0.9960938 -0.05664063
vt -0.01513672 -0.1914063
vt -0.01513672 -0.2636719
vt -0.1376953 -0.3955078
vt -0.09277344 -0.3955078
f 584/584/584 585/585/585 586/586/586
f 585/585/585 587/587/587 586/586/586
v -1.496582 -0.03173828 -0.8286133
v -1.496582 -0.01953125 0.001953125
v -1.496582 0.03076172 -0.4963379
v -1.496582 0.03076172 0.001953125
vn -1 0 0
vn -1 0 0
vn -1 0 0
vn -1 0 0
vt 0.05712891 -0.4912109
vt 0.1235352 -0.4912109
vt 0.08349609 -0.3984375
vt 0.1235352 -0.3984375
f 588/588/588 589/589/589 590/590/590
f 589/589/589 591/591/591 590/590/590
v -1.496582 -0.03173828 0.8325195
v -1.496582 -0.09472656 1.164795
v -1.496582 -0.04418945 1.164795
v -1.496582 -0.3171387 1.49707
vn -1 0 0
vn -1 0 0
vn -1 0 0
vn -1 0 0
vt 0.05712891 -0.4912109
vt 0.03027344 -0.4912109
vt 0.03027344 -0.3984375
vt 0.00390625 -0.4443359
f 592/592/592 593/593/593 594/594/594
f 593/593/593 595/595/595 594/594/594
v -0.8320313 -0.01220703 -1.493164
v -0.001464844 0.03076172 -1.493164
v -0.001464844 -0.01953125 -1.493164
v 0.8291016 -0.03173828 -1.493164
vn 0 0 -1
vn 0 0 -1
vn 0 0 -1
vn 0 0 -1
vt 0.1894531 -0.4912109
vt 0.1235352 -0.3984375
vt 0.1235352 -0.4912109
vt 0.1894531 -0.4912109
f 596/596/596 597/597/597 598/598/598
f 597/597/597 599/599/599 598/598/598
v 1.870605 -0.2736816 0.314209
v 1.797363 -0.171875 0.1147461
v 1.690674 -0.03027344 0.2995605
v 1.73291 -0.05249023 0.09545898
vn 0.5957031 0.8027344 -0.0390625
vn 0.7050781 0.6914063 -0.15625
vn 0.4921875 0.8710938 -0.0078125
vn 0.3632813 0.9316406 0.02929688
vt 0.06445313 -0.5058594
vt 0.004882813 -0.5058594
vt 0.06445313 -0.6279297
vt 0.004882813 -0.6279297
f 600/600/600 601/601/601 602/602/602
f 601/601/601 603/603/603 602/602/602
v 1.493652 -0.3171387 -1.493164
v 1.493652 -0.04418945 -1.160889
v 1.493652 -0.09472656 -1.160889
v 1.493652 -0.03173828 -0.8286133
vn 0.9980469 0 0
vn 0.9980469 0 0
vn 0.9980469 0 0
vn 0.9980469 0 0
vt 0.00390625 -0.4443359
vt 0.03027344 -0.3984375
vt 0.03027344 -0.4912109
vt 0.05712891 -0.4912109
f 604/604/604 605/605/605 606/606/606
f 605/605/605 607/607/607 606/606/606
v -0.001464844 -0.01953125 -1.493164
v 0.8291016 -0.03173828 -1.493164
v 1.493652 -0.01953125 0.001953125
v 1.493652 -0.03173828 -0.8286133
vn 0 -1 0
vn -0.05664063 -0.9960938 0.05664063
vn 0 -1 0
vn -0.05664063 -0.9960938 0.05664063
vt -0.1376953 -0.3955078
vt -0.09277344 -0.3955078
vt -0.01513672 -0.1914063
vt -0.01513672 -0.2636719
f 608/608/608 609/609/609 610/610/610
f 609/609/609 611/611/611 610/610/610
v 0.3146973 0.3554688 -1.59375
v -0.001708984 0.3557129 -1.624756
v -0.001708984 0.3554688 -0.003173828
v -0.3181152 0.3554688 -1.59375
vn 0 0.9980469 0
vn 0 0.9980469 0
vn 0 0.9980469 0
vn 0 0.9980469 0
vt 0.9277344 -0.828125
vt 0.9355469 -0.9960938
vt 0.515625 -0.9960938
vt 0.9277344 -0.828125
f 612/612/612 613/613/613 614/614/614
f 613/613/613 615/615/615 614/614/614
v 1.866699 -0.1992188 -0.3110352
v 1.736816 -0.0637207 -0.2004395
v 1.469727 -0.1025391 -0.04760742
v 1.736816 -0.1416016 -0.2004395
v -1.681396 -0.1425781 -0.8830566
v -1.403809 -0.07666016 -0.8930664
v -1.172852 -0.1025391 -0.7856445
v -1.56543 -0.1520996 -0.8930664
v 1.364258 -0.06420898 -1.05542
v 1.445801 -0.2055664 -1.081055
v 1.291504 -0.1071777 -1.05542
v 1.036377 -0.1025391 -0.9570313
v -0.8410645 -0.01904297 -1.446045
v -0.8469238 -0.1125488 -1.442383
v -0.7143555 -0.1030273 -1.253662
v -0.7143555 -0.004638672 -1.253662
v -1.110107 -0.00390625 0.857666
v -1.118408 -0.1025391 0.857666
v -0.6704102 -0.1025391 1.257813
v -0.6638184 -0.009521484 1.260498
v 1.628906 -0.1164551 0.887207
v 1.400879 -0.0625 0.8972168
v 1.115967 -0.1025391 0.8937988
v 1.425049 -0.09838867 0.9033203
v -1.367188 -0.09960938 0.9643555
v -1.448486 -0.2626953 1.039551
v -1.367188 -0.2302246 0.9643555
v -1.118408 -0.1025391 0.857666
v 1.73291 -0.05249023 0.09545898
v 1.797363 -0.171875 0.1147461
v 1.689453 -0.08129883 0.01831055
v 1.469727 -0.1025391 -0.04760742
vn 0.5546875 0 0.8320313
vn 0.5546875 0 0.8320313
vn 0.5546875 0 0.8320313
vn 0.5546875 0 0.8320313
vn 0.203125 -0.4335938 -0.8789063
vn 0.203125 -0.4335938 -0.8789063
vn 0.203125 -0.4335938 -0.8789063
vn 0.203125 -0.4335938 -0.8789063
vn -0.1953125 0.3320313 -0.921875
vn -0.1953125 0.3320313 -0.921875
vn -0.1953125 0.3320313 -0.921875
vn -0.1953125 0.3320313 -0.921875
vn -0.8320313 0 0.5546875
vn -0.8320313 0 0.5546875
vn -0.8320313 0 0.5546875
vn -0.8320313 0 0.5546875
vn -0.7070313 0 0.7070313
vn -0.7070313 0 0.7070313
vn -0.7070313 0 0.7070313
vn -0.7070313 0 0.7070313
vn 0.01757813 0.1796875 0.984375
vn 0.01757813 0.1796875 0.984375
vn 0.01757813 0.1796875 0.984375
vn 0.01757813 0.1796875 0.984375
vn 0.4824219 0 0.875
vn 0.4824219 0 0.875
vn 0.4824219 0 0.875
vn 0.4824219 0 0.875
vn 0.4140625 0.7519531 -0.5136719
vn 0.4140625 0.7519531 -0.5136719
vn 0.4140625 0.7519531 -0.5136719
vn 0.4140625 0.7519531 -0.5136719
vt 0.09033203 -1.537109
vt 0.08740234 -1.660156
vt 0.1884766 -1.807617
vt 0.1235352 -1.624023
vt 0.1972656 -1.517578
vt 0.1523438 -1.670898
vt 0.2236328 -1.813477
vt 0.2207031 -1.601563
vt 0.1235352 -1.613281
vt 0.1162109 -1.530273
vt 0.05322266 -1.611328
vt 0.01513672 -1.80957
vt 0.1396484 -1.595703
vt 0.1020508 -1.561523
vt 0.09472656 -1.729492
vt 0.1181641 -1.75293
vt 0.2397461 -1.663086
vt 0.199707 -1.658203
vt 0.199707 -1.952148
vt 0.2363281 -1.957031
vt 0.05908203 -1.541016
vt 0.04980469 -1.657227
vt 0.1464844 -1.825195
vt 0.0859375 -1.621094
vt 0.1000977 -1.625977
vt 0.07910156 -1.529297
vt 0.05615234 -1.582031
vt 0.04150391 -1.797852
vt 0.07128906 -1.637695
vt 0.05712891 -1.520508
vt 0.02880859 -1.647461
vt 0.03271484 -1.74707
f 616/616/616 617/617/617 618/618/618 619/619/619
f 620/620/620 621/621/621 622/622/622 623/623/623
f 624/624/624 625/625/625 626/626/626 627/627/627
f 628/628/628 629/629/629 630/630/630 631/631/631
f 632/632/632 633/633/633 634/634/634 635/635/635
f 636/636/636 637/637/637 638/638/638 639/639/639
f 640/640/640 641/641/641 642/642/642 643/643/643
f 644/644/644 645/645/645 646/646/646 647/647/647
v 1.115967 -0.1025391 0.8937988
v 1.18335 -0.06518555 1.179932
v 1.18335 -0.09545898 1.146973
v 0.2067871 -0.015625 -1.707764
v 0.597168 -0.05200195 -1.573975
v 0.2988281 -0.078125 -1.813965
v 1.5896 -0.05273438 -0.8532715
v 1.372803 -0.01489258 -0.5446777
v 1.725342 -0.08007813 -0.4265137
v -0.6704102 -0.1025391 1.257813
v -1.118408 -0.1025391 0.857666
v 0 -0.1037598 0
v 1.575928 -0.1572266 -0.6398926
v 1.736816 -0.1416016 -0.2004395
v 1.469727 -0.1025391 -0.04760742
v 1.55249 -0.1491699 0.467041
v 1.425049 -0.09838867 0.9033203
v 1.115967 -0.1025391 0.8937988
v 1.469727 -0.01489258 -0.04760742
v 1.73291 -0.05249023 0.09545898
v 1.469727 -0.1025391 -0.04760742
v -1.172852 -0.1025391 -0.7856445
v -1.171387 -0.01489258 -0.7834473
v -0.7143555 -0.004638672 -1.253662
v -0.7143555 -0.1030273 -1.253662
v -1.172852 -0.1025391 -0.7856445
v -0.7143555 -0.004638672 -1.253662
v 0.7038574 -0.1049805 -1.527344
v 1.012451 -0.1906738 -1.316895
v 1.036377 -0.1025391 -0.9570313
v 1.036377 -0.01489258 -0.9570313
v 1.364258 -0.06420898 -1.05542
v 1.036377 -0.1025391 -0.9570313
v 1.012451 -0.09033203 -1.316895
v 1.036377 -0.01489258 -0.9570313
v 1.036377 -0.1025391 -0.9570313
v -1.634766 -0.2307129 0.6062012
v -1.739502 -0.114502 0.2045898
v -1.493652 -0.1025391 -0.008300781
v 0.2678223 -0.01489258 1.407471
v 0.2165527 -0.03027344 1.619873
v 0.2678223 -0.1025391 1.407471
v 0.4372559 -0.03466797 1.68457
v 0.2678223 -0.01489258 1.407471
v 0.2678223 -0.1025391 1.407471
v 1.115967 -0.01489258 0.8937988
v 1.18335 -0.06518555 1.179932
v 1.115967 -0.1025391 0.8937988
v 1.400879 -0.0625 0.8972168
v 1.115967 -0.01489258 0.8937988
v 1.115967 -0.1025391 0.8937988
v 1.736816 -0.0637207 -0.2004395
v 1.469727 -0.01489258 -0.04760742
v 1.469727 -0.1025391 -0.04760742
v -0.1916504 -0.1791992 1.64917
v -0.6394043 -0.08129883 1.538574
v -0.6704102 -0.1025391 1.257813
v 0.004394531 -0.01489258 -1.48877
v 0.004394531 -0.1025391 -1.48877
v -0.05175781 -0.04931641 -1.747314
v 0.2067871 -0.015625 -1.707764
v 0.004394531 -0.1025391 -1.48877
v 0.004394531 -0.01489258 -1.48877
v -1.592285 -0.06835938 0.8574219
v -1.401855 -0.01489258 0.5488281
v -1.728027 -0.08276367 0.4306641
v -1.55542 -0.006103516 -0.4628906
v -1.693604 -0.02709961 -0.2954102
v -1.322266 -0.01489258 -0.3544922
v 0.3146973 0.02490234 -1.59375
v 0.6188965 0.02490234 -1.501465
v -0.001708984 0.02490234 -0.003173828
v -1.110107 -0.00390625 0.857666
v -1.367188 -0.09960938 0.9643555
v -1.118408 -0.1025391 0.857666
v 1.036377 -0.1025391 -0.9570313
v 1.012451 -0.1906738 -1.316895
v 1.012451 -0.09033203 -1.316895
v -0.4990234 -0.1159668 -1.695313
v -0.05175781 -0.1320801 -1.747314
v 0.004394531 -0.1025391 -1.48877
v 1.012451 -0.1906738 -1.316895
v 1.012695 -0.1967773 -1.43335
v 1.012451 -0.09033203 -1.316895
v 0.2067871 -0.015625 -1.707764
v 0.2067871 -0.09790039 -1.707764
v 0.004394531 -0.1025391 -1.48877
v 0.2988281 -0.078125 -1.813965
v 0.2067871 -0.09790039 -1.707764
v 0.2067871 -0.015625 -1.707764
v -0.05175781 -0.1320801 -1.747314
v -0.05175781 -0.04931641 -1.747314
v 0.004394531 -0.1025391 -1.48877
v -0.1503906 -0.1496582 -1.88623
v -0.05175781 -0.04931641 -1.747314
v -0.05175781 -0.1320801 -1.747314
v -0.9086914 -0.190918 -1.530029
v -0.8469238 -0.1125488 -1.442383
v -0.8410645 -0.01904297 -1.446045
v -1.403809 -0.07666016 -0.8930664
v -1.171387 -0.01489258 -0.7834473
v -1.172852 -0.1025391 -0.7856445
v -1.697266 -0.03857422 -0.06420898
v -1.821533 -0.140625 -0.1105957
v -1.493652 -0.01489258 -0.005615234
v -1.739502 -0.114502 0.2045898
v -1.493652 -0.01489258 -0.005615234
v -1.493652 -0.1025391 -0.008300781
v -0.6394043 -0.04663086 1.538574
v -0.6638184 -0.009521484 1.260498
v -0.6096191 -0.138916 1.651123
v 0.2678223 -0.1025391 1.407471
v 0.2165527 -0.03027344 1.619873
v 0.2165527 -0.1081543 1.586182
v 0.229248 -0.1660156 1.735352
v 0.2165527 -0.1081543 1.586182
v 0.2165527 -0.03027344 1.619873
v 0.484375 -0.1296387 1.783447
v 0.4372559 -0.03466797 1.68457
v 0.2678223 -0.1025391 1.407471
v 1.18335 -0.06518555 1.179932
v 1.227051 -0.1665039 1.393799
v 1.18335 -0.09545898 1.146973
vn 0.9257813 0.2773438 -0.2539063
vn 0.9257813 0.2773438 -0.2539063
vn 0.9257813 0.2773438 -0.2539063
vn 0.09375 0.9296875 -0.3574219
vn 0.08007813 0.9550781 -0.2832031
vn 0.15625 0.7070313 -0.6914063
vn 0.3242188 0.8984375 -0.2988281
vn 0.1425781 0.9882813 -0.05078125
vn 0.2929688 0.9433594 -0.1582031
vn 0 -1 0
vn 0 -1 0
vn 0 -1 0
vn -0.25 -0.9550781 0.1601563
vn -0.1699219 -0.9746094 0.1425781
vn 0 -1 0
vn -0.3261719 -0.9433594 -0.0625
vn -0.3242188 -0.9375 -0.1328125
vn 0 -1 0
vn 0.4765625 0 -0.8789063
vn 0.4765625 0 -0.8789063
vn 0.4765625 0 -0.8789063
vn -0.7070313 0 -0.7070313
vn -0.7070313 0 -0.7070313
vn -0.7070313 0 -0.7070313
vn -0.7070313 0 -0.7070313
vn -0.7070313 0 -0.7070313
vn -0.7070313 0 -0.7070313
vn -0.1171875 -0.9296875 0.3457031
vn -0.1972656 -0.9609375 0.1972656
vn 0 -1 0
vn -0.2871094 0 -0.9570313
vn -0.2871094 0 -0.9570313
vn -0.2871094 0 -0.9570313
vn 0.9960938 0.03125 -0.07226563
vn 0.9960938 0.03125 -0.07226563
vn 0.9960938 0.03125 -0.07226563
vn 0.2597656 -0.9511719 -0.1640625
vn 0.1972656 -0.9609375 -0.1972656
vn 0 -1 0
vn 0.9804688 0 0.1953125
vn 0.9804688 0 0.1953125
vn 0.9804688 0 0.1953125
vn -0.8320313 0 0.5546875
vn -0.8320313 0 0.5546875
vn -0.8320313 0 0.5546875
vn 0.9804688 0 -0.1953125
vn 0.9804688 0 -0.1953125
vn 0.9804688 0 -0.1953125
vn 0 0 0.9980469
vn 0 0 0.9980469
vn 0 0 0.9980469
vn 0.4824219 0 0.875
vn 0.4824219 0 0.875
vn 0.4824219 0 0.875
vn 0.02148438 -0.9082031 -0.4179688
vn 0.1152344 -0.9257813 -0.359375
vn -0.00390625 -0.9980469 -0.0625
vn 0.2636719 0 -0.9648438
vn 0.2636719 0 -0.9648438
vn 0.9804688 0 -0.1953125
vn -0.7070313 0 -0.7070313
vn 0.2636719 0 -0.9648438
vn 0.2636719 0 -0.9648438
vn -0.3242188 0.8984375 0.2988281
vn -0.1464844 0.9882813 0.046875
vn -0.2910156 0.9433594 0.1582031
vn -0.3066406 0.9511719 -0.01367188
vn -0.4921875 0.8710938 0.0078125
vn -0.07226563 0.9941406 0.07226563
vn 0 -1 0
vn 0 -1 0
vn 0 -1 0
vn 0.3828125 0 0.9238281
vn 0.3828125 0 0.9238281
vn 0.3828125 0 0.9238281
vn 0.9960938 0.03125 -0.07226563
vn 0.9960938 0.03125 -0.07226563
vn 0.9960938 0.03125 -0.07226563
vn 0.1542969 -0.9550781 0.2519531
vn -0.02734375 -0.9570313 0.2871094
vn 0 -1 0
vn 0.9980469 0 0
vn 0.9980469 0 0
vn 0.9980469 0 0
vn -0.7070313 0 -0.7070313
vn -0.7070313 0 -0.7070313
vn -0.7070313 0 -0.7070313
vn -0.7558594 0 -0.6542969
vn -0.7558594 0 -0.6542969
vn -0.7558594 0 -0.6542969
vn 0.9804688 0 -0.1953125
vn 0.9804688 0 -0.1953125
vn 0.9804688 0 -0.1953125
vn 0.8320313 0 -0.5546875
vn 0.8320313 0 -0.5546875
vn 0.8320313 0 -0.5546875
vn -0.859375 0.09765625 0.5019531
vn -0.859375 0.09765625 0.5019531
vn -0.859375 0.09765625 0.5019531
vn 0.3828125 0 -0.9238281
vn 0.3828125 0 -0.9238281
vn 0.3828125 0 -0.9238281
vn -0.3007813 0.171875 0.9375
vn -0.3007813 0.171875 0.9375
vn -0.3007813 0.171875 0.9375
vn -0.6542969 0.0234375 -0.7558594
vn -0.6542969 0.0234375 -0.7558594
vn -0.6542969 0.0234375 -0.7558594
vn -0.9921875 0.04492188 0.1152344
vn -0.9921875 0.04492188 0.1152344
vn -0.9921875 0.04492188 0.1152344
vn 0.9550781 -0.1171875 0.2714844
vn 0.9550781 -0.1171875 0.2714844
vn 0.9550781 -0.1171875 0.2714844
vn 0.9960938 0.03125 -0.07226563
vn 0.9960938 0.03125 -0.07226563
vn 0.9960938 0.03125 -0.07226563
vn -0.859375 0.09765625 0.5019531
vn -0.859375 0.09765625 0.5019531
vn -0.859375 0.09765625 0.5019531
vn 0.9804688 0.1445313 -0.1328125
vn 0.9804688 0.1445313 -0.1328125
vn 0.9804688 0.1445313 -0.1328125
vt 0.203125 -1.78125
vt 0.140625 -1.592773
vt 0.09375 -1.615234
vt 0.004882813 -0.6279297
vt 0.1245117 -0.6279297
vt 0.004882813 -0.5058594
vt 0.06445313 -0.6279297
vt 0.1245117 -0.75
vt 0.1845703 -0.6279297
vt 0.4956055 -0.4326172
vt 0.2553711 -0.4326172
vt 0.3754883 -0.6738281
vt 0.3637695 -0.3388672
vt 0.4960938 -0.28125
vt 0.4956055 -0.4326172
vt 0.3701172 -0.3271484
vt 0.4960938 -0.2783203
vt 0.4956055 -0.4326172
vt 0.05615234 -1.770508
vt 0.07128906 -1.637695
vt 0.03271484 -1.74707
vt 0.2329102 -1.638672
vt 0.199707 -1.636719
vt 0.199707 -1.945313
vt 0.2358398 -1.945313
vt 0.2358398 -1.638672
vt 0.2026367 -1.945313
vt 0.40625 -0.2636719
vt 0.496582 -0.2773438
vt 0.4956055 -0.4326172
vt 0.03857422 -1.833008
vt 0.1235352 -1.613281
vt 0.01513672 -1.80957
vt 0.1220703 -1.597656
vt 0.1220703 -1.901367
vt 0.1860352 -1.900391
vt 0.3823242 -0.3066406
vt 0.4960938 -0.28125
vt 0.4956055 -0.4326172
vt 0.2006836 -1.748047
vt 0.1225586 -1.609375
vt 0.1674805 -1.748047
vt 0.1015625 -1.611328
vt 0.1220703 -1.748047
vt 0.1455078 -1.724609
vt 0.2363281 -1.78125
vt 0.140625 -1.592773
vt 0.203125 -1.78125
vt 0.04980469 -1.657227
vt 0.1230469 -1.848633
vt 0.1464844 -1.825195
vt 0.08740234 -1.660156
vt 0.1650391 -1.831055
vt 0.1884766 -1.807617
vt 0.3754883 -0.2792969
vt 0.4960938 -0.2773438
vt 0.4956055 -0.4326172
vt 0.06298828 -1.832031
vt 0.09619141 -1.832031
vt 0.1518555 -1.662109
vt 0.1484375 -1.900391
vt 0.1083984 -1.766602
vt 0.07519531 -1.766602
vt 0.06445313 -0.6279297
vt 0.1245117 -0.75
vt 0.1845703 -0.6279297
vt 0.1245117 -0.6279297
vt 0.06445313 -0.6279297
vt 0.09472656 -0.75
vt 0.9277344 -0.828125
vt 0.9038086 -0.6679688
vt 0.515625 -0.9960938
vt 0.06689453 -1.836914
vt 0.1010742 -1.632813
vt 0.04248047 -1.804688
vt 0.08496094 -1.864258
vt 0.1860352 -1.62793
vt 0.1352539 -1.62793
vt 0.3696289 -0.3378906
vt 0.496582 -0.28125
vt 0.4956055 -0.4326172
vt 0.1904297 -1.625977
vt 0.2285156 -1.549805
vt 0.1396484 -1.625977
vt 0.1015625 -1.674805
vt 0.06542969 -1.638672
vt 0.03564453 -1.796875
vt 0.08544922 -1.545898
vt 0.06298828 -1.62207
vt 0.09912109 -1.658203
vt 0.1533203 -1.668945
vt 0.09912109 -1.668945
vt 0.04345703 -1.838867
vt 0.1679688 -1.575195
vt 0.1020508 -1.666016
vt 0.1567383 -1.666016
vt 0.1582031 -1.592773
vt 0.1459961 -1.535156
vt 0.09472656 -1.538086
vt 0.1523438 -1.670898
vt 0.2011719 -1.837891
vt 0.2236328 -1.813477
vt 0.06738281 -1.631836
vt 0.03955078 -1.500977
vt 0.04882813 -1.742188
vt 0.1928711 -1.697266
vt 0.07324219 -1.859375
vt 0.1064453 -1.859375
vt 0.105957 -1.671875
vt 0.1733398 -1.862305
vt 0.1166992 -1.556641
vt 0.1674805 -1.748047
vt 0.1225586 -1.609375
vt 0.07128906 -1.630859
vt 0.03320313 -1.533203
vt 0.07128906 -1.630859
vt 0.1225586 -1.609375
vt 0.1396484 -1.529297
vt 0.1015625 -1.611328
vt 0.1455078 -1.724609
vt 0.140625 -1.592773
vt 0.02587891 -1.548828
vt 0.09375 -1.615234
f 648/648/648 649/649/649 650/650/650
f 651/651/651 652/652/652 653/653/653
f 654/654/654 655/655/655 656/656/656
f 657/657/657 658/658/658 659/659/659
f 660/660/660 661/661/661 662/662/662
f 663/663/663 664/664/664 665/665/665
f 666/666/666 667/667/667 668/668/668
f 669/669/669 670/670/670 671/671/671
f 672/672/672 673/673/673 674/674/674
f 675/675/675 676/676/676 677/677/677
f 678/678/678 679/679/679 680/680/680
f 681/681/681 682/682/682 683/683/683
f 684/684/684 685/685/685 686/686/686
f 687/687/687 688/688/688 689/689/689
f 690/690/690 691/691/691 692/692/692
f 693/693/693 694/694/694 695/695/695
f 696/696/696 697/697/697 698/698/698
f 699/699/699 700/700/700 701/701/701
f 702/702/702 703/703/703 704/704/704
f 705/705/705 706/706/706 707/707/707
f 708/708/708 709/709/709 710/710/710
f 711/711/711 712/712/712 713/713/713
f 714/714/714 715/715/715 716/716/716
f 717/717/717 718/718/718 719/719/719
f 720/720/720 721/721/721 722/722/722
f 723/723/723 724/724/724 725/725/725
f 726/726/726 727/727/727 728/728/728
f 729/729/729 730/730/730 731/731/731
f 732/732/732 733/733/733 734/734/734
f 735/735/735 736/736/736 737/737/737
f 738/738/738 739/739/739 740/740/740
f 741/741/741 742/742/742 743/743/743
f 744/744/744 745/745/745 746/746/746
f 747/747/747 748/748/748 749/749/749
f 750/750/750 751/751/751 752/752/752
f 753/753/753 754/754/754 755/755/755
f 756/756/756 757/757/757 758/758/758
f 759/759/759 760/760/760 761/761/761
f 762/762/762 763/763/763 764/764/764
f 765/765/765 766/766/766 767/767/767
f 768/768/768 769/769/769 770/770/770
