# Created by MKDS Course Modifier
mtllib FaceBolt MC.mtl
g polygon0
usemtl bolt
v 0.6484375 0.5432129 -0.3745117
v 0.6159668 0.5749512 -0.3557129
v 0.6484375 0.5432129 0.3745117
v 0.6159668 0.5749512 0.3557129
v 0 0.5432129 0.7487793
v 0 0.5749512 0.7114258
v -0.6484375 0.5432129 0.3745117
v -0.6159668 0.5749512 0.3557129
v -0.6484375 0.5432129 -0.3745117
v -0.6159668 0.5749512 -0.3557129
v 0 0.5432129 -0.7487793
v 0 0.5749512 -0.7114258
v 0.6484375 0.5432129 -0.3745117
v 0.6159668 0.5749512 -0.3557129
vn 0.7441406 0.3496094 -0.5703125
vn 0.3847656 0.8964844 -0.2226563
vn 0.8652344 0.3496094 0.359375
vn 0.2871094 0.9433594 0.1660156
vn 0.1210938 0.3496094 0.9296875
vn 0 0.9648438 0.2636719
vn -0.7441406 0.3496094 0.5703125
vn -0.3847656 0.8964844 0.2226563
vn -0.8652344 0.3496094 -0.359375
vn -0.2871094 0.9433594 -0.1660156
vn -0.1210938 0.3496094 -0.9296875
vn 0 0.9648438 -0.2636719
vn 0.7441406 0.3496094 -0.5703125
vn 0.3847656 0.8964844 -0.2226563
vt 0.5444336 -0.01953125
vt 0.5249023 -0.05566406
vt 0.7231445 -0.3300781
vt 0.6831055 -0.3310547
vt 0.5444336 -0.640625
vt 0.5249023 -0.6064453
vt 0.1875 -0.640625
vt 0.2075195 -0.6064453
vt 0.008789063 -0.3300781
vt 0.04931641 -0.3310547
vt 0.1875 -0.01953125
vt 0.2075195 -0.05566406
vt 0.5444336 -0.01953125
vt 0.5249023 -0.05566406
f 1/1/1 2/2/2 3/3/3
f 2/2/2 4/4/4 3/3/3
f 3/3/3 4/4/4 5/5/5
f 4/4/4 6/6/6 5/5/5
f 5/5/5 6/6/6 7/7/7
f 6/6/6 8/8/8 7/7/7
f 7/7/7 8/8/8 9/9/9
f 8/8/8 10/10/10 9/9/9
f 9/9/9 10/10/10 11/11/11
f 10/10/10 12/12/12 11/11/11
f 11/11/11 12/12/12 13/13/13
f 12/12/12 14/14/14 13/13/13
v -0.2507324 -0.536377 -0.1230469
v -0.2263184 -0.5749512 -0.111084
v -0.2507324 -0.536377 0.1230469
v -0.2263184 -0.5749512 0.111084
v -0.09667969 -0.536377 0.2521973
v -0.08740234 -0.5749512 0.2275391
v 0.09399414 -0.536377 0.2521973
v 0.0847168 -0.5749512 0.2275391
v 0.2236328 -0.5749512 0.111084
v 0.2236328 -0.5749512 -0.111084
v 0.2480469 -0.536377 -0.1230469
vn -0.8339844 -0.2441406 -0.4941406
vn -0.6308594 -0.7167969 -0.2929688
vn -0.9160156 -0.3027344 0.265625
vn -0.3164063 -0.9238281 0.2128906
vn -0.3730469 -0.2558594 0.8925781
vn -0.125 -0.8339844 0.5371094
vn 0.3710938 -0.3378906 0.8652344
vn 0.15625 -0.8886719 0.4296875
vn 0.6308594 -0.7167969 0.2929688
vn 0.3164063 -0.9238281 -0.2128906
vn 0.8574219 -0.3046875 -0.4140625
vt 0.8608398 -0.5683594
vt 0.8413086 -0.5527344
vt 0.8608398 -0.4599609
vt 0.8413086 -0.4755859
vt 0.8056641 -0.4160156
vt 0.7983398 -0.4414063
vt 0.7368164 -0.4160156
vt 0.7451172 -0.4414063
vt 0.7021484 -0.4755859
vt 0.7021484 -0.5527344
vt 0.6816406 -0.5683594
f 15/15/15 16/16/16 17/17/17
f 16/16/16 18/18/18 17/17/17
f 17/17/17 18/18/18 19/19/19
f 18/18/18 20/20/20 19/19/19
f 19/19/19 20/20/20 21/21/21
f 20/20/20 22/22/22 21/21/21
f 21/21/21 22/22/22 23/23/23
f 22/22/22 24/24/24 23/23/23
f 23/23/23 24/24/24 25/25/25
v -0.2507324 -0.536377 -0.1230469
v -0.09667969 -0.536377 -0.2521973
v -0.2263184 -0.5749512 -0.111084
v -0.08740234 -0.5749512 -0.2275391
v -0.2263184 -0.5749512 0.111084
v 0.0847168 -0.5749512 -0.2275391
v 0.2236328 -0.5749512 -0.111084
v 0.09399414 -0.536377 -0.2521973
v 0.2480469 -0.536377 -0.1230469
vn -0.8339844 -0.2441406 -0.4941406
vn -0.3144531 -0.3925781 -0.8632813
vn -0.6308594 -0.7167969 -0.2929688
vn -0.15625 -0.8886719 -0.4296875
vn -0.3164063 -0.9238281 0.2128906
vn 0.125 -0.8339844 -0.5371094
vn 0.3164063 -0.9238281 -0.2128906
vn 0.3164063 -0.2988281 -0.9003906
vn 0.8574219 -0.3046875 -0.4140625
vt 0.8608398 -0.5683594
vt 0.8056641 -0.6132813
vt 0.8413086 -0.5527344
vt 0.7983398 -0.5869141
vt 0.8413086 -0.4755859
vt 0.7451172 -0.5869141
vt 0.7021484 -0.5527344
vt 0.7368164 -0.6132813
vt 0.6816406 -0.5683594
f 26/26/26 27/27/27 28/28/28
f 27/27/27 29/29/29 28/28/28
f 28/28/28 29/29/29 30/30/30
f 29/29/29 31/31/31 30/30/30
f 30/30/30 31/31/31 32/32/32
f 31/31/31 33/33/33 32/32/32
f 32/32/32 33/33/33 34/34/34
v -0.09667969 -0.04150391 -0.2521973
v -0.2507324 -0.536377 -0.1230469
v -0.2507324 -0.04150391 -0.1230469
v -0.2507324 -0.536377 0.1230469
v -0.2507324 -0.04150391 0.1230469
v -0.09667969 -0.536377 0.2521973
v -0.09667969 -0.04150391 0.2521973
v 0.09399414 -0.04150391 0.2521973
vn -0.3417969 0 -0.9394531
vn -0.8339844 -0.2441406 -0.4941406
vn -0.9609375 0 -0.2792969
vn -0.9160156 -0.3027344 0.265625
vn -0.8300781 0 0.5566406
vn -0.3730469 -0.2558594 0.8925781
vn -0.3417969 0 0.9394531
vn 0.2265625 0 0.9746094
vt 0.2182617 -0.7412109
vt 0.3349609 -0.9863281
vt 0.3349609 -0.7412109
vt 0.4555664 -0.9863281
vt 0.4555664 -0.7412109
vt 0.5625 -0.9863281
vt 0.5625 -0.7412109
vt 0.6708984 -0.7412109
f 35/35/35 36/36/36 37/37/37
f 36/36/36 38/38/38 37/37/37
f 37/37/37 38/38/38 39/39/39
f 38/38/38 40/40/40 39/39/39
f 39/39/39 40/40/40 41/41/41
f 40/40/40 42/42/42 41/41/41
v -0.1081543 0.3059082 -0.286377
v -0.2834473 -0.07519531 -0.1398926
v -0.2834473 0.3059082 -0.1398926
v -0.2834473 -0.07519531 0.1398926
v -0.2834473 0.3059082 0.1398926
v -0.1081543 -0.07519531 0.286377
v -0.1081543 0.3059082 0.286377
v 0.1081543 0.3059082 0.286377
vn -0.3417969 0 -0.9394531
vn -0.7792969 -0.3417969 -0.5234375
vn -0.9609375 0 -0.2792969
vn -0.5449219 -0.8242188 0.1582031
vn -0.8300781 0 0.5566406
vn -0.3007813 -0.46875 0.8300781
vn -0.3417969 0 0.9394531
vn 0.2265625 0 0.9746094
vt 0.2182617 -0.6640625
vt 0.3349609 -0.7246094
vt 0.3349609 -0.6640625
vt 0.4555664 -0.7246094
vt 0.4555664 -0.6640625
vt 0.5625 -0.7246094
vt 0.5625 -0.6640625
vt 0.6708984 -0.6640625
f 43/43/43 44/44/44 45/45/45
f 44/44/44 46/46/46 45/45/45
f 45/45/45 46/46/46 47/47/47
f 46/46/46 48/48/48 47/47/47
f 47/47/47 48/48/48 49/49/49
f 48/48/48 50/50/50 49/49/49
v -0.5852051 0.2800293 -0.3378906
v -0.5852051 0.2800293 0.3378906
v -0.6484375 0.2978516 0.3745117
v 0 0.2800293 0.6757813
v 0 0.2978516 0.7487793
v 0.5852051 0.2800293 0.3378906
v 0.6484375 0.2978516 0.3745117
v 0.6484375 0.2978516 -0.3745117
vn -0.1367188 -0.9882813 -0.078125
vn -0.1367188 -0.9882813 0.078125
vn -0.6308594 -0.734375 0.2539063
vn -0.0234375 -0.9921875 0.1191406
vn -0.08203125 -0.65625 0.75
vn 0.1367188 -0.9882813 0.078125
vn 0.6582031 -0.5273438 0.5371094
vn 0.6308594 -0.734375 -0.2539063
vt 0.6801758 -0.1708984
vt 0.7509766 -0.3017578
vt 0.7431641 -0.3154297
vt 0.8920898 -0.3017578
vt 0.8994141 -0.3154297
vt 0.9624023 -0.1708984
vt 0.9775391 -0.1708984
vt 0.8994141 -0.02539063
f 51/51/51 52/52/52 53/53/53
f 52/52/52 54/54/54 53/53/53
f 53/53/53 54/54/54 55/55/55
f 54/54/54 56/56/56 55/55/55
f 55/55/55 56/56/56 57/57/57
f 56/56/56 58/58/58 57/57/57
v -0.6484375 0.2978516 0.3745117
v -0.6484375 0.2978516 -0.3745117
v -0.5852051 0.2800293 -0.3378906
v 0 0.2978516 -0.7487793
v 0 0.2800293 -0.6757813
v 0.6484375 0.2978516 -0.3745117
v 0.5852051 0.2800293 -0.3378906
v 0.5852051 0.2800293 0.3378906
vn -0.6308594 -0.734375 0.2539063
vn -0.6582031 -0.5273438 -0.5371094
vn -0.1367188 -0.9882813 -0.078125
vn 0.08203125 -0.65625 -0.75
vn 0.0234375 -0.9921875 -0.1191406
vn 0.6308594 -0.734375 -0.2539063
vn 0.1367188 -0.9882813 -0.078125
vn 0.1367188 -0.9882813 0.078125
vt 0.7431641 -0.3154297
vt 0.6650391 -0.1708984
vt 0.6801758 -0.1708984
vt 0.7431641 -0.02539063
vt 0.7509766 -0.0390625
vt 0.8994141 -0.02539063
vt 0.8920898 -0.0390625
vt 0.9624023 -0.1708984
f 59/59/59 60/60/60 61/61/61
f 60/60/60 62/62/62 61/61/61
f 61/61/61 62/62/62 63/63/63
f 62/62/62 64/64/64 63/63/63
f 63/63/63 64/64/64 65/65/65
f 64/64/64 66/66/66 65/65/65
v 0.2480469 -0.04150391 -0.1230469
v 0.2480469 -0.536377 -0.1230469
v 0.09399414 -0.04150391 -0.2521973
v 0.09399414 -0.536377 -0.2521973
v -0.09667969 -0.04150391 -0.2521973
v -0.09667969 -0.536377 -0.2521973
v -0.2507324 -0.536377 -0.1230469
vn 0.9609375 0 -0.2792969
vn 0.8574219 -0.3046875 -0.4140625
vn 0.4511719 0 -0.8925781
vn 0.3164063 -0.2988281 -0.9003906
vn -0.3417969 0 -0.9394531
vn -0.3144531 -0.3925781 -0.8632813
vn -0.8339844 -0.2441406 -0.4941406
vt 0.01708984 -0.7412109
vt 0.01708984 -0.9863281
vt 0.1191406 -0.7412109
vt 0.1191406 -0.9863281
vt 0.2182617 -0.7412109
vt 0.2182617 -0.9863281
vt 0.3349609 -0.9863281
f 67/67/67 68/68/68 69/69/69
f 68/68/68 70/70/70 69/69/69
f 69/69/69 70/70/70 71/71/71
f 70/70/70 72/72/72 71/71/71
f 71/71/71 72/72/72 73/73/73
v 0.2834473 0.3059082 -0.1398926
v 0.2834473 -0.07519531 -0.1398926
v 0.1081543 0.3059082 -0.286377
v 0.1081543 -0.07519531 -0.286377
v -0.1081543 0.3059082 -0.286377
v -0.1081543 -0.07519531 -0.286377
v -0.2834473 -0.07519531 -0.1398926
vn 0.9609375 0 -0.2792969
vn 0.4707031 -0.8242188 -0.3164063
vn 0.4511719 0 -0.8925781
vn 0.1855469 -0.5761719 -0.796875
vn -0.3417969 0 -0.9394531
vn -0.234375 -0.7285156 -0.6445313
vn -0.7792969 -0.3417969 -0.5234375
vt 0.01708984 -0.6640625
vt 0.01708984 -0.7246094
vt 0.1191406 -0.6640625
vt 0.1191406 -0.7246094
vt 0.2182617 -0.6640625
vt 0.2182617 -0.7246094
vt 0.3349609 -0.7246094
f 74/74/74 75/75/75 76/76/76
f 75/75/75 77/77/77 76/76/76
f 76/76/76 77/77/77 78/78/78
f 77/77/77 79/79/79 78/78/78
f 78/78/78 79/79/79 80/80/80
v 0.2834473 -0.07519531 -0.1398926
v 0.2834473 0.3059082 -0.1398926
v 0.2834473 -0.07519531 0.1398926
v 0.2834473 0.3059082 0.1398926
v 0.1081543 -0.07519531 0.286377
v 0.1081543 0.3059082 0.286377
v -0.1081543 -0.07519531 0.286377
vn 0.4707031 -0.8242188 -0.3164063
vn 0.9609375 0 -0.2792969
vn 0.9023438 -0.3417969 0.2617188
vn 0.8300781 0 0.5566406
vn 0.3691406 -0.5761719 0.7285156
vn 0.2265625 0 0.9746094
vn -0.3007813 -0.46875 0.8300781
vt 0.8706055 -0.7265625
vt 0.8706055 -0.6640625
vt 0.7695313 -0.7246094
vt 0.7695313 -0.6640625
vt 0.6708984 -0.7246094
vt 0.6708984 -0.6640625
vt 0.5625 -0.7246094
f 81/81/81 82/82/82 83/83/83
f 82/82/82 84/84/84 83/83/83
f 83/83/83 84/84/84 85/85/85
f 84/84/84 86/86/86 85/85/85
f 85/85/85 86/86/86 87/87/87
v 0.2480469 -0.536377 -0.1230469
v 0.2480469 -0.04150391 -0.1230469
v 0.2480469 -0.536377 0.1230469
v 0.2480469 -0.04150391 0.1230469
v 0.09399414 -0.536377 0.2521973
v 0.09399414 -0.04150391 0.2521973
vn 0.8574219 -0.3046875 -0.4140625
vn 0.9609375 0 -0.2792969
vn 0.9160156 -0.2441406 0.3203125
vn 0.8300781 0 0.5566406
vn 0.3710938 -0.3378906 0.8652344
vn 0.2265625 0 0.9746094
vt 0.8706055 -0.9853516
vt 0.8706055 -0.7412109
vt 0.7695313 -0.9863281
vt 0.7695313 -0.7412109
vt 0.6708984 -0.9863281
vt 0.6708984 -0.7412109
f 88/88/88 89/89/89 90/90/90
f 89/89/89 91/91/91 90/90/90
f 90/90/90 91/91/91 92/92/92
f 91/91/91 93/93/93 92/92/92
v -0.5852051 0.2800293 0.3378906
v -0.5852051 0.2800293 -0.3378906
v 0 0.2800293 0.6757813
v 0 0.2800293 -0.6757813
v 0.5852051 0.2800293 0.3378906
v 0.5852051 0.2800293 -0.3378906
vn -0.1367188 -0.9882813 0.078125
vn -0.1367188 -0.9882813 -0.078125
vn -0.0234375 -0.9921875 0.1191406
vn 0.0234375 -0.9921875 -0.1191406
vn 0.1367188 -0.9882813 0.078125
vn 0.1367188 -0.9882813 -0.078125
vt 0.7680664 -0.2695313
vt 0.7148438 -0.1708984
vt 0.875 -0.2695313
vt 0.7680664 -0.07128906
vt 0.9282227 -0.1708984
vt 0.875 -0.07128906
f 94/94/94 95/95/95 96/96/96
f 95/95/95 97/97/97 96/96/96
f 96/96/96 97/97/97 98/98/98
f 97/97/97 99/99/99 98/98/98
v -0.2834473 -0.07519531 -0.1398926
v -0.1081543 -0.07519531 -0.286377
v -0.2834473 -0.07519531 0.1398926
v 0.1081543 -0.07519531 -0.286377
v 0.2834473 -0.07519531 -0.1398926
vn -0.7792969 -0.3417969 -0.5234375
vn -0.234375 -0.7285156 -0.6445313
vn -0.5449219 -0.8242188 0.1582031
vn 0.1855469 -0.5761719 -0.796875
vn 0.4707031 -0.8242188 -0.3164063
vt 0.8413086 -0.5527344
vt 0.7983398 -0.5869141
vt 0.8413086 -0.4755859
vt 0.7451172 -0.5869141
vt 0.7021484 -0.5527344
f 100/100/100 101/101/101 102/102/102
f 101/101/101 103/103/103 102/102/102
f 102/102/102 103/103/103 104/104/104
v -0.2834473 -0.07519531 0.1398926
v 0.2834473 -0.07519531 -0.1398926
v -0.1081543 -0.07519531 0.286377
v 0.1081543 -0.07519531 0.286377
vn -0.5449219 -0.8242188 0.1582031
vn 0.4707031 -0.8242188 -0.3164063
vn -0.3007813 -0.46875 0.8300781
vn 0.3691406 -0.5761719 0.7285156
vt 0.8413086 -0.4755859
vt 0.7021484 -0.5527344
vt 0.7983398 -0.4414063
vt 0.7451172 -0.4414063
f 105/105/105 106/106/106 107/107/107
f 106/106/106 108/108/108 107/107/107
v -0.6484375 0.2978516 -0.3745117
v -0.6484375 0.2978516 0.3745117
v -0.6484375 0.5432129 -0.3745117
v -0.6484375 0.5432129 0.3745117
vn -0.6582031 -0.5273438 -0.5371094
vn -0.6308594 -0.734375 0.2539063
vn -0.8652344 0.3496094 -0.359375
vn -0.7441406 0.3496094 0.5703125
vt 0.9804688 -0.5742188
vt 0.980957 -0.3330078
vt 0.9018555 -0.5742188
vt 0.9013672 -0.3330078
f 109/109/109 110/110/110 111/111/111
f 110/110/110 112/112/112 111/111/111
v 0 0.2978516 -0.7487793
v -0.6484375 0.2978516 -0.3745117
v 0 0.5432129 -0.7487793
v -0.6484375 0.5432129 -0.3745117
vn 0.08203125 -0.65625 -0.75
vn -0.6582031 -0.5273438 -0.5371094
vn -0.1210938 0.3496094 -0.9296875
vn -0.8652344 0.3496094 -0.359375
vt 0.9819336 -0.7802734
vt 0.9819336 -0.9755859
vt 0.8999023 -0.7802734
vt 0.8999023 -0.9755859
f 113/113/113 114/114/114 115/115/115
f 114/114/114 116/116/116 115/115/115
v 0.6484375 0.2978516 -0.3745117
v 0 0.2978516 -0.7487793
v 0.6484375 0.5432129 -0.3745117
v 0 0.5432129 -0.7487793
vn 0.6308594 -0.734375 -0.2539063
vn 0.08203125 -0.65625 -0.75
vn 0.7441406 0.3496094 -0.5703125
vn -0.1210938 0.3496094 -0.9296875
vt 0.9814453 -0.5761719
vt 0.9814453 -0.7792969
vt 0.9003906 -0.5761719
vt 0.9003906 -0.7792969
f 117/117/117 118/118/118 119/119/119
f 118/118/118 120/120/120 119/119/119
v 0.6484375 0.2978516 0.3745117
v 0.6484375 0.2978516 -0.3745117
v 0.6484375 0.5432129 0.3745117
v 0.6484375 0.5432129 -0.3745117
vn 0.6582031 -0.5273438 0.5371094
vn 0.6308594 -0.734375 -0.2539063
vn 0.8652344 0.3496094 0.359375
vn 0.7441406 0.3496094 -0.5703125
vt 0.9814453 -0.3310547
vt 0.980957 -0.5732422
vt 0.9008789 -0.3310547
vt 0.9013672 -0.5732422
f 121/121/121 122/122/122 123/123/123
f 122/122/122 124/124/124 123/123/123
v 0 0.2978516 0.7487793
v 0.6484375 0.2978516 0.3745117
v 0 0.5432129 0.7487793
v 0.6484375 0.5432129 0.3745117
vn -0.08203125 -0.65625 0.75
vn 0.6582031 -0.5273438 0.5371094
vn 0.1210938 0.3496094 0.9296875
vn 0.8652344 0.3496094 0.359375
vt 0.9824219 -0.9755859
vt 0.9824219 -0.7802734
vt 0.8994141 -0.9755859
vt 0.8994141 -0.7802734
f 125/125/125 126/126/126 127/127/127
f 126/126/126 128/128/128 127/127/127
v -0.6484375 0.2978516 0.3745117
v 0 0.2978516 0.7487793
v -0.6484375 0.5432129 0.3745117
v 0 0.5432129 0.7487793
vn -0.6308594 -0.734375 0.2539063
vn -0.08203125 -0.65625 0.75
vn -0.7441406 0.3496094 0.5703125
vn 0.1210938 0.3496094 0.9296875
vt 0.9814453 -0.7792969
vt 0.9814453 -0.5761719
vt 0.9003906 -0.7792969
vt 0.9003906 -0.5761719
f 129/129/129 130/130/130 131/131/131
f 130/130/130 132/132/132 131/131/131
v 0.6159668 0.5749512 -0.3557129
v 0 0.5749512 -0.7114258
v 0.6159668 0.5749512 0.3557129
v 0 0.5749512 0.7114258
vn 0.3847656 0.8964844 -0.2226563
vn 0 0.9648438 -0.2636719
vn 0.2871094 0.9433594 0.1660156
vn 0 0.9648438 0.2636719
vt 0.5249023 -0.05566406
vt 0.2075195 -0.05566406
vt 0.6831055 -0.3310547
vt 0.5249023 -0.6064453
f 133/133/133 134/134/134 135/135/135
f 134/134/134 136/136/136 135/135/135
v 0 0.5749512 -0.7114258
v -0.6159668 0.5749512 -0.3557129
v 0 0.5749512 0.7114258
v -0.6159668 0.5749512 0.3557129
vn 0 0.9648438 -0.2636719
vn -0.2871094 0.9433594 -0.1660156
vn 0 0.9648438 0.2636719
vn -0.3847656 0.8964844 0.2226563
vt 0.2075195 -0.05566406
vt 0.04931641 -0.3310547
vt 0.5249023 -0.6064453
vt 0.2075195 -0.6064453
f 137/137/137 138/138/138 139/139/139
f 138/138/138 140/140/140 139/139/139
v -0.08740234 -0.5749512 -0.2275391
v -0.09667969 -0.536377 -0.2521973
v 0.0847168 -0.5749512 -0.2275391
v 0.09399414 -0.536377 -0.2521973
vn -0.15625 -0.8886719 -0.4296875
vn -0.3144531 -0.3925781 -0.8632813
vn 0.125 -0.8339844 -0.5371094
vn 0.3164063 -0.2988281 -0.9003906
vt 0.7983398 -0.5869141
vt 0.8056641 -0.6132813
vt 0.7451172 -0.5869141
vt 0.7368164 -0.6132813
f 141/141/141 142/142/142 143/143/143
f 142/142/142 144/144/144 143/143/143
v -0.2263184 -0.5749512 0.111084
v 0.2236328 -0.5749512 -0.111084
v -0.08740234 -0.5749512 0.2275391
v 0.0847168 -0.5749512 0.2275391
vn -0.3164063 -0.9238281 0.2128906
vn 0.3164063 -0.9238281 -0.2128906
vn -0.125 -0.8339844 0.5371094
vn 0.15625 -0.8886719 0.4296875
vt 0.8413086 -0.4755859
vt 0.7021484 -0.5527344
vt 0.7983398 -0.4414063
vt 0.7451172 -0.4414063
f 145/145/145 146/146/146 147/147/147
f 146/146/146 148/148/148 147/147/147
v 0.2480469 -0.536377 -0.1230469
v 0.2480469 -0.536377 0.1230469
v 0.2236328 -0.5749512 0.111084
v 0.09399414 -0.536377 0.2521973
vn 0.8574219 -0.3046875 -0.4140625
vn 0.9160156 -0.2441406 0.3203125
vn 0.6308594 -0.7167969 0.2929688
vn 0.3710938 -0.3378906 0.8652344
vt 0.6816406 -0.5683594
vt 0.6816406 -0.4599609
vt 0.7021484 -0.4755859
vt 0.7368164 -0.4160156
f 149/149/149 150/150/150 151/151/151
f 150/150/150 152/152/152 151/151/151
v 0.09399414 -0.536377 0.2521973
v 0.09399414 -0.04150391 0.2521973
v -0.09667969 -0.536377 0.2521973
v 0.2834473 -0.07519531 -0.1398926
v 0.2834473 -0.07519531 0.1398926
v 0.1081543 -0.07519531 0.286377
vn 0.3710938 -0.3378906 0.8652344
vn 0.2265625 0 0.9746094
vn -0.3730469 -0.2558594 0.8925781
vn 0.4707031 -0.8242188 -0.3164063
vn 0.9023438 -0.3417969 0.2617188
vn 0.3691406 -0.5761719 0.7285156
vt 0.6708984 -0.9853516
vt 0.6708984 -0.7402344
vt 0.5625 -0.9853516
vt 0.7021484 -0.5527344
vt 0.7021484 -0.4755859
vt 0.7451172 -0.4414063
f 153/153/153 154/154/154 155/155/155
f 156/156/156 157/157/157 158/158/158
