# Created by MKDS Course Modifier
mtllib Mac.mtl
g polygon0
usemtl CW_MAT
v -1.67334 0.1347656 -0.003173828
v -1.641113 0.1347656 0.322998
v -1.608398 0.4311523 -0.003173828
v -1.577637 0.4311523 0.3103027
v -1.404785 0.6867676 -0.003173828
v -1.37793 0.6867676 0.2705078
v -0.9643555 0.833252 -0.003173828
v -0.9458008 0.833252 0.1845703
v -0.001708984 0.8901367 -0.003173828
v -0.8911133 0.833252 0.3652344
v -0.802002 0.833252 0.5314941
v -1.168457 0.6867676 0.7763672
v -0.9938965 0.6867676 0.9890137
v -1.137939 0.4311523 1.133057
v -0.8942871 0.4311523 1.332764
v -0.9304199 0.1347656 1.386719
v -0.6413574 0.1347656 1.541016
vn -0.9765625 0.21875 0
vn -0.9570313 0.21875 0.1894531
vn -0.9023438 0.4316406 0
vn -0.8847656 0.4316406 0.1757813
vn -0.578125 0.8164063 0
vn -0.5664063 0.8164063 0.1132813
vn -0.1933594 0.9804688 0
vn -0.1933594 0.9804688 0
vn 0 0.9980469 0
vn -0.1777344 0.9804688 0.07421875
vn -0.1777344 0.9804688 0.07421875
vn -0.4804688 0.8164063 0.3203125
vn -0.4082031 0.8164063 0.4082031
vn -0.6386719 0.4316406 0.6386719
vn -0.5019531 0.4316406 0.75
vn -0.5429688 0.21875 0.8105469
vn -0.3730469 0.21875 0.9023438
vt 0.01025391 -0.5083008
vt 0.02001953 -0.6030273
vt 0.08056641 -0.5083008
vt 0.08837891 -0.5893555
vt 0.1645508 -0.5083008
vt 0.1708984 -0.5732422
vt 0.2700195 -0.5083008
vt 0.2744141 -0.5527344
vt 0.5 -0.5083008
vt 0.2875977 -0.5957031
vt 0.3085938 -0.6347656
vt 0.2211914 -0.6933594
vt 0.2626953 -0.7436523
vt 0.2036133 -0.8027344
vt 0.2670898 -0.8544922
vt 0.2280273 -0.9121094
vt 0.3125 -0.9570313
f 1/1/1 2/2/2 3/3/3
f 2/2/2 4/4/4 3/3/3
f 3/3/3 4/4/4 5/5/5
f 4/4/4 6/6/6 5/5/5
f 5/5/5 6/6/6 7/7/7
f 6/6/6 8/8/8 7/7/7
f 7/7/7 8/8/8 9/9/9
f 8/8/8 10/10/10 9/9/9
f 9/9/9 10/10/10 11/11/11
f 10/10/10 12/12/12 11/11/11
f 11/11/11 12/12/12 13/13/13
f 12/12/12 14/14/14 13/13/13
f 13/13/13 14/14/14 15/15/15
f 14/14/14 16/16/16 15/15/15
f 15/15/15 16/16/16 17/17/17
v 1.669922 0.1347656 -0.003173828
v 1.637695 0.1347656 -0.3293457
v 1.60498 0.4311523 -0.003173828
v 1.574219 0.4311523 -0.3166504
v 1.401611 0.6867676 -0.003173828
v 1.374512 0.6867676 -0.2768555
v 0.9606934 0.833252 -0.003173828
v 0.9423828 0.833252 -0.190918
v -0.001708984 0.8901367 -0.003173828
v 0.8876953 0.833252 -0.371582
v 0.798584 0.833252 -0.5380859
v 1.165039 0.6867676 -0.7827148
v 0.9904785 0.6867676 -0.9953613
v 1.134521 0.4311523 -1.139404
v 0.8911133 0.4311523 -1.339111
v 0.927002 0.1347656 -1.393066
v 0.6379395 0.1347656 -1.547607
vn 0.9765625 0.21875 0
vn 0.9570313 0.21875 -0.1894531
vn 0.9023438 0.4316406 0
vn 0.8847656 0.4316406 -0.1757813
vn 0.578125 0.8164063 0
vn 0.5664063 0.8164063 -0.1132813
vn 0.1933594 0.9804688 0
vn 0.1933594 0.9804688 0
vn 0 0.9980469 0
vn 0.1777344 0.9804688 -0.07421875
vn 0.1777344 0.9804688 -0.07421875
vn 0.4804688 0.8164063 -0.3203125
vn 0.4082031 0.8164063 -0.4082031
vn 0.6386719 0.4316406 -0.6386719
vn 0.5019531 0.4316406 -0.75
vn 0.5429688 0.21875 -0.8105469
vn 0.3730469 0.21875 -0.9023438
vt 0.01025391 -0.5083008
vt 0.02001953 -0.6030273
vt 0.08056641 -0.5083008
vt 0.08837891 -0.5893555
vt 0.1645508 -0.5083008
vt 0.1708984 -0.5732422
vt 0.2700195 -0.5083008
vt 0.2744141 -0.5527344
vt 0.5 -0.5083008
vt 0.2875977 -0.5957031
vt 0.3085938 -0.6352539
vt 0.2211914 -0.6933594
vt 0.2626953 -0.7436523
vt 0.2036133 -0.8027344
vt 0.2670898 -0.8544922
vt 0.2280273 -0.9121094
vt 0.3125 -0.9570313
f 18/18/18 19/19/19 20/20/20
f 19/19/19 21/21/21 20/20/20
f 20/20/20 21/21/21 22/22/22
f 21/21/21 23/23/23 22/22/22
f 22/22/22 23/23/23 24/24/24
f 23/23/23 25/25/25 24/24/24
f 24/24/24 25/25/25 26/26/26
f 25/25/25 27/27/27 26/26/26
f 26/26/26 27/27/27 28/28/28
f 27/27/27 29/29/29 28/28/28
f 28/28/28 29/29/29 30/30/30
f 29/29/29 31/31/31 30/30/30
f 30/30/30 31/31/31 32/32/32
f 31/31/31 33/33/33 32/32/32
f 32/32/32 33/33/33 34/34/34
v 0.8876953 0.833252 0.3649902
v -0.001708984 0.8901367 -0.003173828
v 0.798584 0.833252 0.5314941
v 0.6789551 0.833252 0.6774902
v 1.165039 0.6867676 0.7763672
v 0.9904785 0.6867676 0.9890137
v 1.334229 0.4311523 0.8894043
v 1.134521 0.4311523 1.133057
v 1.388184 0.1347656 0.9255371
v 1.18042 0.1347656 1.178711
vn 0.1777344 0.9804688 0.07421875
vn 0 0.9980469 0
vn 0.1367188 0.9804688 0.1367188
vn 0.1367188 0.9804688 0.1367188
vn 0.4804688 0.8164063 0.3203125
vn 0.4082031 0.8164063 0.4082031
vn 0.75 0.4316406 0.5019531
vn 0.6386719 0.4316406 0.6386719
vn 0.8105469 0.21875 0.5429688
vn 0.6894531 0.21875 0.6894531
vt 0.7124023 -0.5957031
vt 0.5 -0.5083008
vt 0.6914063 -0.6352539
vt 0.6625977 -0.6699219
vt 0.7788086 -0.6933594
vt 0.7373047 -0.7436523
vt 0.8486328 -0.7392578
vt 0.7963867 -0.8027344
vt 0.9072266 -0.7783203
vt 0.8461914 -0.8520508
f 35/35/35 36/36/36 37/37/37
f 36/36/36 38/38/38 37/37/37
f 37/37/37 38/38/38 39/39/39
f 38/38/38 40/40/40 39/39/39
f 39/39/39 40/40/40 41/41/41
f 40/40/40 42/42/42 41/41/41
f 41/41/41 42/42/42 43/43/43
f 42/42/42 44/44/44 43/43/43
v -0.001708984 0.833252 -0.9658203
v -0.001708984 0.8901367 -0.003173828
v 0.1860352 0.833252 -0.9472656
v 0.3666992 0.833252 -0.8925781
v 0.2719727 0.6867676 -1.379395
v 0.5354004 0.6867676 -1.299561
v 0.3117676 0.4311523 -1.579102
v 0.6132813 0.4311523 -1.487793
v 0.3244629 0.1347656 -1.642578
v 0.6379395 0.1347656 -1.547607
vn 0 0.9804688 -0.1933594
vn 0 0.9980469 0
vn 0.07421875 0.9804688 -0.1777344
vn 0.07421875 0.9804688 -0.1777344
vn 0.1132813 0.8164063 -0.5664063
vn 0.2207031 0.8164063 -0.5332031
vn 0.1757813 0.4316406 -0.8847656
vn 0.3457031 0.4316406 -0.8339844
vn 0.1894531 0.21875 -0.9570313
vn 0.3730469 0.21875 -0.9023438
vt 0.5 -0.7368164
vt 0.5 -0.5083008
vt 0.4550781 -0.7324219
vt 0.4121094 -0.7192383
vt 0.4345703 -0.8349609
vt 0.371582 -0.815918
vt 0.4179688 -0.9165039
vt 0.3393555 -0.8930664
vt 0.4042969 -0.9848633
vt 0.3125 -0.9570313
f 45/45/45 46/46/46 47/47/47
f 46/46/46 48/48/48 47/47/47
f 47/47/47 48/48/48 49/49/49
f 48/48/48 50/50/50 49/49/49
f 49/49/49 50/50/50 51/51/51
f 50/50/50 52/52/52 51/51/51
f 51/51/51 52/52/52 53/53/53
f 52/52/52 54/54/54 53/53/53
v -0.3701172 0.833252 -0.8925781
v -0.001708984 0.8901367 -0.003173828
v -0.1894531 0.833252 -0.9472656
v -0.001708984 0.833252 -0.9658203
v -0.2753906 0.6867676 -1.379395
v -0.001708984 0.6867676 -1.406494
v -0.3151855 0.4311523 -1.579102
v -0.001708984 0.4311523 -1.610107
v -0.3278809 0.1347656 -1.642578
v -0.001708984 0.1347656 -1.674805
vn -0.07421875 0.9804688 -0.1777344
vn 0 0.9980469 0
vn 0 0.9804688 -0.1933594
vn 0 0.9804688 -0.1933594
vn -0.1132813 0.8164063 -0.5664063
vn 0 0.8164063 -0.578125
vn -0.1757813 0.4316406 -0.8847656
vn 0 0.4316406 -0.9023438
vn -0.1894531 0.21875 -0.9570313
vn 0 0.21875 -0.9765625
vt 0.5878906 -0.7192383
vt 0.5 -0.5083008
vt 0.5449219 -0.7324219
vt 0.5 -0.7368164
vt 0.5654297 -0.8349609
vt 0.5 -0.8413086
vt 0.5820313 -0.9165039
vt 0.5 -0.9248047
vt 0.5957031 -0.9848633
vt 0.5 -0.9941406
f 55/55/55 56/56/56 57/57/57
f 56/56/56 58/58/58 57/57/57
f 57/57/57 58/58/58 59/59/59
f 58/58/58 60/60/60 59/59/59
f 59/59/59 60/60/60 61/61/61
f 60/60/60 62/62/62 61/61/61
f 61/61/61 62/62/62 63/63/63
f 62/62/62 64/64/64 63/63/63
v -0.682373 0.833252 -0.6838379
v -0.001708984 0.8901367 -0.003173828
v -0.5366211 0.833252 -0.8034668
v -0.3701172 0.833252 -0.8925781
v -0.78125 0.6867676 -1.169922
v -0.5388184 0.6867676 -1.299561
v -0.8942871 0.4311523 -1.339111
v -0.6166992 0.4311523 -1.487793
v -0.9304199 0.1347656 -1.393066
v -0.6413574 0.1347656 -1.547607
vn -0.1367188 0.9804688 -0.1367188
vn 0 0.9980469 0
vn -0.07421875 0.9804688 -0.1777344
vn -0.07421875 0.9804688 -0.1777344
vn -0.3203125 0.8164063 -0.4804688
vn -0.2207031 0.8164063 -0.5332031
vn -0.5019531 0.4316406 -0.75
vn -0.3457031 0.4316406 -0.8339844
vn -0.5429688 0.21875 -0.8105469
vn -0.3730469 0.21875 -0.9023438
vt 0.6625977 -0.6699219
vt 0.5 -0.5083008
vt 0.6279297 -0.6982422
vt 0.5878906 -0.7192383
vt 0.6865234 -0.7851563
vt 0.628418 -0.815918
vt 0.7329102 -0.8544922
vt 0.6606445 -0.8930664
vt 0.7719727 -0.9121094
vt 0.6875 -0.9570313
f 65/65/65 66/66/66 67/67/67
f 66/66/66 68/68/68 67/67/67
f 67/67/67 68/68/68 69/69/69
f 68/68/68 70/70/70 69/69/69
f 69/69/69 70/70/70 71/71/71
f 70/70/70 72/72/72 71/71/71
f 71/71/71 72/72/72 73/73/73
f 72/72/72 74/74/74 73/73/73
v -0.8911133 0.833252 -0.371582
v -0.001708984 0.8901367 -0.003173828
v -0.802002 0.833252 -0.5380859
v -0.682373 0.833252 -0.6838379
v -1.168457 0.6867676 -0.7827148
v -0.9938965 0.6867676 -0.9953613
v -1.337646 0.4311523 -0.8959961
v -1.137939 0.4311523 -1.139404
v -1.391602 0.1347656 -0.9318848
v -1.183594 0.1347656 -1.185303
vn -0.1777344 0.9804688 -0.07421875
vn 0 0.9980469 0
vn -0.1367188 0.9804688 -0.1367188
vn -0.1367188 0.9804688 -0.1367188
vn -0.4804688 0.8164063 -0.3203125
vn -0.4082031 0.8164063 -0.4082031
vn -0.75 0.4316406 -0.5019531
vn -0.6386719 0.4316406 -0.6386719
vn -0.8105469 0.21875 -0.5429688
vn -0.6894531 0.21875 -0.6894531
vt 0.7124023 -0.5957031
vt 0.5 -0.5083008
vt 0.6914063 -0.6352539
vt 0.6625977 -0.6699219
vt 0.7788086 -0.6933594
vt 0.7373047 -0.7436523
vt 0.8486328 -0.7392578
vt 0.7963867 -0.8027344
vt 0.9072266 -0.7783203
vt 0.8461914 -0.8520508
f 75/75/75 76/76/76 77/77/77
f 76/76/76 78/78/78 77/77/77
f 77/77/77 78/78/78 79/79/79
f 78/78/78 80/80/80 79/79/79
f 79/79/79 80/80/80 81/81/81
f 80/80/80 82/82/82 81/81/81
f 81/81/81 82/82/82 83/83/83
f 82/82/82 84/84/84 83/83/83
v -0.9643555 0.833252 -0.003173828
v -0.001708984 0.8901367 -0.003173828
v -0.9458008 0.833252 -0.190918
v -0.8911133 0.833252 -0.371582
v -1.37793 0.6867676 -0.2768555
v -1.298096 0.6867676 -0.5402832
v -1.577637 0.4311523 -0.3166504
v -1.486084 0.4311523 -0.6181641
v -1.641113 0.1347656 -0.3293457
v -1.546143 0.1347656 -0.6428223
vn -0.1933594 0.9804688 0
vn 0 0.9980469 0
vn -0.1777344 0.9804688 -0.07421875
vn -0.1777344 0.9804688 -0.07421875
vn -0.5664063 0.8164063 -0.1132813
vn -0.5332031 0.8164063 -0.2207031
vn -0.8847656 0.4316406 -0.1757813
vn -0.8339844 0.4316406 -0.3457031
vn -0.9570313 0.21875 -0.1894531
vn -0.9023438 0.21875 -0.3730469
vt 0.7299805 -0.5083008
vt 0.5 -0.5083008
vt 0.7255859 -0.5527344
vt 0.7124023 -0.5957031
vt 0.8291016 -0.5732422
vt 0.8100586 -0.6357422
vt 0.9116211 -0.5893555
vt 0.8876953 -0.6674805
vt 0.9799805 -0.6030273
vt 0.9521484 -0.6943359
f 85/85/85 86/86/86 87/87/87
f 86/86/86 88/88/88 87/87/87
f 87/87/87 88/88/88 89/89/89
f 88/88/88 90/90/90 89/89/89
f 89/89/89 90/90/90 91/91/91
f 90/90/90 92/92/92 91/91/91
f 91/91/91 92/92/92 93/93/93
f 92/92/92 94/94/94 93/93/93
v 0.9606934 0.833252 -0.003173828
v -0.001708984 0.8901367 -0.003173828
v 0.9423828 0.833252 0.1845703
v 0.8876953 0.833252 0.3649902
v 1.374512 0.6867676 0.2705078
v 1.294678 0.6867676 0.5336914
v 1.574219 0.4311523 0.3103027
v 1.48291 0.4311523 0.6118164
v 1.637695 0.1347656 0.322998
v 1.54248 0.1347656 0.6364746
vn 0.1933594 0.9804688 0
vn 0 0.9980469 0
vn 0.1933594 0.9804688 0
vn 0.1777344 0.9804688 0.07421875
vn 0.5664063 0.8164063 0.1132813
vn 0.5332031 0.8164063 0.2207031
vn 0.8847656 0.4316406 0.1757813
vn 0.8339844 0.4316406 0.3457031
vn 0.9570313 0.21875 0.1894531
vn 0.9023438 0.21875 0.3730469
vt 0.7299805 -0.5083008
vt 0.5 -0.5083008
vt 0.7255859 -0.5527344
vt 0.7124023 -0.5957031
vt 0.8291016 -0.5732422
vt 0.8100586 -0.6357422
vt 0.9116211 -0.5893555
vt 0.8876953 -0.6674805
vt 0.9799805 -0.6030273
vt 0.9521484 -0.6943359
f 95/95/95 96/96/96 97/97/97
f 96/96/96 98/98/98 97/97/97
f 97/97/97 98/98/98 99/99/99
f 98/98/98 100/100/100 99/99/99
f 99/99/99 100/100/100 101/101/101
f 100/100/100 102/102/102 101/101/101
f 101/101/101 102/102/102 103/103/103
f 102/102/102 104/104/104 103/103/103
v -0.001708984 0.833252 0.9594727
v -0.001708984 0.8901367 -0.003173828
v -0.1894531 0.833252 0.940918
v -0.3701172 0.833252 0.8859863
v -0.2753906 0.6867676 1.373047
v -0.5388184 0.6867676 1.293213
v -0.3151855 0.4311523 1.572754
v -0.6166992 0.4311523 1.481201
v -0.3278809 0.1347656 1.63623
v -0.6413574 0.1347656 1.541016
vn 0 0.9804688 0.1933594
vn 0 0.9980469 0
vn -0.07421875 0.9804688 0.1777344
vn -0.07421875 0.9804688 0.1777344
vn -0.1132813 0.8164063 0.5664063
vn -0.2207031 0.8164063 0.5332031
vn -0.1757813 0.4316406 0.8847656
vn -0.3457031 0.4316406 0.8339844
vn -0.1894531 0.21875 0.9570313
vn -0.3730469 0.21875 0.9023438
vt 0.5 -0.7368164
vt 0.5 -0.5083008
vt 0.4550781 -0.7324219
vt 0.4121094 -0.7192383
vt 0.4345703 -0.8349609
vt 0.371582 -0.815918
vt 0.4179688 -0.9165039
vt 0.3393555 -0.8930664
vt 0.4042969 -0.9848633
vt 0.3125 -0.9570313
f 105/105/105 106/106/106 107/107/107
f 106/106/106 108/108/108 107/107/107
f 107/107/107 108/108/108 109/109/109
f 108/108/108 110/110/110 109/109/109
f 109/109/109 110/110/110 111/111/111
f 110/110/110 112/112/112 111/111/111
f 111/111/111 112/112/112 113/113/113
f 112/112/112 114/114/114 113/113/113
v 0.3666992 0.833252 0.8859863
v -0.001708984 0.8901367 -0.003173828
v 0.1860352 0.833252 0.940918
v -0.001708984 0.833252 0.9594727
v 0.2719727 0.6867676 1.373047
v -0.001708984 0.6867676 1.399902
v 0.3117676 0.4311523 1.572754
v -0.001708984 0.4311523 1.603516
v 0.3244629 0.1347656 1.63623
v -0.001708984 0.1347656 1.668457
vn 0.07421875 0.9804688 0.1777344
vn 0 0.9980469 0
vn 0 0.9804688 0.1933594
vn 0 0.9804688 0.1933594
vn 0.1132813 0.8164063 0.5664063
vn 0 0.8164063 0.578125
vn 0.1757813 0.4316406 0.8847656
vn 0 0.4316406 0.9023438
vn 0.1894531 0.21875 0.9570313
vn 0 0.21875 0.9765625
vt 0.5878906 -0.7192383
vt 0.5 -0.5083008
vt 0.5449219 -0.7324219
vt 0.5 -0.7368164
vt 0.5654297 -0.8349609
vt 0.5 -0.8413086
vt 0.5820313 -0.9165039
vt 0.5 -0.9248047
vt 0.5957031 -0.9848633
vt 0.5 -0.9941406
f 115/115/115 116/116/116 117/117/117
f 116/116/116 118/118/118 117/117/117
f 117/117/117 118/118/118 119/119/119
f 118/118/118 120/120/120 119/119/119
f 119/119/119 120/120/120 121/121/121
f 120/120/120 122/122/122 121/121/121
f 121/121/121 122/122/122 123/123/123
f 122/122/122 124/124/124 123/123/123
v 0.6789551 0.833252 0.6774902
v -0.001708984 0.8901367 -0.003173828
v 0.5332031 0.833252 0.7971191
v 0.3666992 0.833252 0.8859863
v 0.777832 0.6867676 1.163574
v 0.5354004 0.6867676 1.293213
v 0.8911133 0.4311523 1.332764
v 0.6132813 0.4311523 1.481201
v 0.927002 0.1347656 1.386719
v 0.6379395 0.1347656 1.541016
vn 0.1367188 0.9804688 0.1367188
vn 0 0.9980469 0
vn 0.07421875 0.9804688 0.1777344
vn 0.07421875 0.9804688 0.1777344
vn 0.3203125 0.8164063 0.4804688
vn 0.2207031 0.8164063 0.5332031
vn 0.5019531 0.4316406 0.75
vn 0.3457031 0.4316406 0.8339844
vn 0.5429688 0.21875 0.8105469
vn 0.3730469 0.21875 0.9023438
vt 0.6625977 -0.6699219
vt 0.5 -0.5083008
vt 0.6279297 -0.6982422
vt 0.5878906 -0.7192383
vt 0.6865234 -0.7851563
vt 0.628418 -0.815918
vt 0.7329102 -0.8544922
vt 0.6606445 -0.8930664
vt 0.7719727 -0.9121094
vt 0.6875 -0.9570313
f 125/125/125 126/126/126 127/127/127
f 126/126/126 128/128/128 127/127/127
f 127/127/127 128/128/128 129/129/129
f 128/128/128 130/130/130 129/129/129
f 129/129/129 130/130/130 131/131/131
f 130/130/130 132/132/132 131/131/131
f 131/131/131 132/132/132 133/133/133
f 132/132/132 134/134/134 133/133/133
v -0.9304199 0.1347656 1.386719
v -1.137939 0.4311523 1.133057
v -1.183594 0.1347656 1.178711
v -1.337646 0.4311523 0.8894043
v -1.391602 0.1347656 0.9255371
v -1.486084 0.4311523 0.6118164
v -1.546143 0.1347656 0.6364746
v -1.577637 0.4311523 0.3103027
v -1.641113 0.1347656 0.322998
vn -0.5429688 0.21875 0.8105469
vn -0.6386719 0.4316406 0.6386719
vn -0.6894531 0.21875 0.6894531
vn -0.75 0.4316406 0.5019531
vn -0.8105469 0.21875 0.5429688
vn -0.8339844 0.4316406 0.3457031
vn -0.9023438 0.21875 0.3730469
vn -0.8847656 0.4316406 0.1757813
vn -0.9570313 0.21875 0.1894531
vt 0.2280273 -0.9121094
vt 0.2036133 -0.8027344
vt 0.1538086 -0.8520508
vt 0.1513672 -0.7392578
vt 0.09277344 -0.7783203
vt 0.1123047 -0.6674805
vt 0.04785156 -0.6943359
vt 0.08837891 -0.5893555
vt 0.02001953 -0.6030273
f 135/135/135 136/136/136 137/137/137
f 136/136/136 138/138/138 137/137/137
f 137/137/137 138/138/138 139/139/139
f 138/138/138 140/140/140 139/139/139
f 139/139/139 140/140/140 141/141/141
f 140/140/140 142/142/142 141/141/141
f 141/141/141 142/142/142 143/143/143
v 0.927002 0.1347656 -1.393066
v 1.134521 0.4311523 -1.139404
v 1.18042 0.1347656 -1.185303
v 1.334229 0.4311523 -0.8959961
v 1.388184 0.1347656 -0.9318848
v 1.48291 0.4311523 -0.6181641
v 1.54248 0.1347656 -0.6428223
v 1.574219 0.4311523 -0.3166504
v 1.637695 0.1347656 -0.3293457
vn 0.5429688 0.21875 -0.8105469
vn 0.6386719 0.4316406 -0.6386719
vn 0.6894531 0.21875 -0.6894531
vn 0.75 0.4316406 -0.5019531
vn 0.8105469 0.21875 -0.5429688
vn 0.8339844 0.4316406 -0.3457031
vn 0.9023438 0.21875 -0.3730469
vn 0.8847656 0.4316406 -0.1757813
vn 0.9570313 0.21875 -0.1894531
vt 0.2280273 -0.9121094
vt 0.2036133 -0.8027344
vt 0.1538086 -0.8520508
vt 0.1513672 -0.7392578
vt 0.09277344 -0.7783203
vt 0.1123047 -0.6674805
vt 0.04785156 -0.6943359
vt 0.08837891 -0.5893555
vt 0.02001953 -0.6030273
f 144/144/144 145/145/145 146/146/146
f 145/145/145 147/147/147 146/146/146
f 146/146/146 147/147/147 148/148/148
f 147/147/147 149/149/149 148/148/148
f 148/148/148 149/149/149 150/150/150
f 149/149/149 151/151/151 150/150/150
f 150/150/150 151/151/151 152/152/152
v 0.8876953 0.833252 0.3649902
v 0.798584 0.833252 0.5314941
v 1.294678 0.6867676 0.5336914
v 1.165039 0.6867676 0.7763672
v 1.48291 0.4311523 0.6118164
v 1.334229 0.4311523 0.8894043
v 1.54248 0.1347656 0.6364746
v 1.388184 0.1347656 0.9255371
vn 0.1777344 0.9804688 0.07421875
vn 0.1367188 0.9804688 0.1367188
vn 0.5332031 0.8164063 0.2207031
vn 0.4804688 0.8164063 0.3203125
vn 0.8339844 0.4316406 0.3457031
vn 0.75 0.4316406 0.5019531
vn 0.9023438 0.21875 0.3730469
vn 0.8105469 0.21875 0.5429688
vt 0.7124023 -0.5957031
vt 0.6914063 -0.6352539
vt 0.8100586 -0.6357422
vt 0.7788086 -0.6933594
vt 0.8876953 -0.6674805
vt 0.8486328 -0.7392578
vt 0.9521484 -0.6943359
vt 0.9072266 -0.7783203
f 153/153/153 154/154/154 155/155/155
f 154/154/154 156/156/156 155/155/155
f 155/155/155 156/156/156 157/157/157
f 156/156/156 158/158/158 157/157/157
f 157/157/157 158/158/158 159/159/159
f 158/158/158 160/160/160 159/159/159
v 0.6789551 0.833252 0.6774902
v 0.5332031 0.833252 0.7971191
v 0.9904785 0.6867676 0.9890137
v 0.777832 0.6867676 1.163574
v 1.134521 0.4311523 1.133057
v 0.8911133 0.4311523 1.332764
v 1.18042 0.1347656 1.178711
v 0.927002 0.1347656 1.386719
vn 0.1367188 0.9804688 0.1367188
vn 0.07421875 0.9804688 0.1777344
vn 0.4082031 0.8164063 0.4082031
vn 0.3203125 0.8164063 0.4804688
vn 0.6386719 0.4316406 0.6386719
vn 0.5019531 0.4316406 0.75
vn 0.6894531 0.21875 0.6894531
vn 0.5429688 0.21875 0.8105469
vt 0.6625977 -0.6699219
vt 0.6279297 -0.6982422
vt 0.7373047 -0.7436523
vt 0.6865234 -0.7851563
vt 0.7963867 -0.8027344
vt 0.7329102 -0.8544922
vt 0.8461914 -0.8520508
vt 0.7719727 -0.9121094
f 161/161/161 162/162/162 163/163/163
f 162/162/162 164/164/164 163/163/163
f 163/163/163 164/164/164 165/165/165
f 164/164/164 166/166/166 165/165/165
f 165/165/165 166/166/166 167/167/167
f 166/166/166 168/168/168 167/167/167
v -0.001708984 0.833252 0.9594727
v -0.1894531 0.833252 0.940918
v -0.001708984 0.6867676 1.399902
v -0.2753906 0.6867676 1.373047
v -0.001708984 0.4311523 1.603516
v -0.3151855 0.4311523 1.572754
v -0.001708984 0.1347656 1.668457
v -0.3278809 0.1347656 1.63623
vn 0 0.9804688 0.1933594
vn -0.07421875 0.9804688 0.1777344
vn 0 0.8164063 0.578125
vn -0.1132813 0.8164063 0.5664063
vn 0 0.4316406 0.9023438
vn -0.1757813 0.4316406 0.8847656
vn 0 0.21875 0.9765625
vn -0.1894531 0.21875 0.9570313
vt 0.5 -0.7368164
vt 0.4550781 -0.7324219
vt 0.5 -0.8413086
vt 0.4345703 -0.8349609
vt 0.5 -0.9248047
vt 0.4179688 -0.9165039
vt 0.5 -0.9941406
vt 0.4042969 -0.9848633
f 169/169/169 170/170/170 171/171/171
f 170/170/170 172/172/172 171/171/171
f 171/171/171 172/172/172 173/173/173
f 172/172/172 174/174/174 173/173/173
f 173/173/173 174/174/174 175/175/175
f 174/174/174 176/176/176 175/175/175
v -0.6413574 0.1347656 1.541016
v -0.6166992 0.4311523 1.481201
v -0.8942871 0.4311523 1.332764
v -0.78125 0.6867676 1.163574
v -0.9938965 0.6867676 0.9890137
v -0.682373 0.833252 0.6774902
v -0.802002 0.833252 0.5314941
v -0.001708984 0.8901367 -0.003173828
vn -0.3730469 0.21875 0.9023438
vn -0.3457031 0.4316406 0.8339844
vn -0.5019531 0.4316406 0.75
vn -0.3203125 0.8164063 0.4804688
vn -0.4082031 0.8164063 0.4082031
vn -0.1367188 0.9804688 0.1367188
vn -0.1777344 0.9804688 0.07421875
vn 0 0.9980469 0
vt 0.3125 -0.9570313
vt 0.3393555 -0.8930664
vt 0.2670898 -0.8544922
vt 0.3134766 -0.7851563
vt 0.2626953 -0.7436523
vt 0.3374023 -0.6699219
vt 0.3085938 -0.6347656
vt 0.5 -0.5083008
f 177/177/177 178/178/178 179/179/179
f 178/178/178 180/180/180 179/179/179
f 179/179/179 180/180/180 181/181/181
f 180/180/180 182/182/182 181/181/181
f 181/181/181 182/182/182 183/183/183
f 182/182/182 184/184/184 183/183/183
v -0.9643555 0.833252 -0.003173828
v -0.9458008 0.833252 -0.190918
v -1.404785 0.6867676 -0.003173828
v -1.37793 0.6867676 -0.2768555
v -1.608398 0.4311523 -0.003173828
v -1.577637 0.4311523 -0.3166504
v -1.67334 0.1347656 -0.003173828
v -1.641113 0.1347656 -0.3293457
vn -0.1933594 0.9804688 0
vn -0.1777344 0.9804688 -0.07421875
vn -0.578125 0.8164063 0
vn -0.5664063 0.8164063 -0.1132813
vn -0.9023438 0.4316406 0
vn -0.8847656 0.4316406 -0.1757813
vn -0.9765625 0.21875 0
vn -0.9570313 0.21875 -0.1894531
vt 0.7299805 -0.5083008
vt 0.7255859 -0.5527344
vt 0.8354492 -0.5083008
vt 0.8291016 -0.5732422
vt 0.9194336 -0.5083008
vt 0.9116211 -0.5893555
vt 0.9897461 -0.5083008
vt 0.9799805 -0.6030273
f 185/185/185 186/186/186 187/187/187
f 186/186/186 188/188/188 187/187/187
f 187/187/187 188/188/188 189/189/189
f 188/188/188 190/190/190 189/189/189
f 189/189/189 190/190/190 191/191/191
f 190/190/190 192/192/192 191/191/191
v -0.8911133 0.833252 -0.371582
v -0.802002 0.833252 -0.5380859
v -1.298096 0.6867676 -0.5402832
v -1.168457 0.6867676 -0.7827148
v -1.486084 0.4311523 -0.6181641
v -1.337646 0.4311523 -0.8959961
v -1.546143 0.1347656 -0.6428223
v -1.391602 0.1347656 -0.9318848
vn -0.1777344 0.9804688 -0.07421875
vn -0.1367188 0.9804688 -0.1367188
vn -0.5332031 0.8164063 -0.2207031
vn -0.4804688 0.8164063 -0.3203125
vn -0.8339844 0.4316406 -0.3457031
vn -0.75 0.4316406 -0.5019531
vn -0.9023438 0.21875 -0.3730469
vn -0.8105469 0.21875 -0.5429688
vt 0.7124023 -0.5957031
vt 0.6914063 -0.6352539
vt 0.8100586 -0.6357422
vt 0.7788086 -0.6933594
vt 0.8876953 -0.6674805
vt 0.8486328 -0.7392578
vt 0.9521484 -0.6943359
vt 0.9072266 -0.7783203
f 193/193/193 194/194/194 195/195/195
f 194/194/194 196/196/196 195/195/195
f 195/195/195 196/196/196 197/197/197
f 196/196/196 198/198/198 197/197/197
f 197/197/197 198/198/198 199/199/199
f 198/198/198 200/200/200 199/199/199
v -0.682373 0.833252 -0.6838379
v -0.5366211 0.833252 -0.8034668
v -0.9938965 0.6867676 -0.9953613
v -0.78125 0.6867676 -1.169922
v -1.137939 0.4311523 -1.139404
v -0.8942871 0.4311523 -1.339111
v -1.183594 0.1347656 -1.185303
v -0.9304199 0.1347656 -1.393066
vn -0.1367188 0.9804688 -0.1367188
vn -0.07421875 0.9804688 -0.1777344
vn -0.4082031 0.8164063 -0.4082031
vn -0.3203125 0.8164063 -0.4804688
vn -0.6386719 0.4316406 -0.6386719
vn -0.5019531 0.4316406 -0.75
vn -0.6894531 0.21875 -0.6894531
vn -0.5429688 0.21875 -0.8105469
vt 0.6625977 -0.6699219
vt 0.6279297 -0.6982422
vt 0.7373047 -0.7436523
vt 0.6865234 -0.7851563
vt 0.7963867 -0.8027344
vt 0.7329102 -0.8544922
vt 0.8461914 -0.8520508
vt 0.7719727 -0.9121094
f 201/201/201 202/202/202 203/203/203
f 202/202/202 204/204/204 203/203/203
f 203/203/203 204/204/204 205/205/205
f 204/204/204 206/206/206 205/205/205
f 205/205/205 206/206/206 207/207/207
f 206/206/206 208/208/208 207/207/207
v -0.3701172 0.833252 -0.8925781
v -0.1894531 0.833252 -0.9472656
v -0.5388184 0.6867676 -1.299561
v -0.2753906 0.6867676 -1.379395
v -0.6166992 0.4311523 -1.487793
v -0.3151855 0.4311523 -1.579102
v -0.6413574 0.1347656 -1.547607
v -0.3278809 0.1347656 -1.642578
vn -0.07421875 0.9804688 -0.1777344
vn 0 0.9804688 -0.1933594
vn -0.2207031 0.8164063 -0.5332031
vn -0.1132813 0.8164063 -0.5664063
vn -0.3457031 0.4316406 -0.8339844
vn -0.1757813 0.4316406 -0.8847656
vn -0.3730469 0.21875 -0.9023438
vn -0.1894531 0.21875 -0.9570313
vt 0.5878906 -0.7192383
vt 0.5449219 -0.7324219
vt 0.628418 -0.815918
vt 0.5654297 -0.8349609
vt 0.6606445 -0.8930664
vt 0.5820313 -0.9165039
vt 0.6875 -0.9570313
vt 0.5957031 -0.9848633
f 209/209/209 210/210/210 211/211/211
f 210/210/210 212/212/212 211/211/211
f 211/211/211 212/212/212 213/213/213
f 212/212/212 214/214/214 213/213/213
f 213/213/213 214/214/214 215/215/215
f 214/214/214 216/216/216 215/215/215
v -0.001708984 0.833252 -0.9658203
v 0.1860352 0.833252 -0.9472656
v -0.001708984 0.6867676 -1.406494
v 0.2719727 0.6867676 -1.379395
v -0.001708984 0.4311523 -1.610107
v 0.3117676 0.4311523 -1.579102
v -0.001708984 0.1347656 -1.674805
v 0.3244629 0.1347656 -1.642578
vn 0 0.9804688 -0.1933594
vn 0.07421875 0.9804688 -0.1777344
vn 0 0.8164063 -0.578125
vn 0.1132813 0.8164063 -0.5664063
vn 0 0.4316406 -0.9023438
vn 0.1757813 0.4316406 -0.8847656
vn 0 0.21875 -0.9765625
vn 0.1894531 0.21875 -0.9570313
vt 0.5 -0.7368164
vt 0.4550781 -0.7324219
vt 0.5 -0.8413086
vt 0.4345703 -0.8349609
vt 0.5 -0.9248047
vt 0.4179688 -0.9165039
vt 0.5 -0.9941406
vt 0.4042969 -0.9848633
f 217/217/217 218/218/218 219/219/219
f 218/218/218 220/220/220 219/219/219
f 219/219/219 220/220/220 221/221/221
f 220/220/220 222/222/222 221/221/221
f 221/221/221 222/222/222 223/223/223
f 222/222/222 224/224/224 223/223/223
v 0.6379395 0.1347656 -1.547607
v 0.6132813 0.4311523 -1.487793
v 0.8911133 0.4311523 -1.339111
v 0.777832 0.6867676 -1.169922
v 0.9904785 0.6867676 -0.9953613
v 0.6789551 0.833252 -0.6838379
v 0.798584 0.833252 -0.5380859
v -0.001708984 0.8901367 -0.003173828
vn 0.3730469 0.21875 -0.9023438
vn 0.3457031 0.4316406 -0.8339844
vn 0.5019531 0.4316406 -0.75
vn 0.3203125 0.8164063 -0.4804688
vn 0.4082031 0.8164063 -0.4082031
vn 0.1367188 0.9804688 -0.1367188
vn 0.1777344 0.9804688 -0.07421875
vn 0 0.9980469 0
vt 0.3125 -0.9570313
vt 0.3393555 -0.8930664
vt 0.2670898 -0.8544922
vt 0.3134766 -0.7851563
vt 0.2626953 -0.7436523
vt 0.3374023 -0.6699219
vt 0.3085938 -0.6352539
vt 0.5 -0.5083008
f 225/225/225 226/226/226 227/227/227
f 226/226/226 228/228/228 227/227/227
f 227/227/227 228/228/228 229/229/229
f 228/228/228 230/230/230 229/229/229
f 229/229/229 230/230/230 231/231/231
f 230/230/230 232/232/232 231/231/231
v 0.9606934 0.833252 -0.003173828
v 0.9423828 0.833252 0.1845703
v 1.401611 0.6867676 -0.003173828
v 1.374512 0.6867676 0.2705078
v 1.60498 0.4311523 -0.003173828
v 1.574219 0.4311523 0.3103027
v 1.669922 0.1347656 -0.003173828
v 1.637695 0.1347656 0.322998
vn 0.1933594 0.9804688 0
vn 0.1933594 0.9804688 0
vn 0.578125 0.8164063 0
vn 0.5664063 0.8164063 0.1132813
vn 0.9023438 0.4316406 0
vn 0.8847656 0.4316406 0.1757813
vn 0.9765625 0.21875 0
vn 0.9570313 0.21875 0.1894531
vt 0.7299805 -0.5083008
vt 0.7255859 -0.5527344
vt 0.8354492 -0.5083008
vt 0.8291016 -0.5732422
vt 0.9194336 -0.5083008
vt 0.9116211 -0.5893555
vt 0.9897461 -0.5083008
vt 0.9799805 -0.6030273
f 233/233/233 234/234/234 235/235/235
f 234/234/234 236/236/236 235/235/235
f 235/235/235 236/236/236 237/237/237
f 236/236/236 238/238/238 237/237/237
f 237/237/237 238/238/238 239/239/239
f 238/238/238 240/240/240 239/239/239
v 0.3666992 0.833252 0.8859863
v 0.1860352 0.833252 0.940918
v 0.5354004 0.6867676 1.293213
v 0.2719727 0.6867676 1.373047
v 0.6132813 0.4311523 1.481201
v 0.3117676 0.4311523 1.572754
v 0.6379395 0.1347656 1.541016
v 0.3244629 0.1347656 1.63623
vn 0.07421875 0.9804688 0.1777344
vn 0 0.9804688 0.1933594
vn 0.2207031 0.8164063 0.5332031
vn 0.1132813 0.8164063 0.5664063
vn 0.3457031 0.4316406 0.8339844
vn 0.1757813 0.4316406 0.8847656
vn 0.3730469 0.21875 0.9023438
vn 0.1894531 0.21875 0.9570313
vt 0.5878906 -0.7192383
vt 0.5449219 -0.7324219
vt 0.628418 -0.815918
vt 0.5654297 -0.8349609
vt 0.6606445 -0.8930664
vt 0.5820313 -0.9165039
vt 0.6875 -0.9570313
vt 0.5957031 -0.9848633
f 241/241/241 242/242/242 243/243/243
f 242/242/242 244/244/244 243/243/243
f 243/243/243 244/244/244 245/245/245
f 244/244/244 246/246/246 245/245/245
f 245/245/245 246/246/246 247/247/247
f 246/246/246 248/248/248 247/247/247
v -1.137939 0.4311523 1.133057
v -1.168457 0.6867676 0.7763672
v -1.337646 0.4311523 0.8894043
v -1.298096 0.6867676 0.5336914
v -1.486084 0.4311523 0.6118164
v -1.37793 0.6867676 0.2705078
v -1.577637 0.4311523 0.3103027
vn -0.6386719 0.4316406 0.6386719
vn -0.4804688 0.8164063 0.3203125
vn -0.75 0.4316406 0.5019531
vn -0.5332031 0.8164063 0.2207031
vn -0.8339844 0.4316406 0.3457031
vn -0.5664063 0.8164063 0.1132813
vn -0.8847656 0.4316406 0.1757813
vt 0.2036133 -0.8027344
vt 0.2211914 -0.6933594
vt 0.1513672 -0.7392578
vt 0.1899414 -0.6357422
vt 0.1123047 -0.6674805
vt 0.1708984 -0.5732422
vt 0.08837891 -0.5893555
f 249/249/249 250/250/250 251/251/251
f 250/250/250 252/252/252 251/251/251
f 251/251/251 252/252/252 253/253/253
f 252/252/252 254/254/254 253/253/253
f 253/253/253 254/254/254 255/255/255
v 1.134521 0.4311523 -1.139404
v 1.165039 0.6867676 -0.7827148
v 1.334229 0.4311523 -0.8959961
v 1.294678 0.6867676 -0.5402832
v 1.48291 0.4311523 -0.6181641
v 1.374512 0.6867676 -0.2768555
v 1.574219 0.4311523 -0.3166504
vn 0.6386719 0.4316406 -0.6386719
vn 0.4804688 0.8164063 -0.3203125
vn 0.75 0.4316406 -0.5019531
vn 0.5332031 0.8164063 -0.2207031
vn 0.8339844 0.4316406 -0.3457031
vn 0.5664063 0.8164063 -0.1132813
vn 0.8847656 0.4316406 -0.1757813
vt 0.2036133 -0.8027344
vt 0.2211914 -0.6933594
vt 0.1513672 -0.7392578
vt 0.1899414 -0.6357422
vt 0.1123047 -0.6674805
vt 0.1708984 -0.5732422
vt 0.08837891 -0.5893555
f 256/256/256 257/257/257 258/258/258
f 257/257/257 259/259/259 258/258/258
f 258/258/258 259/259/259 260/260/260
f 259/259/259 261/261/261 260/260/260
f 260/260/260 261/261/261 262/262/262
v -0.6166992 0.4311523 1.481201
v -0.5388184 0.6867676 1.293213
v -0.78125 0.6867676 1.163574
v -0.5366211 0.833252 0.7971191
v -0.682373 0.833252 0.6774902
v -0.001708984 0.8901367 -0.003173828
vn -0.3457031 0.4316406 0.8339844
vn -0.2207031 0.8164063 0.5332031
vn -0.3203125 0.8164063 0.4804688
vn -0.1367188 0.9804688 0.1367188
vn -0.1367188 0.9804688 0.1367188
vn 0 0.9980469 0
vt 0.3393555 -0.8930664
vt 0.371582 -0.815918
vt 0.3134766 -0.7851563
vt 0.3720703 -0.6982422
vt 0.3374023 -0.6699219
vt 0.5 -0.5083008
f 263/263/263 264/264/264 265/265/265
f 264/264/264 266/266/266 265/265/265
f 265/265/265 266/266/266 267/267/267
f 266/266/266 268/268/268 267/267/267
v 0.6132813 0.4311523 -1.487793
v 0.5354004 0.6867676 -1.299561
v 0.777832 0.6867676 -1.169922
v 0.5332031 0.833252 -0.8034668
v 0.6789551 0.833252 -0.6838379
v -0.001708984 0.8901367 -0.003173828
vn 0.3457031 0.4316406 -0.8339844
vn 0.2207031 0.8164063 -0.5332031
vn 0.3203125 0.8164063 -0.4804688
vn 0.1367188 0.9804688 -0.1367188
vn 0.1367188 0.9804688 -0.1367188
vn 0 0.9980469 0
vt 0.3393555 -0.8930664
vt 0.371582 -0.815918
vt 0.3134766 -0.7851563
vt 0.3720703 -0.6982422
vt 0.3374023 -0.6699219
vt 0.5 -0.5083008
f 269/269/269 270/270/270 271/271/271
f 270/270/270 272/272/272 271/271/271
f 271/271/271 272/272/272 273/273/273
f 272/272/272 274/274/274 273/273/273
v -1.168457 0.6867676 0.7763672
v -0.8911133 0.833252 0.3652344
v -1.298096 0.6867676 0.5336914
v -0.9458008 0.833252 0.1845703
v -1.37793 0.6867676 0.2705078
vn -0.4804688 0.8164063 0.3203125
vn -0.1777344 0.9804688 0.07421875
vn -0.5332031 0.8164063 0.2207031
vn -0.1933594 0.9804688 0
vn -0.5664063 0.8164063 0.1132813
vt 0.2211914 -0.6933594
vt 0.2875977 -0.5957031
vt 0.1899414 -0.6357422
vt 0.2744141 -0.5527344
vt 0.1708984 -0.5732422
f 275/275/275 276/276/276 277/277/277
f 276/276/276 278/278/278 277/277/277
f 277/277/277 278/278/278 279/279/279
v 1.165039 0.6867676 -0.7827148
v 0.8876953 0.833252 -0.371582
v 1.294678 0.6867676 -0.5402832
v 0.9423828 0.833252 -0.190918
v 1.374512 0.6867676 -0.2768555
vn 0.4804688 0.8164063 -0.3203125
vn 0.1777344 0.9804688 -0.07421875
vn 0.5332031 0.8164063 -0.2207031
vn 0.1933594 0.9804688 0
vn 0.5664063 0.8164063 -0.1132813
vt 0.2211914 -0.6933594
vt 0.2875977 -0.5957031
vt 0.1899414 -0.6357422
vt 0.2744141 -0.5527344
vt 0.1708984 -0.5732422
f 280/280/280 281/281/281 282/282/282
f 281/281/281 283/283/283 282/282/282
f 282/282/282 283/283/283 284/284/284
v 1.54248 0.1347656 -0.6428223
v 1.637695 0.1347656 -0.3293457
v -0.001708984 0.1347656 -0.003173828
v 1.669922 0.1347656 -0.003173828
v 1.637695 0.1347656 0.322998
vn 0 -1 0
vn 0 -1 0
vn 0 -1 0
vn 0 -1 0
vn 0 -1 0
vt 0.04199219 -0.3071289
vt 0.01416016 -0.3989258
vt 0.4941406 -0.4941406
vt 0.004394531 -0.4941406
vt 0.01416016 -0.3989258
f 285/285/285 286/286/286 287/287/287
f 286/286/286 288/288/288 287/287/287
f 287/287/287 288/288/288 289/289/289
v 1.54248 0.1347656 -0.6428223
v -0.001708984 0.1347656 -0.003173828
v 1.388184 0.1347656 -0.9318848
v 1.18042 0.1347656 -1.185303
vn 0 -1 0
vn 0 -1 0
vn 0 -1 0
vn 0 -1 0
vt 0.04199219 -0.3071289
vt 0.4941406 -0.4941406
vt 0.08740234 -0.222168
vt 0.1479492 -0.1479492
f 290/290/290 291/291/291 292/292/292
f 291/291/291 293/293/293 292/292/292
v 1.18042 0.1347656 -1.185303
v -0.001708984 0.1347656 -0.003173828
v 0.927002 0.1347656 -1.393066
v 0.6379395 0.1347656 -1.547607
vn 0 -1 0
vn 0 -1 0
vn 0 -1 0
vn 0 -1 0
vt 0.1479492 -0.1479492
vt 0.4941406 -0.4941406
vt 0.222168 -0.08740234
vt 0.3071289 -0.04199219
f 294/294/294 295/295/295 296/296/296
f 295/295/295 297/297/297 296/296/296
v 0.6379395 0.1347656 -1.547607
v -0.001708984 0.1347656 -0.003173828
v 0.3244629 0.1347656 -1.642578
v -0.001708984 0.1347656 -1.674805
vn 0 -1 0
vn 0 -1 0
vn 0 -1 0
vn 0 -1 0
vt 0.3071289 -0.04199219
vt 0.4941406 -0.4941406
vt 0.3989258 -0.01416016
vt 0.4941406 -0.004394531
f 298/298/298 299/299/299 300/300/300
f 299/299/299 301/301/301 300/300/300
v -0.001708984 0.1347656 -1.674805
v -0.001708984 0.1347656 -0.003173828
v -0.3278809 0.1347656 -1.642578
v -0.6413574 0.1347656 -1.547607
vn 0 -1 0
vn 0 -1 0
vn 0 -1 0
vn 0 -1 0
vt 0.4941406 -0.004394531
vt 0.4941406 -0.4941406
vt 0.3989258 -0.01416016
vt 0.3071289 -0.04199219
f 302/302/302 303/303/303 304/304/304
f 303/303/303 305/305/305 304/304/304
v -0.6413574 0.1347656 -1.547607
v -0.001708984 0.1347656 -0.003173828
v -0.9304199 0.1347656 -1.393066
v -1.183594 0.1347656 -1.185303
vn 0 -1 0
vn 0 -1 0
vn 0 -1 0
vn 0 -1 0
vt 0.3071289 -0.04199219
vt 0.4941406 -0.4941406
vt 0.222168 -0.08740234
vt 0.1479492 -0.1479492
f 306/306/306 307/307/307 308/308/308
f 307/307/307 309/309/309 308/308/308
v -1.183594 0.1347656 -1.185303
v -0.001708984 0.1347656 -0.003173828
v -1.391602 0.1347656 -0.9318848
v -1.546143 0.1347656 -0.6428223
vn 0 -1 0
vn 0 -1 0
vn 0 -1 0
vn 0 -1 0
vt 0.1479492 -0.1479492
vt 0.4941406 -0.4941406
vt 0.08740234 -0.222168
vt 0.04199219 -0.3071289
f 310/310/310 311/311/311 312/312/312
f 311/311/311 313/313/313 312/312/312
v -0.001708984 0.8901367 -0.003173828
v -0.5366211 0.833252 0.7971191
v -0.3701172 0.833252 0.8859863
v -0.5388184 0.6867676 1.293213
vn 0 0.9980469 0
vn -0.1367188 0.9804688 0.1367188
vn -0.07421875 0.9804688 0.1777344
vn -0.2207031 0.8164063 0.5332031
vt 0.5 -0.5083008
vt 0.3720703 -0.6982422
vt 0.4121094 -0.7192383
vt 0.371582 -0.815918
f 314/314/314 315/315/315 316/316/316
f 315/315/315 317/317/317 316/316/316
v -1.183594 0.1347656 1.178711
v -0.001708984 0.1347656 -0.003173828
v -0.9304199 0.1347656 1.386719
v -0.6413574 0.1347656 1.541016
vn 0 -1 0
vn 0 -1 0
vn 0 -1 0
vn 0 -1 0
vt 0.1479492 -0.1479492
vt 0.4941406 -0.4941406
vt 0.222168 -0.08740234
vt 0.3071289 -0.04199219
f 318/318/318 319/319/319 320/320/320
f 319/319/319 321/321/321 320/320/320
v 0.6379395 0.1347656 1.541016
v -0.001708984 0.1347656 -0.003173828
v 0.927002 0.1347656 1.386719
v 1.18042 0.1347656 1.178711
vn 0 -1 0
vn 0 -1 0
vn 0 -1 0
vn 0 -1 0
vt 0.3071289 -0.04199219
vt 0.4941406 -0.4941406
vt 0.222168 -0.08740234
vt 0.1479492 -0.1479492
f 322/322/322 323/323/323 324/324/324
f 323/323/323 325/325/325 324/324/324
v -1.546143 0.1347656 0.6364746
v -0.001708984 0.1347656 -0.003173828
v -1.391602 0.1347656 0.9255371
v -1.183594 0.1347656 1.178711
vn 0 -1 0
vn 0 -1 0
vn 0 -1 0
vn 0 -1 0
vt 0.04199219 -0.3071289
vt 0.4941406 -0.4941406
vt 0.08740234 -0.222168
vt 0.1479492 -0.1479492
f 326/326/326 327/327/327 328/328/328
f 327/327/327 329/329/329 328/328/328
v -0.6413574 0.1347656 1.541016
v -0.001708984 0.1347656 -0.003173828
v -0.3278809 0.1347656 1.63623
v -0.001708984 0.1347656 1.668457
vn 0 -1 0
vn 0 -1 0
vn 0 -1 0
vn 0 -1 0
vt 0.3071289 -0.04199219
vt 0.4941406 -0.4941406
vt 0.3989258 -0.01416016
vt 0.4941406 -0.004394531
f 330/330/330 331/331/331 332/332/332
f 331/331/331 333/333/333 332/332/332
v -1.67334 0.1347656 -0.003173828
v -0.001708984 0.1347656 -0.003173828
v -1.641113 0.1347656 0.322998
v -1.546143 0.1347656 0.6364746
vn 0 -1 0
vn 0 -1 0
vn 0 -1 0
vn 0 -1 0
vt 0.004394531 -0.4941406
vt 0.4941406 -0.4941406
vt 0.01416016 -0.3989258
vt 0.04199219 -0.3071289
f 334/334/334 335/335/335 336/336/336
f 335/335/335 337/337/337 336/336/336
v -0.001708984 0.1347656 1.668457
v -0.001708984 0.1347656 -0.003173828
v 0.3244629 0.1347656 1.63623
v 0.6379395 0.1347656 1.541016
vn 0 -1 0
vn 0 -1 0
vn 0 -1 0
vn 0 -1 0
vt 0.4941406 -0.004394531
vt 0.4941406 -0.4941406
vt 0.3989258 -0.01416016
vt 0.3071289 -0.04199219
f 338/338/338 339/339/339 340/340/340
f 339/339/339 341/341/341 340/340/340
v 1.18042 0.1347656 1.178711
v -0.001708984 0.1347656 -0.003173828
v 1.388184 0.1347656 0.9255371
v 1.54248 0.1347656 0.6364746
vn 0 -1 0
vn 0 -1 0
vn 0 -1 0
vn 0 -1 0
vt 0.1479492 -0.1479492
vt 0.4941406 -0.4941406
vt 0.08740234 -0.222168
vt 0.04199219 -0.3071289
f 342/342/342 343/343/343 344/344/344
f 343/343/343 345/345/345 344/344/344
v -1.546143 0.1347656 -0.6428223
v -0.001708984 0.1347656 -0.003173828
v -1.641113 0.1347656 -0.3293457
v -1.67334 0.1347656 -0.003173828
vn 0 -1 0
vn 0 -1 0
vn 0 -1 0
vn 0 -1 0
vt 0.04199219 -0.3071289
vt 0.4941406 -0.4941406
vt 0.01416016 -0.3989258
vt 0.004394531 -0.4941406
f 346/346/346 347/347/347 348/348/348
f 347/347/347 349/349/349 348/348/348
v -0.001708984 0.8901367 -0.003173828
v 0.5332031 0.833252 -0.8034668
v 0.3666992 0.833252 -0.8925781
v 0.5354004 0.6867676 -1.299561
vn 0 0.9980469 0
vn 0.1367188 0.9804688 -0.1367188
vn 0.07421875 0.9804688 -0.1777344
vn 0.2207031 0.8164063 -0.5332031
vt 0.5 -0.5083008
vt 0.3720703 -0.6982422
vt 0.4121094 -0.7192383
vt 0.371582 -0.815918
f 350/350/350 351/351/351 352/352/352
f 351/351/351 353/353/353 352/352/352
v 1.637695 0.1347656 0.322998
v 1.54248 0.1347656 0.6364746
v -0.001708984 0.1347656 -0.003173828
vn 0 -1 0
vn 0 -1 0
vn 0 -1 0
vt 0.01416016 -0.3989258
vt 0.04199219 -0.3071289
vt 0.4941406 -0.4941406
f 354/354/354 355/355/355 356/356/356
