# Created by MKDS Course Modifier
mtllib Yen.mtl
g polygon0
usemtl B_mat
v 1.669922 0.170166 -0.003173828
v 1.637695 0.170166 0.322998
v 1.669922 -0.05297852 -0.003173828
v 1.637695 -0.05297852 0.322998
v 1.57666 -0.170166 0.310791
v 1.485107 -0.170166 0.612793
vn 0.9980469 0 0
vn 0.9804688 0 0.1953125
vn 0.9707031 -0.2421875 0
vn 0.9511719 -0.2421875 0.1894531
vn 0.8613281 -0.4785156 0.171875
vn 0.8125 -0.4785156 0.3359375
vt 0.9902344 -0.01269531
vt 0.9804688 -0.2041016
vt 0.9248047 -0.01269531
vt 0.9165039 -0.1777344
vt 0.8896484 -0.1669922
vt 0.8671875 -0.3164063
f 1/1/1 2/2/2 3/3/3
f 2/2/2 4/4/4 3/3/3
f 3/3/3 4/4/4 5/5/5
f 4/4/4 6/6/6 5/5/5
v 1.637695 0.170166 0.322998
v 1.54248 0.170166 0.6364746
v 1.637695 -0.05297852 0.322998
v 1.54248 -0.05297852 0.6364746
v 1.485107 -0.170166 0.612793
v 1.336426 -0.170166 0.8908691
vn 0.9804688 0 0.1953125
vn 0.9238281 0 0.3828125
vn 0.9511719 -0.2421875 0.1894531
vn 0.8964844 -0.2421875 0.3710938
vn 0.8125 -0.4785156 0.3359375
vn 0.7304688 -0.4785156 0.4882813
vt 0.9804688 -0.2041016
vt 0.953125 -0.3886719
vt 0.9165039 -0.1777344
vt 0.8925781 -0.3378906
vt 0.8671875 -0.3164063
vt 0.8305664 -0.453125
f 7/7/7 8/8/8 9/9/9
f 8/8/8 10/10/10 9/9/9
f 9/9/9 10/10/10 11/11/11
f 10/10/10 12/12/12 11/11/11
v 1.54248 0.170166 0.6364746
v 1.388184 0.170166 0.9255371
v 1.54248 -0.05297852 0.6364746
v 1.388184 -0.05297852 0.9255371
v 1.336426 -0.170166 0.8908691
v 1.13623 -0.170166 1.134766
vn 0.9238281 0 0.3828125
vn 0.8320313 0 0.5546875
vn 0.8964844 -0.2421875 0.3710938
vn 0.8066406 -0.2421875 0.5390625
vn 0.7304688 -0.4785156 0.4882813
vn 0.6210938 -0.4785156 0.6210938
vt 0.953125 -0.3886719
vt 0.9082031 -0.5576172
vt 0.8925781 -0.3378906
vt 0.8540039 -0.484375
vt 0.8305664 -0.453125
vt 0.7822266 -0.5742188
f 13/13/13 14/14/14 15/15/15
f 14/14/14 16/16/16 15/15/15
f 15/15/15 16/16/16 17/17/17
f 16/16/16 18/18/18 17/17/17
v 1.388184 0.170166 0.9255371
v 1.18042 0.170166 1.178711
v 1.388184 -0.05297852 0.9255371
v 1.18042 -0.05297852 1.178711
v 1.13623 -0.170166 1.134766
v 0.892334 -0.170166 1.334961
vn 0.8320313 0 0.5546875
vn 0.7070313 0 0.7070313
vn 0.8066406 -0.2421875 0.5390625
vn 0.6855469 -0.2421875 0.6855469
vn 0.6210938 -0.4785156 0.6210938
vn 0.4882813 -0.4785156 0.7304688
vt 0.9082031 -0.5576172
vt 0.8476563 -0.7070313
vt 0.8540039 -0.484375
vt 0.8017578 -0.6132813
vt 0.7822266 -0.5742188
vt 0.7226563 -0.6728516
f 19/19/19 20/20/20 21/21/21
f 20/20/20 22/22/22 21/21/21
f 21/21/21 22/22/22 23/23/23
f 22/22/22 24/24/24 23/23/23
v 1.18042 0.170166 1.178711
v 0.927002 0.170166 1.386719
v 1.18042 -0.05297852 1.178711
v 0.927002 -0.05297852 1.386719
v 0.892334 -0.170166 1.334961
v 0.6140137 -0.170166 1.483643
vn 0.7070313 0 0.7070313
vn 0.5546875 0 0.8320313
vn 0.6855469 -0.2421875 0.6855469
vn 0.5390625 -0.2421875 0.8066406
vn 0.4882813 -0.4785156 0.7304688
vn 0.3359375 -0.4785156 0.8125
vt 0.8476563 -0.7070313
vt 0.7739258 -0.8291016
vt 0.8017578 -0.6132813
vt 0.737793 -0.7197266
vt 0.7226563 -0.6728516
vt 0.6542969 -0.7460938
f 25/25/25 26/26/26 27/27/27
f 26/26/26 28/28/28 27/27/27
f 27/27/27 28/28/28 29/29/29
f 28/28/28 30/30/30 29/29/29
v 0.927002 0.170166 1.386719
v 0.6379395 0.170166 1.541016
v 0.927002 -0.05297852 1.386719
v 0.6379395 -0.05297852 1.541016
v 0.6140137 -0.170166 1.483643
v 0.3122559 -0.170166 1.575195
vn 0.5546875 0 0.8320313
vn 0.3828125 0 0.9238281
vn 0.5390625 -0.2421875 0.8066406
vn 0.3710938 -0.2421875 0.8964844
vn 0.3359375 -0.4785156 0.8125
vn 0.171875 -0.4785156 0.8613281
vt 0.7739258 -0.8291016
vt 0.6904297 -0.9199219
vt 0.737793 -0.7197266
vt 0.6650391 -0.7978516
vt 0.6542969 -0.7460938
vt 0.5810547 -0.7910156
f 31/31/31 32/32/32 33/33/33
f 32/32/32 34/34/34 33/33/33
f 33/33/33 34/34/34 35/35/35
f 34/34/34 36/36/36 35/35/35
v 0.6379395 0.170166 1.541016
v 0.3244629 0.170166 1.63623
v 0.6379395 -0.05297852 1.541016
v 0.3244629 -0.05297852 1.63623
v 0.3122559 -0.170166 1.575195
v -0.001708984 -0.170166 1.606201
vn 0.3828125 0 0.9238281
vn 0.1953125 0 0.9804688
vn 0.3710938 -0.2421875 0.8964844
vn 0.1894531 -0.2421875 0.9511719
vn 0.171875 -0.4785156 0.8613281
vn 0 -0.4785156 0.8789063
vt 0.6904297 -0.9199219
vt 0.5991211 -0.9755859
vt 0.6650391 -0.7978516
vt 0.5864258 -0.8466797
vt 0.5810547 -0.7910156
vt 0.5043945 -0.8066406
f 37/37/37 38/38/38 39/39/39
f 38/38/38 40/40/40 39/39/39
f 39/39/39 40/40/40 41/41/41
f 40/40/40 42/42/42 41/41/41
v -1.546143 0.170166 0.6364746
v -1.641113 0.170166 0.322998
v -1.546143 -0.05297852 0.6364746
v -1.641113 -0.05297852 0.322998
v -1.580078 -0.170166 0.310791
v -1.611084 -0.170166 -0.003173828
vn -0.9238281 0 0.3828125
vn -0.9804688 0 0.1953125
vn -0.8964844 -0.2421875 0.3710938
vn -0.9511719 -0.2421875 0.1894531
vn -0.8613281 -0.4785156 0.171875
vn -0.8789063 -0.4785156 0
vt 0.9526367 -0.3886719
vt 0.9799805 -0.2041016
vt 0.8920898 -0.3378906
vt 0.9160156 -0.1777344
vt 0.8891602 -0.1669922
vt 0.8964844 -0.01269531
f 43/43/43 44/44/44 45/45/45
f 44/44/44 46/46/46 45/45/45
f 45/45/45 46/46/46 47/47/47
f 46/46/46 48/48/48 47/47/47
v -0.001708984 0.170166 1.668457
v -0.3278809 0.170166 1.63623
v -0.001708984 -0.05297852 1.668457
v -0.3278809 -0.05297852 1.63623
v -0.3156738 -0.170166 1.575195
v -0.6176758 -0.170166 1.483643
vn 0 0 0.9980469
vn -0.1953125 0 0.9804688
vn 0 -0.2421875 0.9707031
vn -0.1894531 -0.2421875 0.9511719
vn -0.171875 -0.4785156 0.8613281
vn -0.3359375 -0.4785156 0.8125
vt 0.5039063 -0.9941406
vt 0.5986328 -0.9755859
vt 0.5039063 -0.8623047
vt 0.5859375 -0.8466797
vt 0.5805664 -0.7910156
vt 0.6542969 -0.7460938
f 49/49/49 50/50/50 51/51/51
f 50/50/50 52/52/52 51/51/51
f 51/51/51 52/52/52 53/53/53
f 52/52/52 54/54/54 53/53/53
v -0.3278809 0.170166 1.63623
v -0.6413574 0.170166 1.541016
v -0.3278809 -0.05297852 1.63623
v -0.6413574 -0.05297852 1.541016
v -0.6176758 -0.170166 1.483643
v -0.895752 -0.170166 1.334961
vn -0.1953125 0 0.9804688
vn -0.3828125 0 0.9238281
vn -0.1894531 -0.2421875 0.9511719
vn -0.3710938 -0.2421875 0.8964844
vn -0.3359375 -0.4785156 0.8125
vn -0.4882813 -0.4785156 0.7304688
vt 0.5986328 -0.9755859
vt 0.6899414 -0.9199219
vt 0.5859375 -0.8466797
vt 0.6645508 -0.7978516
vt 0.6542969 -0.7460938
vt 0.722168 -0.6728516
f 55/55/55 56/56/56 57/57/57
f 56/56/56 58/58/58 57/57/57
f 57/57/57 58/58/58 59/59/59
f 58/58/58 60/60/60 59/59/59
v -0.6413574 0.170166 1.541016
v -0.9304199 0.170166 1.386719
v -0.6413574 -0.05297852 1.541016
v -0.9304199 -0.05297852 1.386719
v -0.895752 -0.170166 1.334961
v -1.139648 -0.170166 1.134766
vn -0.3828125 0 0.9238281
vn -0.5546875 0 0.8320313
vn -0.3710938 -0.2421875 0.8964844
vn -0.5390625 -0.2421875 0.8066406
vn -0.4882813 -0.4785156 0.7304688
vn -0.6210938 -0.4785156 0.6210938
vt 0.6899414 -0.9199219
vt 0.7734375 -0.8291016
vt 0.6645508 -0.7978516
vt 0.7373047 -0.7197266
vt 0.722168 -0.6728516
vt 0.7817383 -0.5742188
f 61/61/61 62/62/62 63/63/63
f 62/62/62 64/64/64 63/63/63
f 63/63/63 64/64/64 65/65/65
f 64/64/64 66/66/66 65/65/65
v -0.9304199 0.170166 1.386719
v -1.183594 0.170166 1.178711
v -0.9304199 -0.05297852 1.386719
v -1.183594 -0.05297852 1.178711
v -1.139648 -0.170166 1.134766
v -1.339844 -0.170166 0.8908691
vn -0.5546875 0 0.8320313
vn -0.7070313 0 0.7070313
vn -0.5390625 -0.2421875 0.8066406
vn -0.6855469 -0.2421875 0.6855469
vn -0.6210938 -0.4785156 0.6210938
vn -0.7304688 -0.4785156 0.4882813
vt 0.7734375 -0.8291016
vt 0.847168 -0.7070313
vt 0.7373047 -0.7197266
vt 0.8012695 -0.6132813
vt 0.7817383 -0.5742188
vt 0.8305664 -0.453125
f 67/67/67 68/68/68 69/69/69
f 68/68/68 70/70/70 69/69/69
f 69/69/69 70/70/70 71/71/71
f 70/70/70 72/72/72 71/71/71
v -1.183594 0.170166 1.178711
v -1.391602 0.170166 0.9255371
v -1.183594 -0.05297852 1.178711
v -1.391602 -0.05297852 0.9255371
v -1.339844 -0.170166 0.8908691
v -1.488525 -0.170166 0.612793
vn -0.7070313 0 0.7070313
vn -0.8320313 0 0.5546875
vn -0.6855469 -0.2421875 0.6855469
vn -0.8066406 -0.2421875 0.5390625
vn -0.7304688 -0.4785156 0.4882813
vn -0.8125 -0.4785156 0.3359375
vt 0.847168 -0.7070313
vt 0.9077148 -0.5576172
vt 0.8012695 -0.6132813
vt 0.8535156 -0.484375
vt 0.8305664 -0.453125
vt 0.8666992 -0.3164063
f 73/73/73 74/74/74 75/75/75
f 74/74/74 76/76/76 75/75/75
f 75/75/75 76/76/76 77/77/77
f 76/76/76 78/78/78 77/77/77
v -1.391602 0.170166 0.9255371
v -1.546143 0.170166 0.6364746
v -1.391602 -0.05297852 0.9255371
v -1.546143 -0.05297852 0.6364746
v -1.488525 -0.170166 0.612793
v -1.580078 -0.170166 0.310791
vn -0.8320313 0 0.5546875
vn -0.9238281 0 0.3828125
vn -0.8066406 -0.2421875 0.5390625
vn -0.8964844 -0.2421875 0.3710938
vn -0.8125 -0.4785156 0.3359375
vn -0.8613281 -0.4785156 0.171875
vt 0.9077148 -0.5576172
vt 0.9526367 -0.3886719
vt 0.8535156 -0.484375
vt 0.8920898 -0.3378906
vt 0.8666992 -0.3164063
vt 0.8891602 -0.1669922
f 79/79/79 80/80/80 81/81/81
f 80/80/80 82/82/82 81/81/81
f 81/81/81 82/82/82 83/83/83
f 82/82/82 84/84/84 83/83/83
v 1.18042 0.170166 -1.185303
v 1.388184 0.170166 -0.9318848
v 1.18042 -0.05297852 -1.185303
v 1.388184 -0.05297852 -0.9318848
v 1.336426 -0.170166 -0.8972168
v 1.485107 -0.170166 -0.6191406
vn 0.7070313 0 -0.7070313
vn 0.8320313 0 -0.5546875
vn 0.6855469 -0.2421875 -0.6855469
vn 0.8066406 -0.2421875 -0.5390625
vn 0.7304688 -0.4785156 -0.4882813
vn 0.8125 -0.4785156 -0.3359375
vt 0.8476563 -0.7080078
vt 0.9082031 -0.5585938
vt 0.8017578 -0.6142578
vt 0.8540039 -0.4853516
vt 0.8305664 -0.4541016
vt 0.8671875 -0.3173828
f 85/85/85 86/86/86 87/87/87
f 86/86/86 88/88/88 87/87/87
f 87/87/87 88/88/88 89/89/89
f 88/88/88 90/90/90 89/89/89
v 1.388184 0.170166 -0.9318848
v 1.54248 0.170166 -0.6428223
v 1.388184 -0.05297852 -0.9318848
v 1.54248 -0.05297852 -0.6428223
v 1.485107 -0.170166 -0.6191406
v 1.57666 -0.170166 -0.3171387
vn 0.8320313 0 -0.5546875
vn 0.9238281 0 -0.3828125
vn 0.8066406 -0.2421875 -0.5390625
vn 0.8964844 -0.2421875 -0.3710938
vn 0.8125 -0.4785156 -0.3359375
vn 0.8613281 -0.4785156 -0.171875
vt 0.9082031 -0.5585938
vt 0.953125 -0.3886719
vt 0.8540039 -0.4853516
vt 0.8925781 -0.3388672
vt 0.8671875 -0.3173828
vt 0.8896484 -0.1679688
f 91/91/91 92/92/92 93/93/93
f 92/92/92 94/94/94 93/93/93
f 93/93/93 94/94/94 95/95/95
f 94/94/94 96/96/96 95/95/95
v -1.67334 0.170166 -0.003173828
v -1.641113 0.170166 -0.3293457
v -1.67334 -0.05297852 -0.003173828
v -1.641113 -0.05297852 -0.3293457
v -1.580078 -0.170166 -0.3171387
v -1.488525 -0.170166 -0.6191406
vn -1 0 0
vn -0.9804688 0 -0.1953125
vn -0.9707031 -0.2421875 0
vn -0.9511719 -0.2421875 -0.1894531
vn -0.8613281 -0.4785156 -0.171875
vn -0.8125 -0.4785156 -0.3359375
vt 0.9892578 -0.01367188
vt 0.9799805 -0.2050781
vt 0.9243164 -0.01367188
vt 0.9160156 -0.1787109
vt 0.8891602 -0.1679688
vt 0.8666992 -0.3173828
f 97/97/97 98/98/98 99/99/99
f 98/98/98 100/100/100 99/99/99
f 99/99/99 100/100/100 101/101/101
f 100/100/100 102/102/102 101/101/101
v -1.641113 0.170166 -0.3293457
v -1.546143 0.170166 -0.6428223
v -1.641113 -0.05297852 -0.3293457
v -1.546143 -0.05297852 -0.6428223
v -1.488525 -0.170166 -0.6191406
v -1.339844 -0.170166 -0.8972168
vn -0.9804688 0 -0.1953125
vn -0.9238281 0 -0.3828125
vn -0.9511719 -0.2421875 -0.1894531
vn -0.8964844 -0.2421875 -0.3710938
vn -0.8125 -0.4785156 -0.3359375
vn -0.7304688 -0.4785156 -0.4882813
vt 0.9799805 -0.2050781
vt 0.9526367 -0.3886719
vt 0.9160156 -0.1787109
vt 0.8920898 -0.3388672
vt 0.8666992 -0.3173828
vt 0.8305664 -0.4541016
f 103/103/103 104/104/104 105/105/105
f 104/104/104 106/106/106 105/105/105
f 105/105/105 106/106/106 107/107/107
f 106/106/106 108/108/108 107/107/107
v -1.546143 0.170166 -0.6428223
v -1.391602 0.170166 -0.9318848
v -1.546143 -0.05297852 -0.6428223
v -1.391602 -0.05297852 -0.9318848
v -1.339844 -0.170166 -0.8972168
v -1.139648 -0.170166 -1.141113
vn -0.9238281 0 -0.3828125
vn -0.8320313 0 -0.5546875
vn -0.8964844 -0.2421875 -0.3710938
vn -0.8066406 -0.2421875 -0.5390625
vn -0.7304688 -0.4785156 -0.4882813
vn -0.6210938 -0.4785156 -0.6210938
vt 0.9526367 -0.3886719
vt 0.9077148 -0.5585938
vt 0.8920898 -0.3388672
vt 0.8535156 -0.4853516
vt 0.8305664 -0.4541016
vt 0.7817383 -0.5751953
f 109/109/109 110/110/110 111/111/111
f 110/110/110 112/112/112 111/111/111
f 111/111/111 112/112/112 113/113/113
f 112/112/112 114/114/114 113/113/113
v -1.391602 0.170166 -0.9318848
v -1.183594 0.170166 -1.185303
v -1.391602 -0.05297852 -0.9318848
v -1.183594 -0.05297852 -1.185303
v -1.139648 -0.170166 -1.141113
v -0.895752 -0.170166 -1.341309
vn -0.8320313 0 -0.5546875
vn -0.7070313 0 -0.7070313
vn -0.8066406 -0.2421875 -0.5390625
vn -0.6855469 -0.2421875 -0.6855469
vn -0.6210938 -0.4785156 -0.6210938
vn -0.4882813 -0.4785156 -0.7304688
vt 0.9077148 -0.5585938
vt 0.847168 -0.7080078
vt 0.8535156 -0.4853516
vt 0.8012695 -0.6142578
vt 0.7817383 -0.5751953
vt 0.722168 -0.6738281
f 115/115/115 116/116/116 117/117/117
f 116/116/116 118/118/118 117/117/117
f 117/117/117 118/118/118 119/119/119
f 118/118/118 120/120/120 119/119/119
v -1.183594 0.170166 -1.185303
v -0.9304199 0.170166 -1.393066
v -1.183594 -0.05297852 -1.185303
v -0.9304199 -0.05297852 -1.393066
v -0.895752 -0.170166 -1.341309
v -0.6176758 -0.170166 -1.48999
vn -0.7070313 0 -0.7070313
vn -0.5546875 0 -0.8320313
vn -0.6855469 -0.2421875 -0.6855469
vn -0.5390625 -0.2421875 -0.8066406
vn -0.4882813 -0.4785156 -0.7304688
vn -0.3359375 -0.4785156 -0.8125
vt 0.847168 -0.7080078
vt 0.7734375 -0.8300781
vt 0.8012695 -0.6142578
vt 0.7373047 -0.7197266
vt 0.722168 -0.6738281
vt 0.6542969 -0.7470703
f 121/121/121 122/122/122 123/123/123
f 122/122/122 124/124/124 123/123/123
f 123/123/123 124/124/124 125/125/125
f 124/124/124 126/126/126 125/125/125
v -0.9304199 0.170166 -1.393066
v -0.6413574 0.170166 -1.547607
v -0.9304199 -0.05297852 -1.393066
v -0.6413574 -0.05297852 -1.547607
v -0.6176758 -0.170166 -1.48999
v -0.3156738 -0.170166 -1.581543
vn -0.5546875 0 -0.8320313
vn -0.3828125 0 -0.9238281
vn -0.5390625 -0.2421875 -0.8066406
vn -0.3710938 -0.2421875 -0.8964844
vn -0.3359375 -0.4785156 -0.8125
vn -0.171875 -0.4785156 -0.8613281
vt 0.7734375 -0.8300781
vt 0.6899414 -0.9208984
vt 0.7373047 -0.7197266
vt 0.6645508 -0.7988281
vt 0.6542969 -0.7470703
vt 0.5805664 -0.7919922
f 127/127/127 128/128/128 129/129/129
f 128/128/128 130/130/130 129/129/129
f 129/129/129 130/130/130 131/131/131
f 130/130/130 132/132/132 131/131/131
v -0.6413574 0.170166 -1.547607
v -0.3278809 0.170166 -1.642578
v -0.6413574 -0.05297852 -1.547607
v -0.3278809 -0.05297852 -1.642578
v -0.3156738 -0.170166 -1.581543
v -0.001708984 -0.170166 -1.612549
vn -0.3828125 0 -0.9238281
vn -0.1953125 0 -0.9804688
vn -0.3710938 -0.2421875 -0.8964844
vn -0.1894531 -0.2421875 -0.9511719
vn -0.171875 -0.4785156 -0.8613281
vn 0 -0.4785156 -0.8789063
vt 0.6899414 -0.9208984
vt 0.5986328 -0.9765625
vt 0.6645508 -0.7988281
vt 0.5859375 -0.8466797
vt 0.5805664 -0.7919922
vt 0.5039063 -0.8076172
f 133/133/133 134/134/134 135/135/135
f 134/134/134 136/136/136 135/135/135
f 135/135/135 136/136/136 137/137/137
f 136/136/136 138/138/138 137/137/137
v -0.001708984 0.170166 -1.674805
v 0.3244629 0.170166 -1.642578
v -0.001708984 -0.05297852 -1.674805
v 0.3244629 -0.05297852 -1.642578
v 0.3122559 -0.170166 -1.581543
v 0.6140137 -0.170166 -1.48999
vn 0 0 -1
vn 0.1953125 0 -0.9804688
vn 0 -0.2421875 -0.9707031
vn 0.1894531 -0.2421875 -0.9511719
vn 0.171875 -0.4785156 -0.8613281
vn 0.3359375 -0.4785156 -0.8125
vt 0.5043945 -0.9951172
vt 0.5991211 -0.9765625
vt 0.5043945 -0.8632813
vt 0.5864258 -0.8466797
vt 0.5810547 -0.7919922
vt 0.6542969 -0.7470703
f 139/139/139 140/140/140 141/141/141
f 140/140/140 142/142/142 141/141/141
f 141/141/141 142/142/142 143/143/143
f 142/142/142 144/144/144 143/143/143
v 0.3244629 0.170166 -1.642578
v 0.6379395 0.170166 -1.547607
v 0.3244629 -0.05297852 -1.642578
v 0.6379395 -0.05297852 -1.547607
v 0.6140137 -0.170166 -1.48999
v 0.892334 -0.170166 -1.341309
vn 0.1953125 0 -0.9804688
vn 0.3828125 0 -0.9238281
vn 0.1894531 -0.2421875 -0.9511719
vn 0.3710938 -0.2421875 -0.8964844
vn 0.3359375 -0.4785156 -0.8125
vn 0.4882813 -0.4785156 -0.7304688
vt 0.5991211 -0.9765625
vt 0.6904297 -0.9208984
vt 0.5864258 -0.8466797
vt 0.6650391 -0.7988281
vt 0.6542969 -0.7470703
vt 0.7226563 -0.6738281
f 145/145/145 146/146/146 147/147/147
f 146/146/146 148/148/148 147/147/147
f 147/147/147 148/148/148 149/149/149
f 148/148/148 150/150/150 149/149/149
v 0.6379395 0.170166 -1.547607
v 0.927002 0.170166 -1.393066
v 0.6379395 -0.05297852 -1.547607
v 0.927002 -0.05297852 -1.393066
v 0.892334 -0.170166 -1.341309
v 1.13623 -0.170166 -1.141113
vn 0.3828125 0 -0.9238281
vn 0.5546875 0 -0.8320313
vn 0.3710938 -0.2421875 -0.8964844
vn 0.5390625 -0.2421875 -0.8066406
vn 0.4882813 -0.4785156 -0.7304688
vn 0.6210938 -0.4785156 -0.6210938
vt 0.6904297 -0.9208984
vt 0.7739258 -0.8300781
vt 0.6650391 -0.7988281
vt 0.737793 -0.7197266
vt 0.7226563 -0.6738281
vt 0.7822266 -0.5751953
f 151/151/151 152/152/152 153/153/153
f 152/152/152 154/154/154 153/153/153
f 153/153/153 154/154/154 155/155/155
f 154/154/154 156/156/156 155/155/155
v 0.927002 0.170166 -1.393066
v 1.18042 0.170166 -1.185303
v 0.927002 -0.05297852 -1.393066
v 1.18042 -0.05297852 -1.185303
v 1.13623 -0.170166 -1.141113
v 1.336426 -0.170166 -0.8972168
vn 0.5546875 0 -0.8320313
vn 0.7070313 0 -0.7070313
vn 0.5390625 -0.2421875 -0.8066406
vn 0.6855469 -0.2421875 -0.6855469
vn 0.6210938 -0.4785156 -0.6210938
vn 0.7304688 -0.4785156 -0.4882813
vt 0.7739258 -0.8300781
vt 0.8476563 -0.7080078
vt 0.737793 -0.7197266
vt 0.8017578 -0.6142578
vt 0.7822266 -0.5751953
vt 0.8305664 -0.4541016
f 157/157/157 158/158/158 159/159/159
f 158/158/158 160/160/160 159/159/159
f 159/159/159 160/160/160 161/161/161
f 160/160/160 162/162/162 161/161/161
v 0.3244629 0.170166 1.63623
v -0.001708984 0.170166 1.668457
v 0.3244629 -0.05297852 1.63623
v -0.001708984 -0.05297852 1.668457
v -0.001708984 -0.170166 1.606201
vn 0.1953125 0 0.9804688
vn 0 0 0.9980469
vn 0.1894531 -0.2421875 0.9511719
vn 0 -0.2421875 0.9707031
vn 0 -0.4785156 0.8789063
vt 0.5991211 -0.9755859
vt 0.5043945 -0.9941406
vt 0.5864258 -0.8466797
vt 0.5043945 -0.8623047
vt 0.5043945 -0.8066406
f 163/163/163 164/164/164 165/165/165
f 164/164/164 166/166/166 165/165/165
f 165/165/165 166/166/166 167/167/167
v -1.641113 0.170166 0.322998
v -1.67334 0.170166 -0.003173828
v -1.641113 -0.05297852 0.322998
v -1.67334 -0.05297852 -0.003173828
v -1.611084 -0.170166 -0.003173828
vn -0.9804688 0 0.1953125
vn -1 0 0
vn -0.9511719 -0.2421875 0.1894531
vn -0.9707031 -0.2421875 0
vn -0.8789063 -0.4785156 0
vt 0.9799805 -0.2041016
vt 0.9892578 -0.01269531
vt 0.9160156 -0.1777344
vt 0.9243164 -0.01269531
vt 0.8964844 -0.01269531
f 168/168/168 169/169/169 170/170/170
f 169/169/169 171/171/171 170/170/170
f 170/170/170 171/171/171 172/172/172
v -0.3278809 0.170166 -1.642578
v -0.001708984 0.170166 -1.674805
v -0.3278809 -0.05297852 -1.642578
v -0.001708984 -0.05297852 -1.674805
v -0.001708984 -0.170166 -1.612549
vn -0.1953125 0 -0.9804688
vn 0 0 -1
vn -0.1894531 -0.2421875 -0.9511719
vn 0 -0.2421875 -0.9707031
vn 0 -0.4785156 -0.8789063
vt 0.5986328 -0.9765625
vt 0.5039063 -0.9951172
vt 0.5859375 -0.8466797
vt 0.5039063 -0.8632813
vt 0.5039063 -0.8076172
f 173/173/173 174/174/174 175/175/175
f 174/174/174 176/176/176 175/175/175
f 175/175/175 176/176/176 177/177/177
v 1.54248 0.170166 -0.6428223
v 1.637695 0.170166 -0.3293457
v 1.54248 -0.05297852 -0.6428223
v 1.637695 -0.05297852 -0.3293457
v 1.57666 -0.170166 -0.3171387
vn 0.9238281 0 -0.3828125
vn 0.9804688 0 -0.1953125
vn 0.8964844 -0.2421875 -0.3710938
vn 0.9511719 -0.2421875 -0.1894531
vn 0.8613281 -0.4785156 -0.171875
vt 0.953125 -0.3886719
vt 0.9804688 -0.2050781
vt 0.8925781 -0.3388672
vt 0.9165039 -0.1787109
vt 0.8896484 -0.1679688
f 178/178/178 179/179/179 180/180/180
f 179/179/179 181/181/181 180/180/180
f 180/180/180 181/181/181 182/182/182
v -0.001708984 -0.170166 -1.612549
v 0.3122559 -0.170166 -1.581543
v -0.001708984 -0.170166 -0.003173828
v 0.6140137 -0.170166 -1.48999
v 0.892334 -0.170166 -1.341309
vn 0 -1 0
vn 0 -1 0
vn 0 -1 0
vn 0 -1 0
vn 0 -1 0
vt 0.5043945 -0.8076172
vt 0.5810547 -0.7919922
vt 0.5043945 -0.01367188
vt 0.6542969 -0.7470703
vt 0.7226563 -0.6738281
f 183/183/183 184/184/184 185/185/185
f 184/184/184 186/186/186 185/185/185
f 185/185/185 186/186/186 187/187/187
v 0.892334 -0.170166 -1.341309
v 1.13623 -0.170166 -1.141113
v -0.001708984 -0.170166 -0.003173828
v 1.336426 -0.170166 -0.8972168
v 1.485107 -0.170166 -0.6191406
vn 0 -1 0
vn 0 -1 0
vn 0 -1 0
vn 0 -1 0
vn 0 -1 0
vt 0.7226563 -0.6738281
vt 0.7822266 -0.5751953
vt 0.5043945 -0.01367188
vt 0.8305664 -0.4541016
vt 0.8671875 -0.3173828
f 188/188/188 189/189/189 190/190/190
f 189/189/189 191/191/191 190/190/190
f 190/190/190 191/191/191 192/192/192
v -0.6413574 0.170166 -1.547607
v -0.9304199 0.170166 -1.393066
v -0.001708984 0.170166 -0.003173828
v -1.183594 0.170166 -1.185303
v -1.391602 0.170166 -0.9318848
vn 0 0.9980469 0
vn 0 0.9980469 0
vn 0 0.9980469 0
vn 0 0.9980469 0
vn 0 0.9980469 0
vt 0.3071289 -0.07910156
vt 0.222168 -0.1689453
vt 0.4941406 -0.9775391
vt 0.1479492 -0.2900391
vt 0.08740234 -0.4375
f 193/193/193 194/194/194 195/195/195
f 194/194/194 196/196/196 195/195/195
f 195/195/195 196/196/196 197/197/197
v 1.637695 0.170166 -0.3293457
v 1.54248 0.170166 -0.6428223
v -0.001708984 0.170166 -0.003173828
v 1.388184 0.170166 -0.9318848
v 1.18042 0.170166 -1.185303
vn 0 0.9980469 0
vn 0 0.9980469 0
vn 0 0.9980469 0
vn 0 0.9980469 0
vn 0 0.9980469 0
vt 0.01416016 -0.7880859
vt 0.04199219 -0.6054688
vt 0.4941406 -0.9775391
vt 0.08740234 -0.4375
vt 0.1479492 -0.2900391
f 198/198/198 199/199/199 200/200/200
f 199/199/199 201/201/201 200/200/200
f 200/200/200 201/201/201 202/202/202
v 1.18042 0.170166 -1.185303
v 0.927002 0.170166 -1.393066
v -0.001708984 0.170166 -0.003173828
v 0.6379395 0.170166 -1.547607
v 0.3244629 0.170166 -1.642578
vn 0 0.9980469 0
vn 0 0.9980469 0
vn 0 0.9980469 0
vn 0 0.9980469 0
vn 0 0.9980469 0
vt 0.1479492 -0.2900391
vt 0.222168 -0.1689453
vt 0.4941406 -0.9775391
vt 0.3071289 -0.07910156
vt 0.3989258 -0.0234375
f 203/203/203 204/204/204 205/205/205
f 204/204/204 206/206/206 205/205/205
f 205/205/205 206/206/206 207/207/207
v 0.3244629 0.170166 -1.642578
v -0.001708984 0.170166 -1.674805
v -0.001708984 0.170166 -0.003173828
v -0.3278809 0.170166 -1.642578
v -0.6413574 0.170166 -1.547607
vn 0 0.9980469 0
vn 0 0.9980469 0
vn 0 0.9980469 0
vn 0 0.9980469 0
vn 0 0.9980469 0
vt 0.3989258 -0.0234375
vt 0.4941406 -0.004882813
vt 0.4941406 -0.9775391
vt 0.3989258 -0.0234375
vt 0.3071289 -0.07910156
f 208/208/208 209/209/209 210/210/210
f 209/209/209 211/211/211 210/210/210
f 210/210/210 211/211/211 212/212/212
v -1.391602 0.170166 -0.9318848
v -1.546143 0.170166 -0.6428223
v -0.001708984 0.170166 -0.003173828
v -1.641113 0.170166 -0.3293457
v -1.67334 0.170166 -0.003173828
vn 0 0.9980469 0
vn 0 0.9980469 0
vn 0 0.9980469 0
vn 0 0.9980469 0
vn 0 0.9980469 0
vt 0.08740234 -0.4375
vt 0.04199219 -0.6054688
vt 0.4941406 -0.9775391
vt 0.01416016 -0.7880859
vt 0.004394531 -0.9775391
f 213/213/213 214/214/214 215/215/215
f 214/214/214 216/216/216 215/215/215
f 215/215/215 216/216/216 217/217/217
v -1.67334 0.170166 -0.003173828
v -1.641113 0.170166 0.322998
v -0.001708984 0.170166 -0.003173828
v -1.546143 0.170166 0.6364746
v -1.391602 0.170166 0.9255371
vn 0 0.9980469 0
vn 0 0.9980469 0
vn 0 0.9980469 0
vn 0 0.9980469 0
vn 0 0.9980469 0
vt 0.004394531 -0.9775391
vt 0.01416016 -0.7880859
vt 0.4941406 -0.9775391
vt 0.04199219 -0.6054688
vt 0.08740234 -0.4375
f 218/218/218 219/219/219 220/220/220
f 219/219/219 221/221/221 220/220/220
f 220/220/220 221/221/221 222/222/222
v -1.391602 0.170166 0.9255371
v -1.183594 0.170166 1.178711
v -0.001708984 0.170166 -0.003173828
v -0.9304199 0.170166 1.386719
v -0.6413574 0.170166 1.541016
vn 0 0.9980469 0
vn 0 0.9980469 0
vn 0 0.9980469 0
vn 0 0.9980469 0
vn 0 0.9980469 0
vt 0.08740234 -0.4375
vt 0.1479492 -0.2900391
vt 0.4941406 -0.9775391
vt 0.222168 -0.1689453
vt 0.3071289 -0.07910156
f 223/223/223 224/224/224 225/225/225
f 224/224/224 226/226/226 225/225/225
f 225/225/225 226/226/226 227/227/227
v -0.6413574 0.170166 1.541016
v -0.3278809 0.170166 1.63623
v -0.001708984 0.170166 -0.003173828
v -0.001708984 0.170166 1.668457
v 0.3244629 0.170166 1.63623
vn 0 0.9980469 0
vn 0 0.9980469 0
vn 0 0.9980469 0
vn 0 0.9980469 0
vn 0 0.9980469 0
vt 0.3071289 -0.07910156
vt 0.3989258 -0.0234375
vt 0.4941406 -0.9775391
vt 0.4941406 -0.004882813
vt 0.3989258 -0.0234375
f 228/228/228 229/229/229 230/230/230
f 229/229/229 231/231/231 230/230/230
f 230/230/230 231/231/231 232/232/232
v 0.3244629 0.170166 1.63623
v 0.6379395 0.170166 1.541016
v -0.001708984 0.170166 -0.003173828
v 0.927002 0.170166 1.386719
v 1.18042 0.170166 1.178711
vn 0 0.9980469 0
vn 0 0.9980469 0
vn 0 0.9980469 0
vn 0 0.9980469 0
vn 0 0.9980469 0
vt 0.3989258 -0.0234375
vt 0.3071289 -0.07910156
vt 0.4941406 -0.9775391
vt 0.222168 -0.1689453
vt 0.1479492 -0.2900391
f 233/233/233 234/234/234 235/235/235
f 234/234/234 236/236/236 235/235/235
f 235/235/235 236/236/236 237/237/237
v 1.18042 0.170166 1.178711
v 1.388184 0.170166 0.9255371
v -0.001708984 0.170166 -0.003173828
v 1.54248 0.170166 0.6364746
v 1.637695 0.170166 0.322998
vn 0 0.9980469 0
vn 0 0.9980469 0
vn 0 0.9980469 0
vn 0 0.9980469 0
vn 0 0.9980469 0
vt 0.1479492 -0.2900391
vt 0.08740234 -0.4375
vt 0.4941406 -0.9775391
vt 0.04199219 -0.6054688
vt 0.01416016 -0.7880859
f 238/238/238 239/239/239 240/240/240
f 239/239/239 241/241/241 240/240/240
f 240/240/240 241/241/241 242/242/242
v -0.001708984 -0.170166 1.606201
v -0.001708984 -0.170166 -0.003173828
v 0.3122559 -0.170166 1.575195
v 0.6140137 -0.170166 1.483643
vn 0 -1 0
vn 0 -1 0
vn 0 -1 0
vn 0 -1 0
vt 0.5043945 -0.8066406
vt 0.5043945 -0.01269531
vt 0.5810547 -0.7910156
vt 0.6542969 -0.7460938
f 243/243/243 244/244/244 245/245/245
f 244/244/244 246/246/246 245/245/245
v 0.6140137 -0.170166 1.483643
v -0.001708984 -0.170166 -0.003173828
v 0.892334 -0.170166 1.334961
v 1.13623 -0.170166 1.134766
vn 0 -1 0
vn 0 -1 0
vn 0 -1 0
vn 0 -1 0
vt 0.6542969 -0.7460938
vt 0.5043945 -0.01269531
vt 0.7226563 -0.6728516
vt 0.7822266 -0.5742188
f 247/247/247 248/248/248 249/249/249
f 248/248/248 250/250/250 249/249/249
v 1.13623 -0.170166 1.134766
v -0.001708984 -0.170166 -0.003173828
v 1.336426 -0.170166 0.8908691
v 1.485107 -0.170166 0.612793
vn 0 -1 0
vn 0 -1 0
vn 0 -1 0
vn 0 -1 0
vt 0.7822266 -0.5742188
vt 0.5043945 -0.01269531
vt 0.8305664 -0.453125
vt 0.8671875 -0.3164063
f 251/251/251 252/252/252 253/253/253
f 252/252/252 254/254/254 253/253/253
v 1.485107 -0.170166 0.612793
v -0.001708984 -0.170166 -0.003173828
v 1.57666 -0.170166 0.310791
v 1.607666 -0.170166 -0.003173828
vn 0 -1 0
vn 0 -1 0
vn 0 -1 0
vn 0 -1 0
vt 0.8671875 -0.3164063
vt 0.5043945 -0.01269531
vt 0.8896484 -0.1669922
vt 0.8969727 -0.01269531
f 255/255/255 256/256/256 257/257/257
f 256/256/256 258/258/258 257/257/257
v 1.669922 -0.05297852 -0.003173828
v 1.637695 -0.05297852 -0.3293457
v 1.669922 0.170166 -0.003173828
v 1.637695 0.170166 -0.3293457
vn 0.9707031 -0.2421875 0
vn 0.9511719 -0.2421875 -0.1894531
vn 0.9980469 0 0
vn 0.9804688 0 -0.1953125
vt 0.9248047 -0.01367188
vt 0.9165039 -0.1787109
vt 0.9902344 -0.01367188
vt 0.9804688 -0.2050781
f 259/259/259 260/260/260 261/261/261
f 260/260/260 262/262/262 261/261/261
v 1.669922 -0.05297852 -0.003173828
v 1.607666 -0.170166 -0.003173828
v 1.637695 -0.05297852 -0.3293457
v 1.57666 -0.170166 -0.3171387
vn 0.8789063 -0.46875 -0.0859375
vn 0.8789063 -0.46875 -0.0859375
vn 0.8789063 -0.46875 -0.0859375
vn 0.8789063 -0.46875 -0.0859375
vt 0.9248047 -0.01367188
vt 0.8969727 -0.01367188
vt 0.9165039 -0.1787109
vt 0.8896484 -0.1679688
f 263/263/263 264/264/264 265/265/265
f 264/264/264 266/266/266 265/265/265
v 1.485107 -0.170166 -0.6191406
v 1.57666 -0.170166 -0.3171387
v -0.001708984 -0.170166 -0.003173828
v 1.607666 -0.170166 -0.003173828
vn 0 -1 0
vn 0 -1 0
vn 0 -1 0
vn 0 -1 0
vt 0.8671875 -0.3173828
vt 0.8896484 -0.1679688
vt 0.5043945 -0.01367188
vt 0.8969727 -0.01367188
f 267/267/267 268/268/268 269/269/269
f 268/268/268 270/270/270 269/269/269
v -0.001708984 -0.170166 -1.612549
v -0.001708984 -0.170166 -0.003173828
v -0.3156738 -0.170166 -1.581543
v -0.6176758 -0.170166 -1.48999
vn 0 -1 0
vn 0 -1 0
vn 0 -1 0
vn 0 -1 0
vt 0.5039063 -0.8076172
vt 0.5039063 -0.01367188
vt 0.5805664 -0.7919922
vt 0.6542969 -0.7470703
f 271/271/271 272/272/272 273/273/273
f 272/272/272 274/274/274 273/273/273
v -0.6176758 -0.170166 -1.48999
v -0.001708984 -0.170166 -0.003173828
v -0.895752 -0.170166 -1.341309
v -1.139648 -0.170166 -1.141113
vn 0 -1 0
vn 0 -1 0
vn 0 -1 0
vn 0 -1 0
vt 0.6542969 -0.7470703
vt 0.5039063 -0.01367188
vt 0.722168 -0.6738281
vt 0.7817383 -0.5751953
f 275/275/275 276/276/276 277/277/277
f 276/276/276 278/278/278 277/277/277
v 1.637695 0.170166 0.322998
v 1.669922 0.170166 -0.003173828
v -0.001708984 0.170166 -0.003173828
v 1.637695 0.170166 -0.3293457
vn 0 0.9980469 0
vn 0 0.9980469 0
vn 0 0.9980469 0
vn 0 0.9980469 0
vt 0.01416016 -0.7880859
vt 0.004394531 -0.9775391
vt 0.4941406 -0.9775391
vt 0.01416016 -0.7880859
f 279/279/279 280/280/280 281/281/281
f 280/280/280 282/282/282 281/281/281
v -1.139648 -0.170166 -1.141113
v -0.001708984 -0.170166 -0.003173828
v -1.339844 -0.170166 -0.8972168
v -1.488525 -0.170166 -0.6191406
vn 0 -1 0
vn 0 -1 0
vn 0 -1 0
vn 0 -1 0
vt 0.7817383 -0.5751953
vt 0.5039063 -0.01367188
vt 0.8305664 -0.4541016
vt 0.8666992 -0.3173828
f 283/283/283 284/284/284 285/285/285
f 284/284/284 286/286/286 285/285/285
v -1.488525 -0.170166 -0.6191406
v -0.001708984 -0.170166 -0.003173828
v -1.580078 -0.170166 -0.3171387
v -1.611084 -0.170166 -0.003173828
vn 0 -1 0
vn 0 -1 0
vn 0 -1 0
vn 0 -1 0
vt 0.8666992 -0.3173828
vt 0.5039063 -0.01367188
vt 0.8891602 -0.1679688
vt 0.8964844 -0.01367188
f 287/287/287 288/288/288 289/289/289
f 288/288/288 290/290/290 289/289/289
v -1.611084 -0.170166 -0.003173828
v -0.001708984 -0.170166 -0.003173828
v -1.580078 -0.170166 0.310791
v -1.488525 -0.170166 0.612793
vn 0 -1 0
vn 0 -1 0
vn 0 -1 0
vn 0 -1 0
vt 0.8964844 -0.01269531
vt 0.5039063 -0.01269531
vt 0.8891602 -0.1669922
vt 0.8666992 -0.3164063
f 291/291/291 292/292/292 293/293/293
f 292/292/292 294/294/294 293/293/293
v -1.488525 -0.170166 0.612793
v -0.001708984 -0.170166 -0.003173828
v -1.339844 -0.170166 0.8908691
v -1.139648 -0.170166 1.134766
vn 0 -1 0
vn 0 -1 0
vn 0 -1 0
vn 0 -1 0
vt 0.8666992 -0.3164063
vt 0.5039063 -0.01269531
vt 0.8305664 -0.453125
vt 0.7817383 -0.5742188
f 295/295/295 296/296/296 297/297/297
f 296/296/296 298/298/298 297/297/297
v -1.139648 -0.170166 1.134766
v -0.001708984 -0.170166 -0.003173828
v -0.895752 -0.170166 1.334961
v -0.6176758 -0.170166 1.483643
vn 0 -1 0
vn 0 -1 0
vn 0 -1 0
vn 0 -1 0
vt 0.7817383 -0.5742188
vt 0.5039063 -0.01269531
vt 0.722168 -0.6728516
vt 0.6542969 -0.7460938
f 299/299/299 300/300/300 301/301/301
f 300/300/300 302/302/302 301/301/301
v -0.6176758 -0.170166 1.483643
v -0.001708984 -0.170166 -0.003173828
v -0.3156738 -0.170166 1.575195
v -0.001708984 -0.170166 1.606201
vn 0 -1 0
vn 0 -1 0
vn 0 -1 0
vn 0 -1 0
vt 0.6542969 -0.7460938
vt 0.5039063 -0.01269531
vt 0.5805664 -0.7910156
vt 0.5039063 -0.8066406
f 303/303/303 304/304/304 305/305/305
f 304/304/304 306/306/306 305/305/305
v -0.001708984 -0.170166 -1.612549
v -0.001708984 -0.05297852 -1.674805
v 0.3122559 -0.170166 -1.581543
v 1.607666 -0.170166 -0.003173828
v 1.669922 -0.05297852 -0.003173828
v 1.57666 -0.170166 0.310791
v -1.611084 -0.170166 -0.003173828
v -1.67334 -0.05297852 -0.003173828
v -1.580078 -0.170166 -0.3171387
v -0.001708984 -0.170166 1.606201
v -0.001708984 -0.05297852 1.668457
v -0.3156738 -0.170166 1.575195
vn 0 -0.4785156 -0.8789063
vn 0 -0.2421875 -0.9707031
vn 0.171875 -0.4785156 -0.8613281
vn 0.8789063 -0.4785156 0
vn 0.9707031 -0.2421875 0
vn 0.8613281 -0.4785156 0.171875
vn -0.8789063 -0.4785156 0
vn -0.9707031 -0.2421875 0
vn -0.8613281 -0.4785156 -0.171875
vn 0 -0.4785156 0.8789063
vn 0 -0.2421875 0.9707031
vn -0.171875 -0.4785156 0.8613281
vt 0.5043945 -0.8076172
vt 0.5043945 -0.8632813
vt 0.5810547 -0.7919922
vt 0.8969727 -0.01269531
vt 0.9248047 -0.01269531
vt 0.8896484 -0.1669922
vt 0.8964844 -0.01367188
vt 0.9243164 -0.01367188
vt 0.8891602 -0.1679688
vt 0.5039063 -0.8066406
vt 0.5039063 -0.8623047
vt 0.5805664 -0.7910156
f 307/307/307 308/308/308 309/309/309
f 310/310/310 311/311/311 312/312/312
f 313/313/313 314/314/314 315/315/315
f 316/316/316 317/317/317 318/318/318
